<svg width="154" height="154" viewBox="0 0 154 154" fill="none" xmlns="http://www.w3.org/2000/svg">
<path d="M131.446 22.549C124.312 15.3785 115.827 9.69364 106.482 5.82322C97.1365 1.95281 87.1166 -0.0263655 77.0016 0.000265212C66.8889 0.000265155 56.8753 1.99229 47.5325 5.86251C38.1897 9.73273 29.7007 15.4054 22.5504 22.5565C15.4 29.7077 9.72825 38.1973 5.85904 47.5406C1.98983 56.8838 -0.00107641 66.8977 4.36603e-07 77.0104C4.36603e-07 77.24 4.36603e-07 77.4696 4.36603e-07 77.6992C0.115033 90.332 3.33655 102.743 9.38047 113.836C15.4244 124.93 24.105 134.367 34.657 141.314C45.2089 148.26 57.308 152.504 69.8874 153.671C82.4668 154.838 95.14 152.891 106.79 148.004C118.439 143.116 128.707 135.437 136.688 125.644C144.669 115.851 150.118 104.244 152.555 91.848C154.991 79.4517 154.34 66.6464 150.659 54.5612C146.978 42.476 140.38 31.4821 131.446 22.549Z" fill="white"/>
<path d="M125.79 28.2063C119.397 21.7807 111.793 16.6865 103.419 13.2182C95.0444 9.74992 86.0655 7.97637 77.0014 8.00024C67.9394 8.00024 58.9662 9.7853 50.594 13.2534C42.2219 16.7215 34.6149 21.8048 28.2075 28.213C21.8 34.6212 16.7175 42.2288 13.2503 50.6013C9.7831 58.9738 7.99904 67.9473 8 77.0093C8 77.2151 8 77.4208 8 77.6265C8.10308 88.9469 10.9899 100.068 16.4059 110.009C21.8218 119.951 29.6006 128.407 39.0562 134.632C48.5119 140.857 59.3539 144.66 70.6264 145.705C81.8988 146.751 93.2553 145.006 103.694 140.627C114.134 136.247 123.335 129.365 130.487 120.59C137.639 111.814 142.521 101.414 144.705 90.3053C146.888 79.197 146.305 67.7221 143.006 56.8925C139.707 46.0629 133.795 36.2112 125.79 28.2063Z" fill="white" stroke="black" stroke-width="3"/>
<path d="M76.9634 104.175V49.8648" stroke="black" stroke-width="13" stroke-miterlimit="10" stroke-linecap="round"/>
<path d="M104 75.6978L76.9636 49.8648L49.9102 75.6978" stroke="black" stroke-width="13" stroke-linecap="round" stroke-linejoin="round"/>
</svg>
