<svg width="1920" height="624" viewBox="0 0 1920 624" fill="none" xmlns="http://www.w3.org/2000/svg">
<g clip-path="url(#clip0_314_1857)">
<path d="M199.257 25.2898C194.757 -2.45668 118.975 9.5011 117.933 9.92883C92.3999 14.0945 66.2899 10.059 40.4403 9.92883C21.6203 8.14353 -4.75008 8.10633 0.73599 33.8816C2.80024 43.6077 8.47228 52.3669 11.8941 61.6467C12.4892 63.246 17.9195 74.1624 18.4402 76.8961C18.6634 78.1235 49.5527 152.306 56.7497 162.014C96.3425 215.443 144.378 177.989 161.413 128.223C162.101 127.945 161.692 127.294 161.878 126.847C163.291 124.895 163.886 122.589 164.705 120.376L164.537 120.301C164.537 120.301 164.537 120.283 164.537 120.264L164.686 120.376C167.011 115.429 169.131 110.352 170.73 105.126C173.426 98.4499 176.681 91.3459 178.689 84.2977C184.789 64.6408 199.704 46.4717 199.276 25.2898H199.257ZM120.184 112.918C119.086 132.928 94.1108 145.909 83.399 124.913C71.2739 98.8404 97.1421 9.92883 114.753 77.826C116.613 88.6122 120.63 101.109 120.165 112.918H120.184Z" fill="#FFE456"/>
<path d="M1490.04 25.2898C1485.54 -2.45668 1409.75 9.5011 1408.71 9.92883C1383.18 14.0945 1357.07 10.059 1331.22 9.92883C1312.4 8.14353 1286.03 8.10633 1291.52 33.8816C1293.58 43.6077 1299.25 52.3669 1302.67 61.6467C1303.27 63.246 1308.7 74.1624 1309.22 76.8961C1309.44 78.1235 1340.33 152.306 1347.53 162.014C1387.12 215.443 1435.16 177.989 1452.19 128.223C1452.88 127.945 1452.47 127.294 1452.66 126.847C1454.07 124.895 1454.67 122.589 1455.48 120.376L1455.32 120.301C1455.32 120.301 1455.32 120.283 1455.32 120.264L1455.47 120.376C1457.79 115.429 1459.91 110.352 1461.51 105.126C1464.21 98.4499 1467.46 91.3459 1469.47 84.2977C1475.57 64.6408 1490.48 46.4717 1490.06 25.2898H1490.04ZM1410.96 112.918C1409.87 132.928 1384.89 145.909 1374.18 124.913C1362.05 98.8404 1387.92 9.92883 1405.53 77.826C1407.39 88.6122 1411.41 101.109 1410.94 112.918H1410.96Z" fill="#FFE456"/>
<path d="M407.375 170.697C391.177 145.312 375.277 116.152 347.995 103.023C368.396 92.739 383.627 71.8919 395.547 51.7515C420.132 23.819 421.044 11.043 379.814 13.4792C349.297 13.535 319.579 15.0971 289.025 14.3718C267.843 14.0929 209.932 6.1334 243.611 41.2257C259.158 61.645 270.465 87.6248 294.102 99.9546C295.534 100.643 296.965 101.387 298.397 102.056C300.648 103.469 293.172 104.808 292 106.408C279.596 113.344 270.279 124.837 262.71 136.553C257.466 150.501 221.351 177.838 238.516 189.145C267.954 194.687 299.141 190.428 328.896 190.335C346.601 186.839 379.74 196.77 399.583 191.34C408.435 188.922 412.322 178.452 407.375 170.716V170.697Z" fill="#FFE456"/>
<path d="M1698.15 170.697C1681.96 145.312 1666.06 116.152 1638.77 103.023C1659.17 92.739 1674.41 71.8919 1686.33 51.7515C1710.91 23.819 1711.82 11.043 1670.59 13.4792C1640.08 13.535 1610.36 15.0971 1579.8 14.3718C1558.62 14.0929 1500.71 6.1334 1534.39 41.2257C1549.94 61.645 1561.24 87.6248 1584.88 99.9546C1586.31 100.643 1587.74 101.387 1589.18 102.056C1591.43 103.469 1583.95 104.808 1582.78 106.408C1570.37 113.344 1561.06 124.837 1553.49 136.553C1548.24 150.501 1512.13 177.838 1529.29 189.145C1558.73 194.687 1589.92 190.428 1619.68 190.335C1637.38 186.839 1670.52 196.77 1690.36 191.34C1699.21 188.922 1703.1 178.452 1698.15 170.716V170.697Z" fill="#FFE456"/>
<path d="M609.113 130.454C608.871 129.152 609.559 127.739 608.648 126.493C607.96 115.186 607.067 103.563 605.542 92.4789C605.189 81.6183 604.166 70.4602 604.538 59.4508C606.175 38.6967 607.588 14.558 580.716 13.0889H570.748C559.645 15.4507 546.981 16.5293 536.381 21.4203C514.269 29.9934 524.311 72.729 517.97 93.4087C515.478 113.252 499.336 124.837 483.584 134.861C483.194 134.898 482.803 134.898 482.617 135.326C462.328 145.684 446.446 177.206 475.123 187.658C477.745 188.959 480.665 189.759 483.584 190.131C490.075 191.823 497.197 192.046 504.059 191.991C527.008 191.061 550.868 194.241 573.221 190.019C573.76 190.057 574.374 190.317 574.746 189.666C575.602 189.592 576.513 189.722 577.219 189.034C589.103 186.393 601.023 178.117 605.617 166.494C606.584 164.635 607.588 162.775 607.625 160.581C608.109 160.376 608.09 159.967 608.034 159.558C609.28 157.568 608.369 154.964 609.578 153.142V132.927C608.685 132.258 609.243 131.291 609.094 130.454H609.113Z" fill="#FFE456"/>
<path d="M1899.89 130.454C1899.65 129.152 1900.34 127.739 1899.43 126.493C1898.74 115.186 1897.85 103.563 1896.32 92.4789C1895.97 81.6183 1894.95 70.4602 1895.32 59.4508C1896.95 38.6967 1898.37 14.558 1871.49 13.0889H1861.53C1850.42 15.4507 1837.76 16.5293 1827.16 21.4203C1805.05 29.9934 1815.09 72.729 1808.75 93.4087C1806.26 113.252 1790.11 124.837 1774.36 134.861C1773.97 134.898 1773.58 134.898 1773.4 135.326C1753.11 145.684 1737.23 177.206 1765.9 187.658C1768.52 188.959 1771.44 189.759 1774.36 190.131C1780.85 191.823 1787.98 192.046 1794.84 191.991C1817.79 191.061 1841.65 194.241 1864 190.019C1864.54 190.057 1865.15 190.317 1865.52 189.666C1866.38 189.592 1867.29 189.722 1868 189.034C1879.88 186.393 1891.8 178.117 1896.4 166.494C1897.36 164.635 1898.37 162.775 1898.4 160.581C1898.89 160.376 1898.87 159.967 1898.81 159.558C1900.06 157.568 1899.15 154.964 1900.36 153.142V132.927C1899.46 132.258 1900.02 131.291 1899.87 130.454H1899.89Z" fill="#FFE456"/>
<path d="M839.381 25.2887C834.88 -2.45779 759.117 9.49999 758.056 9.90913C732.523 14.0748 706.413 10.0393 680.563 9.90913C661.743 8.14242 635.373 8.10523 640.859 33.8805C642.923 43.6066 648.595 52.3658 652.017 61.6456C652.612 63.2449 658.043 74.1613 658.563 76.895C658.786 78.1224 689.676 152.305 696.873 162.013C736.466 215.442 784.501 177.988 801.536 128.222C802.224 127.943 801.815 127.293 802.001 126.846C803.414 124.894 804.009 122.588 804.828 120.374L804.66 120.3C804.66 120.3 804.66 120.282 804.66 120.263L804.809 120.374C807.134 115.428 809.254 110.351 810.853 105.125C813.549 98.4488 816.804 91.3448 818.812 84.2966C824.912 64.6397 839.827 46.4706 839.399 25.2887H839.381ZM760.307 112.917C759.209 132.927 734.234 145.908 723.522 124.912C711.397 98.8393 737.265 9.92773 754.876 77.8249C756.736 88.6111 760.753 101.108 760.288 112.917H760.307Z" fill="#FFE456"/>
<path d="M1047.5 170.697C1031.3 145.312 1015.4 116.152 988.118 103.023C1008.52 92.739 1023.75 71.8919 1035.67 51.7515C1060.25 23.819 1061.17 11.043 1019.94 13.4792C989.42 13.535 959.702 15.0971 929.147 14.3718C907.965 14.0929 850.055 6.1334 883.734 41.2257C899.281 61.645 910.587 87.6248 934.224 99.9546C935.656 100.643 937.088 101.387 938.52 102.056C940.77 103.469 933.294 104.808 932.123 106.408C919.719 113.344 910.402 124.837 902.833 136.553C897.588 150.501 861.473 177.838 878.638 189.145C908.077 194.687 939.264 190.428 969.019 190.335C986.723 186.839 1019.86 196.77 1039.71 191.34C1048.56 188.922 1052.44 178.452 1047.5 170.716V170.697Z" fill="#FFE456"/>
<path d="M1249.24 130.454C1248.99 129.152 1249.68 127.739 1248.77 126.493C1248.08 115.186 1247.19 103.563 1245.66 92.4789C1245.31 81.6183 1244.29 70.4602 1244.66 59.4508C1246.3 38.6967 1247.71 14.558 1220.84 13.0889H1210.87C1199.77 15.4507 1187.1 16.5293 1176.5 21.4203C1154.39 29.9934 1164.43 72.729 1158.09 93.4087C1155.6 113.252 1139.46 124.837 1123.71 134.861C1123.32 134.898 1122.93 134.898 1122.74 135.326C1102.45 145.684 1086.57 177.206 1115.24 187.658C1117.87 188.959 1120.79 189.759 1123.71 190.131C1130.2 191.823 1137.32 192.046 1144.18 191.991C1167.13 191.061 1190.99 194.241 1213.34 190.019C1213.88 190.057 1214.5 190.317 1214.87 189.666C1215.72 189.592 1216.63 189.722 1217.34 189.034C1229.22 186.393 1241.15 178.117 1245.74 166.494C1246.71 164.635 1247.71 162.775 1247.75 160.581C1248.23 160.376 1248.21 159.967 1248.16 159.558C1249.4 157.568 1248.49 154.964 1249.7 153.142V132.927C1248.81 132.258 1249.37 131.291 1249.22 130.454H1249.24Z" fill="#FFE456"/>
</g>
<g clip-path="url(#clip1_314_1857)">
<path d="M858.371 345.493C855.042 278.796 881.018 203.324 781.931 220.467C763.318 221.155 744.297 224.074 725.442 222.996C711.72 224.279 685.763 217.771 681.412 234.283C681.096 234.227 680.947 233.818 680.724 233.557C674.793 244.9 677.191 258.957 681.877 270.745C681.877 293.467 707.109 297.818 725.424 296.609C750.712 296.126 816.144 307.468 750.693 317.602C721.054 321.544 681.263 311.763 679.292 353.674C675.945 365.556 675.332 384.522 688.943 390.304C708.559 397.296 731.058 390.527 751.623 393.391C755.825 394.172 762.091 394.655 766.331 393.949C766.256 394.116 766.107 394.283 765.94 394.376C807.925 399.787 861.978 405.161 858.352 345.511L858.371 345.493Z" fill="#FFE456"/>
<path d="M1088.69 244.101C1078.62 207.211 999.87 225.024 971.366 220.896C951.34 221.956 926.127 225.86 914.58 245.068C913.539 246.965 912.256 248.861 911.735 251.037C908.667 258.028 907.588 267.511 908.63 274.911C908.63 275.116 908.63 275.339 908.63 275.543C911.214 310.091 916.662 344.62 914.022 379.8C914.022 386.456 916.012 393.541 921.236 398.003C924.397 401.108 928.786 403.005 932.969 403.972C950.559 408.992 968.948 403.321 986.594 400.458C1005.17 398.635 1015.6 381.659 1014.13 364.069C1014.93 362.303 1014.22 360.072 1014.45 358.119C1014.28 352.299 1015.08 346.628 1015.4 340.827C1015.4 277.05 1083.06 291.441 1089.01 244.12C1088.92 244.12 1088.81 244.12 1088.71 244.101H1088.69Z" fill="#FFE456"/>
<path d="M1278.89 261.543C1280.62 241.777 1283.39 217.549 1255.63 220.896C1230.77 228.166 1205.87 238.765 1181.5 247.244C1181.53 247.132 1181.57 247.021 1181.63 246.909C1152.58 257.88 1114.91 266.544 1100.89 297.317C1090.7 321.545 1111.84 344.843 1133.04 354.01C1160.37 368.755 1191.11 376.174 1220.23 387.182C1233.78 391.682 1246.33 399.863 1261.1 399.77C1261.1 399.77 1261.99 399.77 1262.01 399.77C1281.25 400.514 1280.95 375.765 1279.13 362.526H1279.19C1278.46 355.591 1278.2 348.86 1279.19 341.85C1280.56 337.796 1279.49 327.086 1278.74 322.958C1275.39 302.765 1278.63 282.052 1278.91 261.524L1278.89 261.543ZM1235.18 314.238C1234.77 314.424 1234.19 314.684 1234.26 315.242C1212.53 324.52 1180.73 334.784 1158.46 322.456C1158.03 321.192 1157.17 320.43 1155.8 320.262C1155.33 318.533 1154.16 317.194 1152.53 316.525C1146.37 304.718 1159.13 296.146 1168.09 293.208C1174.02 291.46 1180.71 293.747 1186.59 293.208C1196.52 297.187 1239.29 301.371 1235.18 314.238Z" fill="#FFE456"/>
<path d="M207.816 345.493C204.488 278.796 230.464 203.324 131.377 220.467C112.764 221.155 93.7425 224.074 74.8882 222.996C61.1659 224.279 35.2088 217.771 30.8578 234.283C30.5417 234.227 30.393 233.818 30.1698 233.557C24.2384 244.9 26.637 258.957 31.3226 270.745C31.3226 293.467 56.5546 297.818 74.8696 296.609C100.157 296.126 165.589 307.468 100.139 317.602C70.5001 321.544 30.709 311.763 28.7381 353.674C25.3911 365.556 24.7775 384.522 38.3883 390.304C58.0049 397.296 80.5036 390.527 101.069 393.391C105.271 394.172 111.537 394.655 115.776 393.949C115.702 394.116 115.553 394.283 115.386 394.376C157.371 399.787 211.424 405.161 207.798 345.511L207.816 345.493Z" fill="#FFE456"/>
<path d="M1498.39 345.493C1495.06 278.796 1521.04 203.324 1421.95 220.467C1403.34 221.155 1384.32 224.074 1365.46 222.996C1351.74 224.279 1325.78 217.771 1321.43 234.283C1321.12 234.227 1320.97 233.818 1320.75 233.557C1314.81 244.9 1317.21 258.957 1321.9 270.745C1321.9 293.467 1347.13 297.818 1365.45 296.609C1390.73 296.126 1456.17 307.468 1390.71 317.602C1361.08 321.544 1321.29 311.763 1319.31 353.674C1315.97 365.556 1315.35 384.522 1328.96 390.304C1348.58 397.296 1371.08 390.527 1391.64 393.391C1395.85 394.172 1402.11 394.655 1406.35 393.949C1406.28 394.116 1406.13 394.283 1405.96 394.376C1447.95 399.787 1502 405.161 1498.37 345.511L1498.39 345.493Z" fill="#FFE456"/>
<path d="M438.158 244.101C428.08 207.211 349.335 225.024 320.83 220.896C300.804 221.956 275.591 225.86 264.044 245.068C263.003 246.965 261.72 248.861 261.199 251.037C258.131 258.028 257.053 267.511 258.094 274.911C258.094 275.116 258.094 275.339 258.094 275.543C260.679 310.091 266.127 344.62 263.486 379.8C263.486 386.456 265.476 393.541 270.701 398.003C273.862 401.108 278.25 403.005 282.434 403.972C300.023 408.992 318.413 403.321 336.058 400.458C354.634 398.635 365.065 381.659 363.596 364.069C364.396 362.303 363.689 360.072 363.912 358.119C363.745 352.299 364.544 346.628 364.86 340.827C364.86 277.05 432.524 291.441 438.474 244.12C438.381 244.12 438.269 244.12 438.176 244.101H438.158Z" fill="#FFE456"/>
<path d="M1728.73 244.101C1718.66 207.211 1639.91 225.024 1611.41 220.896C1591.38 221.956 1566.17 225.86 1554.62 245.068C1553.58 246.965 1552.3 248.861 1551.78 251.037C1548.71 258.028 1547.63 267.511 1548.67 274.911C1548.67 275.116 1548.67 275.339 1548.67 275.543C1551.25 310.091 1556.7 344.62 1554.06 379.8C1554.06 386.456 1556.05 393.541 1561.28 398.003C1564.44 401.108 1568.83 403.005 1573.01 403.972C1590.6 408.992 1608.99 403.321 1626.63 400.458C1645.21 398.635 1655.64 381.659 1654.17 364.069C1654.97 362.303 1654.27 360.072 1654.49 358.119C1654.32 352.299 1655.12 346.628 1655.44 340.827C1655.44 277.05 1723.1 291.441 1729.05 244.12C1728.96 244.12 1728.85 244.12 1728.75 244.101H1728.73Z" fill="#FFE456"/>
<path d="M628.337 261.543C630.066 241.777 632.837 217.549 605.076 220.896C580.216 228.166 555.319 238.765 530.942 247.244C530.979 247.132 531.016 247.021 531.072 246.909C502.028 257.88 464.357 266.544 450.337 297.317C440.148 321.545 461.289 344.843 482.486 354.01C509.819 368.755 540.555 376.174 569.673 387.182C583.228 391.682 595.779 399.863 610.543 399.77C610.543 399.77 611.435 399.77 611.454 399.77C630.699 400.514 630.401 375.765 628.579 362.526H628.635C627.91 355.591 627.649 348.86 628.635 341.85C630.011 337.796 628.932 327.086 628.188 322.958C624.841 302.765 628.077 282.052 628.356 261.524L628.337 261.543ZM584.623 314.238C584.214 314.424 583.637 314.684 583.712 315.242C561.975 324.52 530.18 334.784 507.904 322.456C507.476 321.192 506.621 320.43 505.245 320.262C504.78 318.533 503.609 317.194 501.973 316.525C495.818 304.718 508.574 296.146 517.536 293.208C523.467 291.46 530.161 293.747 536.037 293.208C545.966 297.187 588.732 301.371 584.623 314.238Z" fill="#FFE456"/>
<path d="M1918.91 261.543C1920.64 241.777 1923.41 217.549 1895.65 220.896C1870.79 228.166 1845.9 238.765 1821.52 247.244C1821.56 247.132 1821.59 247.021 1821.65 246.909C1792.61 257.88 1754.93 266.544 1740.91 297.317C1730.72 321.545 1751.87 344.843 1773.06 354.01C1800.4 368.755 1831.13 376.174 1860.25 387.182C1873.8 391.682 1886.36 399.863 1901.12 399.77C1901.12 399.77 1902.01 399.77 1902.03 399.77C1921.28 400.514 1920.98 375.765 1919.16 362.526H1919.21C1918.49 355.591 1918.23 348.86 1919.21 341.85C1920.59 337.796 1919.51 327.086 1918.76 322.958C1915.42 302.765 1918.65 282.052 1918.93 261.524L1918.91 261.543ZM1875.2 314.238C1874.79 314.424 1874.21 314.684 1874.29 315.242C1852.55 324.52 1820.76 334.784 1798.48 322.456C1798.05 321.192 1797.2 320.43 1795.82 320.262C1795.36 318.533 1794.19 317.194 1792.55 316.525C1786.39 304.718 1799.15 296.146 1808.11 293.208C1814.04 291.46 1820.74 293.747 1826.61 293.208C1836.54 297.187 1879.31 301.371 1875.2 314.238Z" fill="#FFE456"/>
</g>
<g clip-path="url(#clip2_314_1857)">
<path d="M181.421 587.21C181.235 583.603 182.314 579.884 180.51 576.407C183.058 548.832 178.576 520.923 180.975 493.181C180.752 484.776 181.217 476.26 181.421 468.004C183.467 440.969 175.936 424.922 151.504 448.611C133.691 461.106 113.182 471.128 99.3476 488.253C95.6289 492.548 93.3232 497.792 90.6829 502.589C83.6358 483.363 64.577 471.221 48.4002 460.437C38.3037 454.301 28.8022 447.365 19.3379 440.206C18.7243 439.909 18.3896 439.128 17.5715 439.202C16.9579 438.161 15.9352 437.901 14.8382 437.826C-7.77207 429.961 2.71491 478.714 0.818332 490.949C0.94849 490.968 1.06005 491.024 1.17162 491.061C-1.41294 500.953 1.37615 517.018 1.72944 527.821C1.30177 545.727 0.985678 563.559 0.279108 581.353C0.669581 581.167 1.06005 580.981 1.45053 581.093C1.06005 581.186 0.669581 581.241 0.279108 581.353C1.69225 590.445 -3.96031 611.921 7.51215 615.12V615.157C12.83 617.518 20.844 612.033 24.8603 607.924C43.7332 593.644 67.0872 583.064 82.4272 564.247C86.0344 560.119 88.3586 554.801 91.0362 550.097C91.8729 552.253 92.784 554.262 93.9368 556.158C94.1971 556.009 94.3831 555.786 94.5876 555.6C94.5132 555.824 94.3273 556.028 93.9368 556.158C103.011 572.261 118.946 582.896 134.341 592.342C134.156 592.342 133.97 592.286 133.784 592.175C157.305 605.897 183.597 639.385 181.44 587.21H181.421Z" fill="#FFE456"/>
<path d="M1472 587.21C1471.81 583.603 1472.89 579.884 1471.09 576.407C1473.63 548.832 1469.15 520.923 1471.55 493.181C1471.33 484.776 1471.79 476.26 1472 468.004C1474.04 440.969 1466.51 424.922 1442.08 448.611C1424.27 461.106 1403.76 471.128 1389.92 488.253C1386.21 492.548 1383.9 497.792 1381.26 502.589C1374.21 483.363 1355.15 471.221 1338.98 460.437C1328.88 454.301 1319.38 447.365 1309.92 440.206C1309.3 439.909 1308.97 439.128 1308.15 439.202C1307.54 438.161 1306.51 437.901 1305.42 437.826C1282.81 429.961 1293.29 478.714 1291.4 490.949C1291.53 490.968 1291.64 491.024 1291.75 491.061C1289.16 500.953 1291.95 517.018 1292.31 527.821C1291.88 545.727 1291.56 563.559 1290.86 581.353C1291.25 581.167 1291.64 580.981 1292.03 581.093C1291.64 581.186 1291.25 581.241 1290.86 581.353C1292.27 590.445 1286.62 611.921 1298.09 615.12V615.157C1303.41 617.518 1311.42 612.033 1315.44 607.924C1334.31 593.644 1357.66 583.064 1373 564.247C1376.61 560.119 1378.94 554.801 1381.61 550.097C1382.45 552.253 1383.36 554.262 1384.51 556.158C1384.77 556.009 1384.96 555.786 1385.16 555.6C1385.09 555.824 1384.9 556.028 1384.51 556.158C1393.59 572.261 1409.52 582.896 1424.92 592.342C1424.73 592.342 1424.55 592.286 1424.36 592.175C1447.88 605.897 1474.17 639.385 1472.02 587.21H1472Z" fill="#FFE456"/>
<path d="M381.158 569.118C380.6 545.429 377.123 521.387 375.487 497.921C375.84 471.388 382.813 435.594 345.737 434.088C312.881 434.088 242.206 422.039 224.709 455.825C212.381 484.868 225.769 517.464 224.839 547.846C221.585 597.789 225.917 613.594 279.97 611.196C316.395 611.586 378.406 619.451 381.14 569.118H381.158Z" fill="#FFE456"/>
<path d="M1671.73 569.118C1671.18 545.429 1667.7 521.387 1666.06 497.921C1666.42 471.388 1673.39 435.594 1636.31 434.088C1603.46 434.088 1532.78 422.039 1515.29 455.825C1502.96 484.868 1516.35 517.464 1515.42 547.846C1512.16 597.789 1516.49 613.594 1570.55 611.196C1606.97 611.586 1668.98 619.451 1671.72 569.118H1671.73Z" fill="#FFE456"/>
<path d="M595.973 482.86C603.727 456.457 592.087 438.272 563.36 442.177C478.441 448.499 406.594 399.188 417.546 526.129C416.579 573.971 412.488 622.743 477.288 616.012C477.288 615.882 477.288 615.751 477.288 615.621C499.322 615.696 521.356 610.861 543.855 611.754C560.199 609.801 585.487 618.801 594.653 601.099C594.709 601.174 594.765 601.248 594.765 601.341C596.959 597.883 597.703 593.643 597.758 589.571C601.18 513.317 537.384 552.755 494.822 527.133C500.085 522.652 507.299 521.183 513.714 519.323C518.623 518.393 523.848 517.873 528.589 516.906C558.507 513.615 592.013 523.116 595.936 482.86H595.973Z" fill="#FFE456"/>
<path d="M1886.55 482.86C1894.3 456.457 1882.66 438.272 1853.94 442.177C1769.02 448.499 1697.17 399.188 1708.12 526.129C1707.16 573.971 1703.07 622.743 1767.87 616.012C1767.87 615.882 1767.87 615.751 1767.87 615.621C1789.9 615.696 1811.93 610.861 1834.43 611.754C1850.78 609.801 1876.06 618.801 1885.23 601.099C1885.29 601.174 1885.34 601.248 1885.34 601.341C1887.54 597.883 1888.28 593.643 1888.34 589.571C1891.76 513.317 1827.96 552.755 1785.4 527.133C1790.66 522.652 1797.88 521.183 1804.29 519.323C1809.2 518.393 1814.42 517.873 1819.17 516.906C1849.08 513.615 1882.59 523.116 1886.51 482.86H1886.55Z" fill="#FFE456"/>
<path d="M821.462 587.21C821.276 583.603 822.355 579.884 820.551 576.407C823.099 548.832 818.617 520.923 821.016 493.181C820.793 484.776 821.258 476.26 821.462 468.004C823.508 440.969 815.977 424.922 791.545 448.611C773.732 461.106 753.223 471.128 739.389 488.253C735.67 492.548 733.364 497.792 730.724 502.589C723.677 483.363 704.618 471.221 688.441 460.437C678.345 454.301 668.843 447.365 659.379 440.206C658.765 439.909 658.431 439.128 657.612 439.202C656.999 438.161 655.976 437.901 654.879 437.826C632.269 429.961 642.756 478.714 640.859 490.949C640.99 490.968 641.101 491.024 641.213 491.061C638.628 500.953 641.417 517.018 641.77 527.821C641.343 545.727 641.027 563.559 640.32 581.353C640.711 581.167 641.101 580.981 641.492 581.093C641.101 581.186 640.711 581.241 640.32 581.353C641.733 590.445 636.081 611.921 647.553 615.12V615.157C652.871 617.518 660.885 612.033 664.901 607.924C683.774 593.644 707.128 583.064 722.468 564.247C726.075 560.119 728.4 554.801 731.077 550.097C731.914 552.253 732.825 554.262 733.978 556.158C734.238 556.009 734.424 555.786 734.629 555.6C734.554 555.824 734.368 556.028 733.978 556.158C743.052 572.261 758.987 582.896 774.382 592.342C774.197 592.342 774.011 592.286 773.825 592.175C797.346 605.897 823.638 639.385 821.481 587.21H821.462Z" fill="#FFE456"/>
<path d="M1021.2 569.118C1020.64 545.429 1017.16 521.387 1015.53 497.921C1015.88 471.388 1022.85 435.594 985.777 434.088C952.922 434.088 882.246 422.039 864.749 455.825C852.421 484.868 865.809 517.464 864.879 547.846C861.625 597.789 865.958 613.594 920.01 611.196C956.436 611.586 1018.45 619.451 1021.18 569.118H1021.2Z" fill="#FFE456"/>
<path d="M1236 482.86C1243.75 456.457 1232.11 438.272 1203.38 442.177C1118.46 448.499 1046.62 399.188 1057.57 526.129C1056.6 573.971 1052.51 622.743 1117.31 616.012C1117.31 615.882 1117.31 615.751 1117.31 615.621C1139.34 615.696 1161.38 610.861 1183.88 611.754C1200.22 609.801 1225.51 618.801 1234.68 601.099C1234.73 601.174 1234.79 601.248 1234.79 601.341C1236.98 597.883 1237.73 593.643 1237.78 589.571C1241.2 513.317 1177.41 552.755 1134.84 527.133C1140.11 522.652 1147.32 521.183 1153.74 519.323C1158.65 518.393 1163.87 517.873 1168.61 516.906C1198.53 513.615 1232.04 523.116 1235.96 482.86H1236Z" fill="#FFE456"/>
</g>
<defs>
<clipPath id="clip0_314_1857">
<rect width="1920" height="200" fill="white"/>
</clipPath>
<clipPath id="clip1_314_1857">
<rect width="1920" height="200" fill="white" transform="translate(0 212)"/>
</clipPath>
<clipPath id="clip2_314_1857">
<rect width="1920" height="200" fill="white" transform="translate(0 424)"/>
</clipPath>
</defs>
</svg>
