<svg width="304" height="426" viewBox="0 0 304 426" fill="none" xmlns="http://www.w3.org/2000/svg">
<g clip-path="url(#clip0_164_1068)">
<g style="mix-blend-mode:multiply" opacity="0.6">
<path d="M300.921 58.1544C273.742 51.1093 244.423 55.0537 218.45 65.7932C192.478 76.5326 169.61 93.7008 149.293 113.124C114.483 146.418 84.0231 188.333 73.6011 236.033C70.1472 251.839 68.8208 268.729 72.3471 284.661C72.9324 287.279 73.617 289.821 74.4578 292.361C77.3328 301.01 82.2224 309.258 86.4729 317.287C91.257 326.323 97.5275 334.577 105.073 341.462C127.509 361.958 158.784 372.356 189.043 370.876C230.45 368.85 269.17 346.794 297.395 316.412C318.619 293.544 334.449 266.194 346.676 237.629C357.532 212.313 369.029 187.528 370.79 159.577C371.129 154.051 371.173 148.398 370.817 142.736C370.124 131.436 367.894 120.133 363.587 109.868C352.701 84.0006 328.056 65.1937 300.877 58.1486L300.921 58.1544ZM278.01 188.616C269.171 197.378 260.484 206.338 252.822 216.126C248.546 221.595 244.573 227.306 240.951 233.219C237.495 238.886 235.102 245.275 230.262 249.8C220.358 259.022 210.076 267.748 199.25 275.868C191.814 281.474 184.477 287.004 174.583 285.845C166.177 284.883 158.48 279.292 154.939 271.624C151.621 264.454 151.91 256.137 153.479 248.414C158.818 222.364 177.384 201.371 195.218 181.684C208.734 166.793 222.453 151.706 239.448 140.954C246.947 136.202 255.292 132.299 264.128 131.713C273.007 131.134 282.464 134.397 287.601 141.63C291.498 147.14 292.499 154.313 291.533 161.025C290.013 171.54 285.393 181.242 277.997 188.547L278.01 188.616Z" fill="#797774"/>
</g>
<path d="M294.084 56.6215C266.906 49.5764 237.587 53.5208 211.633 64.2851C185.666 74.9807 162.774 92.168 142.457 111.591C107.647 144.885 77.1866 186.801 66.7646 234.5C63.3107 250.306 61.9843 267.197 65.5106 283.128C66.0769 285.721 66.7805 288.288 67.6213 290.829C70.4963 299.477 75.3859 307.725 79.6364 315.754C84.4205 324.79 90.691 333.044 98.2367 339.929C120.672 360.425 151.948 370.823 182.207 369.343C223.614 367.318 262.334 345.261 290.558 314.879C311.782 292.012 327.613 264.661 339.839 236.096C350.695 210.78 362.193 185.995 363.953 158.044C364.292 152.519 364.336 146.865 363.98 141.203C363.288 129.903 361.058 118.6 356.75 108.335C345.864 82.4677 321.219 63.6609 294.041 56.6157L294.084 56.6215ZM271.174 187.083C262.335 195.845 253.647 204.805 245.985 214.593C241.71 220.062 237.736 225.773 234.114 231.686C230.659 237.354 228.265 243.742 223.425 248.267C213.522 257.49 203.239 266.216 192.414 274.335C184.978 279.941 177.641 285.472 167.746 284.312C159.34 283.35 151.644 277.759 148.102 270.091C144.784 262.921 145.074 254.605 146.643 246.881C151.981 220.832 170.548 199.838 188.382 180.152C201.897 165.26 215.617 150.173 232.611 139.421C240.111 134.67 248.455 130.766 257.291 130.181C266.152 129.576 275.628 132.864 280.765 140.098C284.662 145.607 285.662 152.78 284.696 159.492C283.177 170.007 278.557 179.709 271.161 187.014L271.174 187.083Z" fill="#FFED9A"/>
<path d="M245.297 119.74C229.504 120.693 215.35 129.706 203.072 139.682C179.814 158.603 160.327 182.147 146.081 208.483C138.433 222.662 131.495 239.52 135.731 255.813C138.652 266.941 144.391 273.007 151.391 275.319C150.065 273.739 148.919 271.983 148.058 270.086C144.759 262.94 145.03 254.599 146.643 246.881C151.956 220.851 170.529 199.814 188.382 180.152C201.872 165.279 215.617 150.173 232.586 139.44C240.086 134.689 248.43 130.785 257.266 130.2C265.315 129.666 273.874 132.319 279.23 138.245C273.813 126.116 258.935 118.902 245.259 119.691L245.297 119.74ZM338.393 189.492C321.455 224.45 304.215 259.834 278.919 289.313C253.604 318.767 218.851 342.153 180.167 345.476C146.196 348.378 113.56 335.996 82.5367 320.886C86.8723 327.946 92.1338 334.417 98.2307 339.973C120.691 360.45 151.942 370.866 182.201 369.386C223.608 367.361 262.352 345.286 290.552 314.923C311.776 292.055 327.607 264.705 339.833 236.14C350.645 210.818 362.187 186.039 363.947 158.087C364.43 150.487 364.343 142.655 363.425 134.868C355.821 153.375 347.058 171.55 338.368 189.511L338.393 189.492Z" fill="#FFE455"/>
<path d="M279.268 138.294C273.912 132.368 265.353 129.715 257.304 130.249C248.449 130.81 240.124 134.738 232.624 139.489C215.63 150.242 201.891 165.304 188.42 180.201C170.542 199.882 151.994 220.9 146.681 246.931C145.112 254.654 144.822 262.971 148.096 270.135C148.981 272.013 150.103 273.789 151.429 275.369C144.429 273.057 138.647 266.985 135.769 255.863C131.533 239.569 138.477 222.668 146.119 208.533C160.346 182.172 179.852 158.653 203.11 139.732C215.369 129.731 229.523 120.717 245.335 119.79C259.036 118.982 273.889 126.216 279.306 138.344L279.268 138.294Z" fill="#FFE455"/>
<path d="M294.066 56.5967C266.887 49.5516 237.587 53.5208 211.595 64.2354C185.666 74.9807 162.774 92.1679 142.457 111.591C107.647 144.885 77.1867 186.801 66.7648 234.5C62.74 252.903 61.5959 272.76 67.6214 290.829C70.4965 299.477 75.3861 307.725 79.6365 315.754C84.4206 324.79 90.6912 333.044 98.2368 339.929C120.672 360.425 151.948 370.823 182.207 369.343C223.614 367.318 262.334 345.261 290.559 314.879C311.783 292.012 327.613 264.661 339.84 236.096C350.695 210.78 362.193 185.995 363.953 158.044C365.033 141.499 363.246 123.726 356.775 108.316C345.889 82.4487 321.244 63.6418 294.066 56.5967ZM280.759 140.141C284.656 145.65 285.675 152.849 284.71 159.561C283.19 170.076 278.57 179.778 271.174 187.083C262.335 195.845 253.647 204.805 245.986 214.593C241.691 220.038 237.736 225.773 234.114 231.686C230.659 237.353 228.266 243.742 223.426 248.267C213.522 257.49 203.239 266.216 192.414 274.335C184.959 279.916 177.641 285.472 167.746 284.312C159.34 283.35 151.644 277.759 148.102 270.091C144.784 262.921 145.074 254.605 146.643 246.881C151.981 220.832 170.529 199.814 188.382 180.152C201.897 165.26 215.617 150.173 232.611 139.421C240.111 134.67 248.455 130.766 257.291 130.181C266.152 129.576 275.628 132.864 280.765 140.097L280.759 140.141Z" stroke="#2D2A26" stroke-width="0.98" stroke-miterlimit="10"/>
</g>
<defs>
<clipPath id="clip0_164_1068">
<rect width="356" height="263" fill="white" transform="translate(-0.000488281 216.22) rotate(-37.3987)"/>
</clipPath>
</defs>
</svg>
