<svg width="465" height="473" viewBox="0 0 465 473" fill="none" xmlns="http://www.w3.org/2000/svg">
<g clip-path="url(#clip0_164_898)">
<g style="mix-blend-mode:multiply" opacity="0.6">
<path d="M56.7115 204.258C57.1352 221.825 63.0761 239.639 71.2111 255.047C84.9533 281.087 106.659 299.812 127.974 319.394C151.999 341.478 178.97 360.838 209.148 373.545C249.3 390.457 295.943 394.795 336.542 378.758C366.196 367.051 391.721 343.565 404.44 314.181C408.738 304.278 411.172 293.682 411.885 282.933C412.512 273.405 413.642 263.368 412.679 253.843C410.666 233.896 401.032 215.371 389.257 199.473C358.709 158.295 311.455 131.293 263.732 114.482C235.891 104.678 206.551 98.1125 177.006 99.0897C147.461 100.067 117.65 108.991 94.6015 127.494C71.5534 145.997 56.0066 174.699 56.7115 204.258ZM161.596 182.102C170.35 178.806 180.042 178.964 189.269 180.261C210.173 183.192 229.847 191.697 249.217 200.102C274.82 211.202 301.658 223.301 317.998 245.935C322.806 252.644 326.667 260.498 326.61 268.801C326.5 277.676 321.543 286.364 313.875 290.96C304.881 296.354 295.49 294.224 285.906 292.077C272.023 289.02 258.387 285.094 244.929 280.534C238.317 278.288 233.265 273.194 227.527 269.292C221.494 265.195 215.212 261.438 208.753 258.05C197.167 251.969 185.009 247.163 172.754 242.612C162.502 238.817 153.919 231.509 147.912 222.093C144.098 216.097 141.97 208.782 143.353 201.8C145.174 192.643 152.842 185.398 161.596 182.102Z" fill="#797774"/>
</g>
<path d="M47.6372 199.129C48.061 216.696 54.0019 234.51 62.1369 249.918C75.8791 275.958 97.6067 294.709 118.9 314.265C142.925 336.349 169.896 355.709 200.074 368.416C240.226 385.328 286.869 389.666 327.489 373.655C357.144 361.948 382.669 338.462 395.388 309.078C399.685 299.176 402.119 288.579 402.833 277.83C403.459 268.302 404.59 258.265 403.627 248.74C401.613 228.793 391.98 210.268 380.204 194.37C349.613 153.14 302.381 126.164 254.657 109.353C226.817 99.5492 197.476 92.9836 167.931 93.9608C138.386 94.938 108.575 103.862 85.5273 122.365C62.4792 140.868 46.9324 169.57 47.6372 199.129ZM152.496 176.995C161.25 173.699 170.942 173.857 180.169 175.154C201.073 178.085 220.747 186.59 240.117 194.995C265.72 206.095 292.557 218.194 308.898 240.828C313.706 247.537 317.567 255.391 317.51 263.694C317.4 272.569 312.442 281.257 304.774 285.853C295.781 291.247 286.389 289.117 276.806 286.97C262.922 283.913 249.286 279.987 235.829 275.427C229.217 273.181 224.165 268.087 218.427 264.185C212.393 260.088 206.112 256.331 199.652 252.942C188.067 246.862 175.908 242.055 163.654 237.505C153.402 233.71 144.818 226.402 138.811 216.986C134.998 210.99 132.87 203.675 134.252 196.693C136.074 187.536 143.742 180.291 152.496 176.995Z" fill="#FFEB8D"/>
<path d="M134.887 194.221C137.447 186.212 144.541 179.976 152.496 176.995C161.25 173.699 170.942 173.857 180.169 175.154C201.099 178.063 220.747 186.589 240.117 194.995C265.72 206.095 292.579 218.22 308.898 240.828C313.754 247.541 317.589 255.417 317.51 263.693C317.479 265.882 317.136 268.067 316.562 270.135C322.266 264.884 325.191 256.571 323.194 244.643C320.255 227.191 306.329 214.017 292.885 203.751C267.864 184.661 239.042 170.556 208.607 162.521C192.521 158.258 175.071 155.753 159.522 161.724C146.046 166.89 134.88 180.278 134.887 194.221ZM52.6473 227.432C55.1357 235.285 58.3973 242.845 62.1369 249.918C75.9051 275.936 97.585 294.683 118.9 314.265C142.925 336.349 169.87 355.73 200.074 368.416C240.204 385.302 286.869 389.666 327.489 373.655C357.144 361.948 382.647 338.436 395.388 309.078C398.838 301.075 401.102 292.607 402.25 283.967C378.992 311.915 353.02 337.938 319.203 349.855C280.66 363.425 237.249 356.122 200.286 338.841C163.323 321.561 131.578 295.11 100.264 268.962C84.1701 255.525 67.9721 241.909 52.669 227.458L52.6473 227.432Z" fill="#FFE245"/>
<path d="M134.887 194.221C137.446 186.212 144.541 179.976 152.496 176.995C161.25 173.699 170.942 173.857 180.169 175.154C201.099 178.063 220.746 186.589 240.116 194.995C265.72 206.095 292.579 218.22 308.897 240.828C313.754 247.541 317.589 255.417 317.509 263.693C317.479 265.882 317.135 268.067 316.562 270.135C322.266 264.884 325.191 256.57 323.194 244.643C320.255 227.191 306.329 214.017 292.885 203.751C267.864 184.661 239.042 170.556 208.607 162.521C192.521 158.258 175.071 155.753 159.522 161.723C146.046 166.89 134.88 180.278 134.887 194.221Z" fill="#FFE245"/>
<path d="M47.6377 199.129C48.0615 216.696 54.0023 234.51 62.1373 249.918C75.8795 275.958 97.6072 294.709 118.9 314.265C142.926 336.349 169.897 355.709 200.074 368.416C240.204 385.302 286.869 389.666 327.49 373.655C357.144 361.948 382.669 338.462 395.388 309.078C399.686 299.176 402.12 288.579 402.833 277.83C403.46 268.302 404.59 258.265 403.627 248.74C401.614 228.793 391.98 210.268 380.205 194.37C349.613 153.14 302.382 126.164 254.658 109.353C226.817 99.5491 197.477 92.9835 167.932 93.9607C138.387 94.9379 108.576 103.862 85.5277 122.365C62.4796 140.868 46.9285 169.617 47.6377 199.129ZM152.496 176.995C161.25 173.699 170.942 173.857 180.169 175.154C201.099 178.063 220.747 186.589 240.117 194.995C265.721 206.095 292.558 218.194 308.898 240.828C313.706 247.537 317.568 255.391 317.51 263.693C317.401 272.569 312.443 281.257 304.775 285.853C295.782 291.247 286.39 289.117 276.807 286.969C262.923 283.913 249.287 279.987 235.829 275.427C229.217 273.181 224.166 268.087 218.427 264.185C212.394 260.088 206.138 256.309 199.653 252.942C188.068 246.862 175.909 242.055 163.654 237.505C153.402 233.71 144.819 226.402 138.812 216.986C134.998 210.99 132.871 203.675 134.253 196.693C136.074 187.535 143.742 180.291 152.518 177.021L152.496 176.995Z" stroke="#2D2A26" stroke-width="0.95" stroke-miterlimit="10"/>
<path d="M343.543 238.591C345.633 239.715 347.67 241.147 350.085 241.337C351.758 239.101 351.189 236.353 350.077 234.016C348.609 233.212 347.041 232.447 345.325 232.247C344.139 234.165 343.343 236.286 343.543 238.591ZM346.424 234.464C347.371 234.908 348.318 235.353 349.265 235.798C349.356 236.119 349.56 236.787 349.699 237.113C349.386 237.639 349.047 238.187 348.708 238.735C347.575 238.225 346.532 237.507 345.602 236.606C345.885 235.885 346.141 235.185 346.424 234.464Z" fill="#2D2A26"/>
<path d="M337.608 245.05C339.155 244.994 340.701 244.938 342.244 244.93C342.687 244.56 343.086 244.138 343.508 243.741C343.478 241.957 343.3 240.207 342.974 238.493C342.027 238.048 341.084 237.556 340.142 237.063C337.062 238.621 335.619 242.033 337.582 245.072L337.608 245.05ZM339.351 240.196C340.341 240.428 339.872 242.144 339.142 242.489C338.225 242.239 338.69 240.571 339.351 240.196Z" fill="#2D2A26"/>
<path d="M346.681 229.791C348.093 227.243 345.895 224.93 345.048 222.591C339.736 219.305 339.491 228.337 342.701 230.378C344.053 230.353 345.382 230.037 346.681 229.791Z" fill="#2D2A26"/>
<path d="M327.874 232.391C327.544 236.287 332.609 239.383 335.137 235.682C335.138 234.887 335.09 234.088 335.068 233.268C335.967 234.503 336.914 235.742 337.866 236.934C340.815 237.074 341.784 233.837 342.123 231.435C340.725 229.602 338.449 228.678 336.224 228.241C336.02 228.632 335.616 229.367 335.39 229.732C332.862 227.607 328.922 229.618 327.827 232.387L327.874 232.391ZM333.096 231.119C333.539 230.219 336.02 230.486 334.812 231.583C334.365 232.001 332.818 232.057 333.096 231.119Z" fill="#2D2A26"/>
<path d="M332.932 223.399C338.384 223.038 340.648 215.099 336.426 212.005C335.978 212.688 335.579 213.375 335.131 214.058C334.475 214.12 333.845 214.161 333.193 214.175C331.169 216.838 331.381 220.589 332.932 223.399ZM334.601 215.913C335.404 216.875 336.03 217.942 336.655 219.008C336.121 219.587 335.608 220.192 335.026 220.767C332.572 219.948 333.684 217.518 334.575 215.935L334.601 215.913Z" fill="#2D2A26"/>
<path d="M237.124 147.439C239.214 148.562 241.225 150.016 243.64 150.206C245.339 147.948 244.77 145.201 243.659 142.863C242.19 142.059 240.622 141.295 238.928 141.121C237.72 143.013 236.947 145.16 237.124 147.439ZM240.005 143.311C240.952 143.756 241.899 144.201 242.82 144.667C242.911 144.988 243.141 145.635 243.254 145.982C242.941 146.508 242.602 147.056 242.264 147.604C241.104 147.116 240.087 146.376 239.158 145.475C239.44 144.754 239.697 144.054 239.979 143.333L240.005 143.311Z" fill="#2D2A26"/>
<path d="M231.163 153.919C232.736 153.841 234.257 153.807 235.803 153.751C236.246 153.381 236.646 152.959 237.067 152.563C237.011 150.8 236.859 149.029 236.534 147.314C235.587 146.869 234.644 146.377 233.701 145.884C230.621 147.442 229.179 150.854 231.142 153.893L231.163 153.919ZM232.932 149.043C233.923 149.275 233.453 150.991 232.723 151.336C231.807 151.086 232.272 149.418 232.932 149.043Z" fill="#2D2A26"/>
<path d="M221.429 141.26C221.077 145.13 226.19 148.23 228.719 144.529C228.719 143.734 228.671 142.935 228.649 142.115C229.522 143.372 230.469 144.611 231.447 145.781C234.37 145.943 235.365 142.684 235.7 140.33C234.328 138.475 232.025 137.573 229.801 137.136C229.597 137.527 229.193 138.262 228.993 138.605C226.439 136.502 222.524 138.491 221.403 141.282L221.429 141.26ZM226.651 139.988C227.094 139.088 229.575 139.355 228.367 140.452C227.92 140.87 226.373 140.926 226.651 139.988Z" fill="#5F5D59"/>
<path d="M224.523 136.645C229.979 136.237 232.265 128.324 228.017 125.251C227.569 125.934 227.17 126.621 226.722 127.304C226.066 127.367 225.436 127.407 224.759 127.444C222.76 130.084 222.972 133.836 224.497 136.667L224.523 136.645ZM226.192 129.16C226.996 130.122 227.621 131.188 228.246 132.255C227.712 132.834 227.199 133.438 226.643 133.991C224.189 133.172 225.301 130.742 226.192 129.16Z" fill="#2D2A26"/>
<path d="M347.388 197.418C348.422 196.643 349.408 195.863 350.355 194.984C350.316 193.03 350.834 189.464 347.936 189.545C343.388 188.974 343.17 196.66 347.388 197.418ZM346.937 192.322C348.062 192.132 348.583 194.081 347.623 194.574C346.55 194.72 345.977 192.815 346.937 192.322Z" fill="#2D2A26"/>
<path d="M338.279 192.977C338.561 194.905 340.898 194.1 342.236 194.218C344.226 191.938 345.074 188.979 346.234 186.288C347.507 184.739 348.78 183.19 349.158 181.153C349.44 180.961 350.005 180.577 350.288 180.386C349.806 177.742 347.547 174.509 344.623 176.466C343.924 178.595 343.506 180.798 343.111 183.026C337.919 182.905 337.254 189.155 338.253 192.999L338.279 192.977ZM343.449 185.921C343.089 186.179 342.372 186.645 341.989 186.876C342.298 188.782 342.145 190.718 340.985 192.35C338.735 190.345 339.996 182.582 343.401 185.917L343.449 185.921Z" fill="#2D2A26"/>
<path d="M320.16 220.296C319.704 224.782 327.753 225.253 327.65 220.837C327.055 218.112 327.463 214.945 325.144 212.91C321.225 213.359 321.777 217.621 320.16 220.296Z" fill="#2D2A26"/>
<path d="M384.295 207.109C386.037 211.26 393.357 207.837 391.129 204.004C389.296 201.916 388.123 198.923 385.152 198.227C381.911 200.493 384.435 203.991 384.295 207.109Z" fill="#2D2A26"/>
<path d="M198.8 106.489C198.344 110.975 206.393 111.446 206.29 107.03C205.695 104.305 206.104 101.138 203.784 99.1031C199.865 99.5515 200.417 103.814 198.8 106.489Z" fill="#2D2A26"/>
<path d="M305.481 179.412C305.429 179.721 305.399 180.055 305.416 180.394C306.915 182.188 309.63 183.319 310.159 185.701C308.726 185.309 307.249 185.131 305.733 185.117C305.506 188.396 301.896 192.339 304.003 195.126C304.294 194.309 304.533 193.535 304.824 192.718C306.162 195.22 304.676 198.581 302.812 200.535C302.903 201.651 303.02 202.744 303.163 203.817C302.221 203.854 301.252 203.913 300.283 203.971C298.115 207.681 299.748 213.821 304.739 213.756C305.174 213.217 305.608 212.677 306.021 212.112C306.29 209.944 305.943 207.674 306.378 205.545C308.572 204.463 310.514 202.973 310.918 200.384C311.079 200.736 311.396 201.486 311.556 201.837C310.118 204.672 309.679 207.908 310.213 211.037C310.873 211.192 311.534 211.347 312.172 211.475C312.472 211.357 313.05 211.095 313.328 210.951C314.162 211.049 314.974 211.121 315.787 211.193C316.443 208.481 317.799 204.965 315.145 202.901C316.079 201.635 316.739 200.2 317.256 198.753C318.042 200.701 318.994 202.952 320.988 203.802C323.611 203.288 325.089 201.083 326.136 198.839C328.873 198.407 331.492 201.913 334.329 199.323C334.655 197.329 335.363 195.104 333.756 193.445C333.813 193.088 333.878 192.372 333.908 192.037C333.374 191.292 332.84 190.546 332.28 189.823C329.938 191.205 327.305 191.815 324.595 191.696C324.282 191.957 323.682 192.458 323.369 192.72C321.827 191.933 320.146 191.881 318.469 192.046C318.004 192.655 317.487 193.307 317.001 193.891C316.319 193.445 315.658 193.025 314.929 192.576C313.695 193.43 312.444 194.21 311.253 195.116C310.636 196.338 310.414 197.715 310.24 199.096C309.71 199.098 309.18 199.099 308.624 199.122C308.342 197.989 308.281 196.804 308.885 195.726C309.646 195.576 310.341 195.349 310.997 195.021C311.775 193.356 311.436 191.521 311.332 189.754C312.787 190.701 314.442 191.04 316.05 190.315C316.801 190.791 317.553 191.266 318.282 191.716C321.415 191.704 323.409 188.846 323.388 185.907C322.814 184.002 321.303 182.616 319.878 181.335C319.539 180.028 319.127 178.74 318.64 177.469C316.616 177.483 314.34 176.824 312.68 178.387C312.363 177.372 311.976 176.326 311.612 175.307C310.925 175.174 310.217 175.015 309.483 174.878L309.431 174.921C307.758 176.098 305.834 177.397 305.451 179.482L305.481 179.412ZM331.38 192.561C333.856 193.405 332.913 196.886 331.962 198.608C329.855 197.145 330.763 194.577 331.38 192.561ZM324.659 194.423C325.042 194.192 325.832 193.708 326.215 193.477C326.584 194.713 326.953 195.95 327.222 197.226C325.445 197.43 324.968 195.798 324.659 194.423ZM319.186 193.698C319.907 193.714 320.628 193.729 321.354 193.697C319.112 195.04 320.371 197.608 319.872 199.658C319.007 197.776 318.76 195.732 319.186 193.698ZM313.117 196.605C314.945 197.417 314.645 199.124 313.885 200.598C312.608 199.546 312.504 198.044 313.117 196.605ZM318.309 182.689L316.606 183.67C315.325 182.401 314.634 180.727 314.339 178.943C315.538 179.001 316.733 179.106 317.919 179.307C318.058 180.427 318.171 181.569 318.309 182.689ZM304.945 200.916C306.044 201.013 307.147 201.062 308.229 201.086C307.816 201.916 307.36 202.694 306.925 203.499C306.209 203.171 305.466 202.864 304.749 202.536C304.845 202.015 304.892 201.489 304.966 200.942L304.945 200.916ZM312.544 185.695C313.448 186.618 315.142 187.056 315.429 188.406C313.752 189.63 311.888 187.347 312.544 185.695ZM312.645 181.153C313.144 182.016 313.622 182.853 314 183.729C313.557 183.569 312.727 183.159 312.284 182.999C312.388 182.382 312.514 181.792 312.645 181.153Z" fill="#2D2A26"/>
<path d="M353.398 180.082C354.896 181.876 357.611 183.007 358.119 185.364C356.66 184.994 355.209 184.794 353.693 184.78C353.514 188.063 349.856 192.002 351.963 194.789C352.228 193.993 352.493 193.198 352.758 192.403C354.096 194.905 352.61 198.265 350.724 200.193C350.815 201.309 350.954 202.429 351.049 203.497C350.107 203.534 349.138 203.593 348.195 203.63C346.027 207.339 347.638 213.453 352.63 213.389C353.064 212.849 353.477 212.284 353.911 211.744C354.181 209.577 353.808 207.328 354.268 205.178C356.462 204.095 358.404 202.606 358.813 199.969C358.948 200.342 359.291 201.071 359.451 201.422C358.013 204.257 357.574 207.493 358.108 210.622C358.768 210.777 359.429 210.931 360.067 211.06C360.345 210.916 360.949 210.632 361.249 210.514C362.083 210.612 362.917 210.71 363.729 210.782C364.386 208.07 365.737 204.602 363.061 202.511C364.017 201.272 364.678 199.837 365.199 198.342C365.985 200.29 366.936 202.541 368.952 203.417C371.55 202.924 373.031 200.671 374.122 198.48C376.885 198.026 379.478 201.554 382.315 198.963C382.641 196.97 383.35 194.745 381.742 193.086C381.799 192.729 381.864 192.013 381.895 191.678C381.382 190.959 380.822 190.235 380.266 189.464C377.946 190.872 375.265 191.478 372.581 191.337C372.268 191.598 371.668 192.099 371.382 192.339C369.839 191.552 368.132 191.522 366.455 191.687C366.012 192.322 365.499 192.927 365.009 193.557C364.327 193.112 363.666 192.692 362.936 192.243C361.75 193.101 360.477 193.855 359.287 194.762C358.644 196.005 358.422 197.382 358.274 198.741C357.744 198.743 357.214 198.744 356.663 198.719C356.38 197.587 356.32 196.402 356.924 195.323C357.658 195.195 358.353 194.968 359.035 194.619C359.813 192.954 359.474 191.118 359.37 189.351C360.825 190.298 362.459 190.611 364.114 189.891C364.865 190.366 365.621 190.794 366.347 191.292C369.527 191.284 371.473 188.422 371.452 185.482C370.905 183.556 369.389 182.218 367.968 180.888C367.608 179.556 367.191 178.315 366.705 177.044C364.706 177.036 362.43 176.378 360.792 177.967C360.453 176.925 360.088 175.906 359.724 174.886C359.037 174.754 358.329 174.595 357.643 174.462C355.71 175.856 353.407 177.338 353.546 180.047L353.398 180.082ZM379.362 192.249C381.864 193.072 380.917 196.6 379.965 198.322C377.837 196.834 378.745 194.265 379.362 192.249ZM372.641 194.111C373.05 193.859 373.814 193.396 374.197 193.165C374.587 194.428 374.909 195.66 375.204 196.914C373.449 197.145 372.971 195.513 372.641 194.111ZM367.168 193.387C367.915 193.381 368.614 193.37 369.335 193.386C367.12 194.707 368.379 197.275 367.853 199.347C367.037 197.469 366.72 195.394 367.168 193.387ZM361.098 196.294C362.927 197.106 362.627 198.813 361.889 200.313C360.612 199.261 360.507 197.759 361.098 196.294ZM366.291 182.378C365.731 182.713 365.17 183.049 364.588 183.359C363.307 182.09 362.642 180.394 362.369 178.636C363.568 178.694 364.763 178.799 365.922 179.022C366.061 180.142 366.196 181.31 366.287 182.425L366.291 182.378ZM352.926 200.605C354.026 200.702 355.081 200.747 356.163 200.77C355.75 201.601 355.316 202.405 354.859 203.183C354.164 202.881 353.448 202.553 352.709 202.199C352.757 201.673 352.853 201.152 352.926 200.605ZM360.526 185.384C361.456 186.285 363.102 186.719 363.41 188.095C361.712 189.293 359.896 187.014 360.526 185.384ZM360.653 180.82C361.152 181.683 361.604 182.541 362.003 183.443C361.565 183.236 360.705 182.895 360.288 182.714C360.392 182.097 360.496 181.48 360.627 180.842L360.653 180.82Z" fill="#2D2A26"/>
<path d="M330.529 188.946C331.659 188.708 332.788 188.471 333.896 188.208C334.869 186.247 335.295 183.949 334.227 181.928C330.1 179.902 324.295 187.311 330.577 188.95L330.529 188.946ZM332.176 183.553C332.493 184.303 332.806 185.102 333.075 185.848C330.277 188.008 329.266 184.837 332.176 183.553Z" fill="#2D2A26"/>
<path d="M337.204 168.538C340.631 170.31 345.31 167.858 345.289 163.859C346.036 161.734 343.574 158.097 341.94 161.227C341.154 161.134 340.372 160.992 339.564 160.873C337.548 162.91 336.592 165.739 337.204 168.538Z" fill="#2D2A26"/>
<path d="M310.126 213.847C310.178 216.187 308.231 219.314 310.681 220.975C312.05 222.083 313.831 221.302 315.251 220.777C317.033 217.876 313.593 211.216 310.126 213.847ZM312.029 214.906C312.533 215.456 313.036 216.006 313.519 216.53C313.288 217.738 314.018 220.042 312.015 219.817C310.799 218.361 311.477 216.47 312.055 214.884L312.029 214.906Z" fill="#2D2A26"/>
<path d="M327.859 170.915C326.612 174.296 328.167 178.383 331.864 179.311C334.466 177.711 335.34 173.671 333.29 171.323C331.682 170.193 329.649 170.568 327.859 170.915ZM330.183 171.843C330.505 172.016 331.148 172.361 331.469 172.534C330.731 173.24 329.975 173.871 329.149 174.472C329.497 173.564 329.818 172.677 330.188 171.795L330.183 171.843Z" fill="#2D2A26"/>
<path d="M327.289 183.795C331.85 181.309 327.068 175.372 323.219 176.91C320.152 179.384 323.335 185.685 327.289 183.795Z" fill="#2D2A26"/>
<path d="M324.855 239.107C324.442 241.527 325.149 244.07 326.531 246.094C329.033 247.712 331.101 244.836 332.643 243.239C332.526 241.88 332.209 240.6 331.345 239.512C331.088 239.947 330.597 240.843 330.363 241.304C329.429 239.391 326.675 236.571 324.876 239.133L324.855 239.107ZM327.209 240.23C328.529 241.069 329.476 242.309 330.354 243.518C329.485 244.067 328.533 244.465 327.517 244.52C327.309 243.105 327.126 241.668 327.235 240.209L327.209 240.23Z" fill="#2D2A26"/>
<path d="M330.636 169.788C331.622 169.803 332.56 169.813 333.477 169.798C334.168 168.559 334.837 167.294 335.506 166.028C334.724 164.298 333.086 163.503 331.34 163.108C327.617 163.79 328.724 167.765 330.609 169.81L330.636 169.788ZM330.614 164.994C331.227 165.145 332.378 165.463 332.991 165.614C332.956 166.525 332.925 167.39 332.89 168.302C330.992 168.519 330.727 166.401 330.614 164.994Z" fill="#2D2A26"/>
<path d="M333.994 163.583C337.127 162.247 339.082 159.554 339.673 156.235C337.944 153.795 334.612 153.091 332.262 155.099C333.091 157.893 330.98 161.776 333.994 163.583Z" fill="#2D2A26"/>
<path d="M317.827 145.131C320.96 143.794 322.915 141.101 323.506 137.782C321.777 135.342 318.445 134.638 316.095 136.646C316.924 139.44 314.813 143.323 317.827 145.131Z" fill="#2D2A26"/>
<path d="M318.297 175.681C320.73 177.268 324.175 175.935 324.358 172.869C323.389 170.544 322.455 168.102 319.814 167.218C316.725 168.872 316.347 173.028 318.297 175.681ZM318.876 169.856C319.388 169.781 320.37 169.579 320.861 169.478C321.582 170.288 322.281 171.072 323.029 171.861C322.642 173.464 321.516 174.448 319.966 174.817C318.867 173.395 317.968 171.63 318.923 169.861L318.876 169.856Z" fill="#2D2A26"/>
<path d="M322.143 167.039C324.758 166.09 326.657 164.018 327.821 161.545C326.783 159.984 326.197 158.223 325.589 156.435C326.814 155.147 328.283 153.832 328.101 151.865C326.228 150.472 324.791 147.48 322.036 148.633C320.22 151.651 320.676 155.905 323.825 157.821C322.678 159.308 322.061 161.06 321.353 162.755C321.683 164.157 321.913 165.598 322.147 166.991L322.143 167.039Z" fill="#2D2A26"/>
<path d="M283.81 202.371C283.875 203.244 284.14 204.038 284.609 204.705C285.278 205.559 286.312 206.108 287.819 205.952C288.306 204.839 288.84 203.731 289.401 202.601C289.509 206.704 294.3 210.956 297.65 206.965C297.659 206.075 297.646 205.159 297.633 204.243C298.993 203.593 300.331 202.916 301.669 202.24C301.73 201.571 301.791 200.902 301.851 200.233C300.952 200.322 300.053 200.411 299.175 200.527C298.976 199.016 298.976 197.427 299.893 196.087C300.44 197.219 300.74 198.425 300.865 199.689C302.56 198.538 304.858 195.514 301.439 195.236C300.844 194.63 300.267 193.833 299.593 193.291C299.076 192.885 298.52 192.643 297.795 192.675C296.848 194.084 297.065 195.669 297.212 197.223C297.308 198.291 297.403 199.359 297.09 200.415C295.231 200.732 293.419 201.053 291.577 201.444C290.852 199.623 290.153 197.779 289.871 195.852C286.135 193.764 283.471 198.681 283.836 202.35L283.81 202.371Z" fill="#2D2A26"/>
<path d="M275.16 131.512C275.647 130.399 276.181 129.291 276.742 128.16C276.85 132.263 281.641 136.515 285.013 132.551C285 131.635 285.008 130.745 284.974 129.803C286.334 129.152 287.693 128.502 288.984 127.821C289.045 127.152 289.105 126.484 289.166 125.815C288.267 125.904 287.416 125.997 286.49 126.108C286.269 124.571 286.291 123.008 287.208 121.669C287.755 122.801 288.028 124.029 288.159 125.244C289.853 124.094 292.173 121.096 288.733 120.792C287.72 119.739 286.808 118.118 285.088 118.231C283.528 120.549 285.144 123.437 284.383 125.97C282.524 126.287 280.665 126.605 278.87 127C278.145 125.178 277.446 123.334 277.164 121.407C271.273 118.118 267.996 132.155 275.138 131.486L275.16 131.512Z" fill="#2D2A26"/>
<path d="M235.846 116.239C236.333 115.127 236.867 114.018 237.428 112.888C237.536 116.991 242.327 121.243 245.677 117.252C245.686 116.362 245.673 115.446 245.66 114.53C247.02 113.88 248.358 113.203 249.696 112.527C249.757 111.858 249.818 111.189 249.879 110.52C248.979 110.609 248.102 110.725 247.203 110.814C247.003 109.303 247.003 107.714 247.92 106.374C248.467 107.506 248.767 108.712 248.893 109.976C250.587 108.825 252.885 105.802 249.467 105.524C248.428 104.493 247.495 102.845 245.822 102.962C244.262 105.28 245.878 108.168 245.091 110.723C243.232 111.041 241.42 111.362 239.578 111.753C238.853 109.931 238.154 108.088 237.872 106.161C232.003 102.897 228.704 116.909 235.846 116.239Z" fill="#2D2A26"/>
<path d="M326.616 142.777C325.751 144.338 325.76 146.096 325.725 147.803C327.18 149.545 329.408 150.994 331.667 149.725C332.284 147.973 332.602 146.075 332.506 144.212C332.506 143.683 332.433 143.17 332.337 142.632C331.955 142.863 331.546 143.116 331.164 143.347C330.808 143.557 330.499 143.77 330.143 143.979C328.979 143.539 327.81 143.147 326.616 142.777ZM327.788 145.505C328.67 145.872 329.578 146.217 330.508 146.588C329.995 147.193 329.461 147.772 328.904 148.325C328.531 147.401 328.157 146.477 327.788 145.505Z" fill="#2D2A26"/>
<path d="M311.734 171.32C317.607 172.152 318.446 163.462 313.286 161.946C308.85 162.517 308.476 169.01 311.734 171.32Z" fill="#2D2A26"/>
<path d="M316.697 152.519C312.774 154.605 315.153 162.858 319.723 161.865C321.327 160.128 322.057 157.929 321.753 155.711C321.688 155.103 321.531 154.439 321.297 153.841C322.509 152.696 323.656 151.473 324.325 149.943C324.056 149.726 323.561 149.345 323.291 149.129C323.265 148.886 323.218 148.617 323.14 148.417C322.644 146.712 320.894 146.1 319.152 145.922C317.818 147.875 316.345 150.032 316.671 152.541L316.697 152.519ZM316.279 155.516C316.644 155.212 317.009 154.907 317.396 154.628C317.822 154.714 318.651 154.859 319.077 154.945C319.464 155.726 319.802 156.502 320.189 157.283C318.968 157.199 317.769 157.141 316.54 157.153C316.444 156.615 316.349 156.076 316.253 155.538L316.279 155.516Z" fill="#2D2A26"/>
<path d="M354.199 160.432C353.049 156.141 344.482 156.588 344.394 161.251C345.71 163.198 347.696 164.409 349.915 164.629C350.511 164.705 351.21 164.695 351.844 164.607C352.678 166.029 353.586 167.433 354.915 168.442C355.176 168.224 355.671 167.81 355.932 167.592C356.192 167.64 356.457 167.639 356.653 167.608C358.421 167.499 359.429 165.951 360.011 164.317C358.413 162.562 356.636 160.648 354.13 160.402L354.199 160.432ZM351.358 159.363C351.584 159.792 351.762 160.217 351.94 160.642C351.784 161.038 351.423 161.824 351.219 162.216C350.359 162.405 349.546 162.598 348.686 162.786C349.034 161.613 349.382 160.44 349.681 159.263C350.233 159.287 350.785 159.312 351.31 159.358L351.358 159.363Z" fill="#2D2A26"/>
<path d="M304.755 186.331C305.82 184.162 306.194 181.642 304.973 179.44C306.924 179.443 308.37 178.102 309.643 176.818C309.565 176.089 309.466 175.334 309.366 174.578C307.463 173.254 306.056 170.987 303.475 171.024C302.424 173.315 301.507 175.714 301.898 178.301C298.505 178.796 297.766 182.15 298.96 184.904C300.619 186.255 302.626 186.697 304.707 186.327L304.755 186.331Z" fill="#474340"/>
<path d="M296.76 197.424C302.108 195.56 299.351 183.783 293.651 186.337C293.399 187.784 292.864 189.157 292.543 190.574C292.734 193.504 295.457 195.069 296.782 197.45L296.76 197.424Z" fill="#2D2A26"/>
<path d="M296.694 132.813C296.585 134.007 296.403 135.219 296.15 136.401C298.37 140.064 305.169 136.812 303.341 132.557C301.334 131.585 298.206 130.49 296.694 132.813ZM301.62 135.054C300.434 136.442 297.606 137.613 297.971 134.659C297.437 131.265 301.651 132.336 301.62 135.054Z" fill="#2D2A26"/>
<path d="M303.473 156.504C305.505 161.427 313.772 158.449 312.696 153.346C311.731 152.032 310.772 150.671 309.812 149.31C312.753 147.162 316.337 143.241 313.488 139.618C311.537 139.085 309.491 139.337 307.506 139.716C305.955 142.998 308.122 146.44 307.883 149.862C304.108 148.999 301.583 153.447 303.473 156.504ZM305.067 152.744C306.84 151.263 309.068 152.447 310.25 154.021C309.919 156.592 307.469 157.315 305.28 156.495C305.15 155.28 304.689 153.987 305.067 152.744Z" fill="#2D2A26"/>
<path d="M280.893 141.024C283.3 140.779 284.334 137.62 284.36 135.479C282.836 132.648 280.195 129.38 276.637 129.572C274.325 133.003 276.61 136.745 277.005 140.344C279.19 141.211 280.098 138.378 282.083 138.794C281.792 139.346 281.206 140.498 280.915 141.05L280.893 141.024Z" fill="#2D2A26"/>
<path d="M278.11 203.601C278.045 205.378 278.592 207.039 279.213 208.683C280.76 208.627 282.302 208.354 283.814 207.886C284.192 207.173 284.57 206.46 284.9 205.742C284.809 205.421 284.696 205.074 284.605 204.753C284.388 203.964 284.175 203.126 283.806 202.419C283.497 201.838 283.085 201.344 282.494 200.955C280.639 200.959 279.457 202.565 278.132 203.627L278.11 203.601ZM280.951 203.347C282.841 203.755 282.784 205.435 281.659 206.684C281.303 206.629 280.564 206.539 280.186 206.458C280.378 205.415 280.665 204.381 280.951 203.347Z" fill="#2D2A26"/>
<path d="M291.33 162.631C291.103 165.115 290.738 167.804 292.554 169.818C294.27 171.607 292.488 173.978 291.467 175.67C291.767 176.611 292.045 177.527 292.323 178.442C293.378 179.017 294.434 179.592 295.516 180.145C298.174 179.778 300.116 178.023 300.06 175.201C298.379 173.56 297.828 171.151 296.125 169.484C296.633 168.397 297.077 167.232 297.42 166.107C296.039 164.612 294.683 163.096 293.354 161.557C292.672 161.907 292.038 162.26 291.356 162.609L291.33 162.631ZM294.023 165.854C295.217 165.695 295.117 167.589 294.157 167.817C292.984 168.002 293.041 166.057 294.023 165.854Z" fill="#2D2A26"/>
<path d="M287.327 179.614C287.943 183.16 287.022 188.521 291.827 189.186C291.558 186.056 295.12 184.492 295.116 181.362C292.683 180.039 290.212 178.617 287.327 179.614ZM290.442 180.323C290.876 180.578 291.749 181.04 292.162 181.269C293.152 183.355 291.253 187.281 288.76 185.303C288.995 183.518 289.555 181.858 290.442 180.323Z" fill="#2D2A26"/>
<path d="M287.921 193.994C288.759 190.6 286.01 185.349 281.905 186.792C280.979 187.963 280.931 189.548 280.54 190.934C280.518 194.351 285.496 197.343 287.873 193.99L287.921 193.994Z" fill="#2D2A26"/>
<path d="M389.357 236.692C387.684 240.517 386.446 245.127 388.2 249.135C390.068 251.106 392.718 249.775 394.586 248.568C395.19 246.43 395.916 244.279 395.665 242.017C393.619 240.151 392.346 237.197 389.357 236.692Z" fill="#474340"/>
<path d="M138.362 272.979C136.415 277.43 134.933 282.861 137.014 287.524C139.212 289.837 142.292 288.279 144.49 286.884C145.246 284.399 146.055 281.869 145.716 279.239C143.336 277.078 141.894 273.604 138.384 273.005L138.362 272.979Z" fill="#5F5D59"/>
<path d="M296.153 149.861C297.63 152.954 301.192 151.125 303.095 149.536C303.847 147.363 303.535 144.975 301.271 143.909C301.076 142.88 300.907 141.83 300.664 140.797C294.986 138.345 293.512 146.329 296.105 149.857L296.153 149.861ZM298.47 142.144C299.972 143.89 300.989 145.954 301.857 148.054C301.223 148.672 300.589 149.29 299.933 149.882C296.605 149.396 295.906 143.844 298.443 142.166L298.47 142.144Z" fill="#2D2A26"/>
<path d="M249.651 121.745C251.272 122.731 252.723 123.991 254.512 124.703C254.621 127.482 255.884 130.001 258.552 131.128C257.718 131.295 256.927 131.514 256.097 131.634C254.277 134.964 255.597 139.776 258.69 141.783C264.098 140.311 261.162 134.2 259.799 130.66C261.024 129.372 262.227 128.058 263.07 126.471C262.679 125.473 262.315 124.453 261.898 123.478C263.627 124.064 265.351 123.638 266.967 123.083C267.502 121.974 267.828 120.775 268.015 119.515C266.334 117.609 264.066 116.06 261.377 116.762C260.56 118.857 259.965 121.429 261.859 123.113C259.934 123.087 257.975 123.179 256.033 123.345C256.215 122.927 256.559 122.067 256.715 121.671C256.472 121.433 255.938 120.952 255.694 120.714C257.202 117.645 252.719 114.504 250.265 116.863C248.522 118.01 248.957 120.119 249.552 121.785L249.651 121.745ZM257.752 133.562C259.689 135.033 260.085 137.307 259.185 139.516C257.713 137.965 256.67 135.657 257.752 133.562Z" fill="#2D2A26"/>
<path d="M373.403 223.315C375.023 224.301 376.474 225.561 378.263 226.273C378.372 229.051 379.636 231.571 382.303 232.698C381.491 232.891 380.678 233.084 379.844 233.251C378.028 236.534 379.322 241.368 382.436 243.401C387.845 241.928 384.909 235.817 383.545 232.278C384.771 230.989 385.974 229.675 386.817 228.088C386.426 227.09 386.035 226.093 385.644 225.095C387.373 225.681 389.098 225.255 390.714 224.7C391.249 223.591 391.575 222.392 391.762 221.132C390.054 219.248 387.813 217.677 385.124 218.379C384.307 220.474 383.711 223.046 385.605 224.73C383.655 224.726 381.722 224.796 379.78 224.962C379.962 224.545 380.306 223.684 380.484 223.314C380.219 223.05 379.706 222.596 379.463 222.357C380.971 219.288 376.488 216.147 374.033 218.506C372.291 219.653 372.725 221.762 373.32 223.428L373.403 223.315ZM381.477 235.153C383.393 236.598 383.81 238.899 382.936 241.085C381.464 239.534 380.421 237.227 381.477 235.153Z" fill="#2D2A26"/>
<path d="M110.711 120.882C105.411 120.366 104.185 129.07 109.211 130.478C110.823 130.235 112.456 130.018 114.09 129.801C114.633 133.365 116.439 138.388 120.996 137.539C122.361 136.046 123.117 134.09 123.699 132.191C121.553 129.305 117.478 129.619 114.559 127.82C117.066 124.887 114.326 120.599 110.711 120.882ZM113.291 124.024C113.764 126.233 111.705 127.688 109.75 127.997C107.596 126.53 108.113 124.024 109.868 122.469C111.032 122.909 112.362 123.123 113.291 124.024Z" fill="#5F5D59"/>
<path d="M134.769 157.947C137.176 157.702 138.21 154.543 138.237 152.402C136.712 149.571 134.071 146.303 130.513 146.494C128.202 149.926 130.486 153.668 130.881 157.266C133.066 158.134 133.975 155.3 135.96 155.717C135.669 156.269 135.082 157.421 134.791 157.973L134.769 157.947Z" fill="#2D2A26"/>
<path d="M125.565 108.782C127.972 108.538 129.006 105.378 129.033 103.238C127.508 100.406 124.867 97.1386 121.309 97.3299C118.998 100.762 121.282 104.503 121.677 108.102C123.862 108.969 124.771 106.136 126.756 106.552C126.465 107.104 125.878 108.256 125.587 108.808L125.565 108.782Z" fill="#2D2A26"/>
<path d="M181.672 135.893C184.079 135.648 185.113 132.489 185.139 130.348C183.615 127.517 180.974 124.249 177.416 124.44C175.105 127.872 177.389 131.614 177.784 135.212C179.969 136.08 180.877 133.246 182.863 133.663C182.572 134.215 181.985 135.367 181.694 135.919L181.672 135.893Z" fill="#2D2A26"/>
<path d="M175.777 93.763C175.156 96.0919 177.762 98.1523 179.713 98.9507C182.906 98.5345 186.907 97.1784 187.989 93.7584C185.622 90.3949 181.286 91.1917 177.776 90.3277C176.199 92.0425 178.51 93.9081 177.437 95.6433C177.024 95.1494 176.168 94.231 175.756 93.737L175.777 93.763Z" fill="#2D2A26"/>
<path d="M148.018 171.157C149.468 174.271 153.057 172.421 154.96 170.832C155.712 168.659 155.399 166.271 153.136 165.205C152.941 164.176 152.771 163.126 152.554 162.071C146.898 159.645 145.403 167.603 148.018 171.157ZM150.334 163.44C151.837 165.186 152.879 167.229 153.722 169.35C153.088 169.968 152.453 170.586 151.823 171.157C148.474 170.644 147.797 165.118 150.334 163.44Z" fill="#5F5D59"/>
<path d="M136.717 143.166C138.337 144.152 139.788 145.412 141.578 146.124C141.686 148.902 142.95 151.422 145.617 152.549C144.831 152.72 143.993 152.935 143.185 153.08C141.368 156.363 142.662 161.197 145.803 163.208C151.233 161.762 148.276 155.625 146.912 152.085C148.159 150.823 149.341 149.482 150.184 147.895C149.793 146.898 149.428 145.878 149.011 144.902C150.74 145.489 152.465 145.063 154.129 144.512C154.641 143.377 154.993 142.156 155.176 140.944C153.473 139.012 151.206 137.463 148.564 138.169C147.747 140.264 147.152 142.836 149.046 144.52C147.095 144.516 145.162 144.586 143.22 144.752C143.403 144.335 143.746 143.474 143.924 143.104C143.659 142.84 143.147 142.386 142.925 142.173C144.433 139.104 139.976 135.941 137.495 138.322C135.775 139.495 136.209 141.604 136.782 143.244L136.717 143.166ZM144.792 155.004C146.729 156.476 147.124 158.75 146.251 160.936C144.778 159.385 143.736 157.078 144.792 155.004Z" fill="#2D2A26"/>
<path d="M277.588 175.744C276.601 178.377 274.663 180.879 275.527 183.821C279.732 186.046 283.916 182.419 282.831 177.941C281.137 176.972 279.795 174.253 277.614 175.722L277.588 175.744ZM278.925 177.186C279.859 177.774 280.776 178.289 281.74 178.807C281.909 180.917 280.723 182.57 278.716 183.188C276.158 181.661 277.626 179.022 278.904 177.16L278.925 177.186Z" fill="#2D2A26"/>
<path d="M274.536 195.243C274.688 194.366 274.866 193.466 275.018 192.589C274.228 190.689 274.606 188.652 274.376 186.681C273.012 185.26 271.088 185.499 269.641 186.575C269.936 189.154 267.468 191.392 268.206 193.865C270.009 195.228 272.394 194.958 274.536 195.243Z" fill="#2D2A26"/>
<path d="M259.727 115.051C259.879 114.173 260.057 113.274 260.209 112.396C259.419 110.496 259.797 108.459 259.567 106.488C258.203 105.067 256.278 105.307 254.832 106.383C255.127 108.961 252.659 111.199 253.397 113.673C255.2 115.036 257.585 114.765 259.727 115.051Z" fill="#2D2A26"/>
<path d="M275.186 173.292C276.493 175.069 278.383 173.623 279.908 173.011C282.567 170.26 280.96 166.482 277.906 164.84C274.717 166.268 272.636 170.346 275.164 173.266L275.186 173.292ZM276.468 168.734C277.11 169.344 277.784 170.945 277.227 171.763C275.985 171.653 275.699 169.509 276.468 168.734Z" fill="#2D2A26"/>
<path d="M280.727 147.343C281.097 148.844 280.988 150.833 282.599 151.65C284.915 152.408 287.626 151.203 288.577 148.951C287.948 146.608 286.462 143.346 283.543 143.666C282.344 144.668 281.657 146.124 280.749 147.368L280.727 147.343ZM282.83 146.999C283.265 146.724 284.129 146.222 284.564 145.948C285.432 146.988 286.249 148.071 287.065 149.155C285.271 151.669 282.07 149.797 282.856 146.977L282.83 146.999Z" fill="#2D2A26"/>
<path d="M167.832 326.27C167.388 327.17 166.923 328.044 166.437 328.892C167.735 332.353 167.956 336.274 170.08 339.399C172.209 338.239 174.273 337 176.232 335.584C176.393 332.757 175.838 329.867 173.792 327.735C173.153 327.872 172.467 328.004 171.828 328.14C170.573 327.379 169.252 326.805 167.858 326.248L167.832 326.27ZM168.817 328.933C172.006 329.624 172.388 333.366 170.337 335.521C169.369 333.461 168.948 331.208 168.817 328.933Z" fill="#5F5D59"/>
<path d="M176.523 109.649C176.892 111.15 176.783 113.139 178.394 113.956C180.71 114.714 183.421 113.509 184.372 111.258C183.721 108.888 182.257 105.653 179.316 105.947C178.117 106.949 177.431 108.405 176.523 109.649ZM178.625 109.305C179.081 109.056 179.924 108.529 180.38 108.28C181.249 109.32 182.066 110.404 182.835 111.483C181.062 114.023 177.839 112.125 178.625 109.305Z" fill="#2D2A26"/>
<path d="M139.322 310.314C138.466 312.839 138.053 315.524 138.657 318.154C138.996 318.4 139.652 318.867 140.012 319.14C141.702 319.097 143.396 319.271 144.943 320.009C145.555 323.868 148.769 328.245 153.031 325.612C153.37 324.005 153.566 322.384 153.788 320.743C154.252 320.663 155.204 320.531 155.669 320.451C156.403 319.264 157.363 318.241 158.54 317.478C158.375 319.824 157.606 322.453 159.226 324.498C161.398 324.184 163.601 324.066 165.703 323.457C166.277 319.005 170.977 325.055 173.857 323.311C174.848 324.867 175.921 326.31 177.067 327.736C179.392 327.074 181.451 325.619 181.308 322.958C183.315 321.281 181.156 319.332 180.474 317.562C178.971 317.405 177.581 317.861 176.369 318.741C175.209 317.193 174.002 315.642 172.612 314.243C172.329 314.7 171.717 315.609 171.434 316.065C171.195 315.779 170.796 315.142 170.583 314.834C169.28 314.599 167.998 314.389 166.647 314.149C165.296 316.029 166.012 318.211 166.547 320.281C165.904 320.2 165.261 320.119 164.592 320.06C164.661 317.971 164.093 316.019 162.459 314.646C164.093 314.164 165.327 313.045 165.057 311.24C165.483 311.061 166.361 310.681 166.765 310.476C166.209 309.174 165.631 307.847 165.227 306.463C164.663 306.052 164.102 305.593 163.494 305.13C163.086 301.675 161.931 297.961 158.321 296.606C157.279 296.948 156.188 297.285 155.124 297.6C153.273 300.206 153.65 303.466 155.123 306.076C156.204 306.629 157.286 307.182 158.368 307.735C158.359 308.89 158.35 310.045 158.298 311.148C156.929 311.1 155.535 311.073 154.136 311.093C153.719 308.263 152.703 305.14 149.419 304.705C147.968 305.829 146.161 306.103 144.388 306.259C144.071 310.541 147.072 313.816 150.009 316.484C148.566 316.982 147.128 317.433 145.708 317.958C146.182 314.075 143.41 310.387 139.344 310.34L139.322 310.314ZM152.073 311.537C151.447 312.06 150.847 312.561 150.217 313.131C150.022 312.897 149.509 312.442 149.266 312.204C150.061 311.408 150.809 310.607 151.56 309.758C151.69 310.179 151.947 311.069 152.051 311.511L152.073 311.537ZM156.787 305.26C156.444 303.736 156.027 302.231 155.61 300.725C156.149 300.098 156.666 299.446 157.187 298.745C157.274 299.644 157.361 300.543 157.426 301.415C158.182 301.314 158.89 301.208 159.624 301.08C161.531 303.68 159.845 306.06 156.765 305.234L156.787 305.26ZM180.031 321.641C179.557 322.875 179.057 324.131 178.514 325.335C175.243 323.963 176.638 318.957 180.031 321.641ZM167.125 317.37C169.006 314.96 172.112 318.413 174.262 319.132C172.776 323.817 167.42 321.273 167.125 317.37ZM161.49 317.619C161.659 318.934 163.54 322.086 160.864 321.585C161.081 320.255 161.273 318.948 161.49 317.619ZM155.63 315.849C155.217 315.62 154.735 315.36 154.275 315.127C154.336 314.723 154.431 313.937 154.492 313.533C156.395 314.062 158.345 314.066 160.244 313.584C159.792 314.314 159.34 315.045 158.866 315.749C157.802 315.535 156.69 315.581 155.63 315.849ZM147.623 321.257C148.327 320.14 149.066 318.905 150.338 318.415C150.96 320.059 151.559 321.677 151.984 323.352C151.011 323.459 149.99 323.561 148.969 323.664C148.513 322.853 148.079 322.068 147.597 321.279L147.623 321.257ZM141.529 314.916C142.806 314.643 143.384 316.765 142.163 317.211C140.959 317.466 140.499 315.379 141.529 314.916Z" fill="#2D2A26"/>
<path d="M180.527 310.897C182.291 313.485 185.984 311.018 186.905 308.836C186.77 306.874 186.219 304.995 185.841 303.059C184.99 302.888 184.138 302.716 183.265 302.519C182.366 303.137 181.466 303.756 180.567 304.375C180.467 306.533 179.902 308.771 180.527 310.897Z" fill="#2D2A26"/>
<path d="M122.738 255.706C122.451 258.594 122.042 261.76 124.166 264.091C126.191 266.196 124.083 268.972 122.893 270.938C123.275 272.031 123.609 273.12 123.896 274.205C125.16 274.87 126.398 275.557 127.64 276.197C130.786 275.777 133.045 273.713 132.958 270.43C131.017 268.477 130.357 265.674 128.363 263.764C128.963 262.468 129.445 261.138 129.858 259.778C128.255 258.071 126.661 256.269 125.088 254.493C124.328 254.907 123.542 255.343 122.76 255.732L122.738 255.706ZM125.839 259.471C127.23 259.281 127.147 261.513 125.991 261.772C124.623 261.988 124.684 259.73 125.839 259.471Z" fill="#2D2A26"/>
<path d="M223.592 110.365C225.069 113.457 228.631 111.629 230.534 110.039C231.286 107.866 230.974 105.479 228.71 104.412C228.515 103.383 228.346 102.333 228.103 101.3C222.447 98.874 220.951 106.833 223.566 110.387L223.592 110.365ZM225.909 102.647C227.411 104.393 228.428 106.458 229.296 108.557C228.662 109.175 228.028 109.793 227.372 110.386C224.022 109.873 223.345 104.347 225.882 102.669L225.909 102.647Z" fill="#2D2A26"/>
<path d="M246.819 322.702C245.862 325.531 245.571 328.732 247.843 331.028C250.406 330.652 253.351 329.781 254.003 326.853C255.124 328.83 256.323 330.742 257.574 332.61C257.061 332.685 256.014 332.809 255.501 332.885C255.393 333.284 255.202 334.062 255.141 334.466C251.144 334.715 250.492 341.086 254.362 342.223C256.53 343.281 258.437 341.644 259.758 340.099C259.841 337.867 260.258 335.665 259.954 333.447C262.687 331.738 264.529 328.963 264.16 325.607C264.816 326.339 265.45 327.045 266.106 327.778C270.52 327.71 274.678 323.575 274.926 319.262C270.339 314.619 265.768 321.174 262.953 324.585C260.95 324.095 258.895 323.649 256.819 323.706C256.032 324.672 255.246 325.638 254.434 326.626C253.995 324.564 252.592 323.044 251.076 321.706C249.621 321.818 248.191 322.173 246.819 322.702ZM272.272 320.111C271.524 322.501 269.812 324.903 267.08 325.022C267.48 322.216 269.565 320.474 272.272 320.111Z" fill="#2D2A26"/>
<path d="M128.494 104.129C129.962 104.668 131.561 104.569 133.09 104.704C134.198 103.646 135.992 102.721 135.91 100.98C135.432 98.5537 133.06 96.8271 130.602 97.1155C128.855 98.8394 126.761 101.737 128.494 104.129ZM131.575 98.3332C134.633 98.6035 134.58 102.355 131.769 103.07C131.309 102.837 130.462 102.353 130.006 102.071C130.458 100.811 131.027 99.5851 131.575 98.3332Z" fill="#2D2A26"/>
<path d="M52.31 176.643C50.5379 173.885 46.6235 176.405 45.5763 178.648C45.6803 180.68 46.1971 182.676 46.5444 184.681C47.4175 184.879 48.3124 185.102 49.2334 185.304C50.1805 184.69 51.1537 184.053 52.1008 183.439C52.2574 181.189 52.9267 178.864 52.2883 176.617L52.31 176.643Z" fill="#2D2A26"/>
<path d="M158.081 273.06L156.686 275.681C157.984 279.143 158.206 283.063 160.329 286.189C162.484 285.007 164.522 283.79 166.481 282.374C166.642 279.547 166.087 276.656 164.062 274.551C163.424 274.687 162.737 274.819 162.077 274.93C160.843 274.195 159.475 273.616 158.102 273.086L158.081 273.06ZM159.066 275.723C162.255 276.414 162.637 280.156 160.586 282.311C159.596 280.225 159.197 277.998 159.066 275.723Z" fill="#2D2A26"/>
<path d="M169.659 302.761C168.49 305.812 170.892 309.853 174.333 309.627C176.943 309.256 178.608 307.116 179.307 304.721C178.93 301.461 176.662 299.383 173.356 299.187C172.07 300.35 170.632 301.33 169.659 302.761Z" fill="#5F5D59"/>
<path d="M177.767 286.718C175.751 290.08 177.001 294.067 176.979 297.749C177.501 297.844 178.565 298.058 179.108 298.178C179.794 297.517 180.485 296.807 181.172 296.145C181.524 294.659 182.158 293.247 182.932 291.894C182.567 290.875 182.202 289.855 181.863 288.814C180.504 288.14 179.174 287.397 177.793 286.697L177.767 286.718ZM178.983 289.234C180.951 291.43 181.476 294.39 179.286 296.749C178.717 294.267 178.587 291.727 178.983 289.234Z" fill="#2D2A26"/>
<path d="M109.164 244.754C107.148 248.116 108.398 252.103 108.402 255.763C108.945 255.884 110.009 256.098 110.531 256.192C111.217 255.531 111.908 254.821 112.595 254.159C112.973 252.652 113.581 251.261 114.354 249.908C114.016 248.867 113.625 247.869 113.286 246.828C111.931 246.106 110.597 245.411 109.216 244.711L109.164 244.754ZM110.406 247.248C112.369 249.492 112.894 252.452 110.709 254.763C110.162 252.307 110.032 249.767 110.406 247.248Z" fill="#2D2A26"/>
<path d="M212.59 291.794C213.802 290.914 214.971 289.982 216.074 288.971C216.044 286.657 216.635 282.544 213.234 282.604C207.921 281.966 207.659 290.925 212.59 291.794ZM212.073 285.825C213.394 285.604 213.98 287.895 212.868 288.471C211.626 288.626 210.961 286.401 212.073 285.825Z" fill="#2D2A26"/>
<path d="M201.934 286.614C202.286 288.837 205.018 287.922 206.573 288.036C208.889 285.351 209.876 281.922 211.223 278.767C212.713 276.948 214.229 275.107 214.638 272.735C214.951 272.474 215.637 272.077 215.95 271.816C215.412 268.734 212.749 264.911 209.334 267.234C208.504 269.737 208.004 272.318 207.574 274.929C201.518 274.779 200.731 282.102 201.886 286.61L201.934 286.614ZM207.96 278.358C207.552 278.611 206.705 279.186 206.318 279.465C206.67 281.687 206.487 283.959 205.157 285.864C202.529 283.513 204.029 274.447 207.986 278.336L207.96 278.358Z" fill="#2D2A26"/>
<path d="M112.111 190.956C112.406 191.416 112.628 191.893 112.923 192.352C112.054 193.167 111.059 193.777 109.851 193.815C109.352 193.217 108.818 192.736 108.179 192.343C106.359 192.495 104.925 193.693 103.439 194.669C103.574 192.923 103.044 191.335 101.598 190.292C101.654 189.406 101.663 188.516 101.694 187.652C100.161 184.916 96.6939 184.634 94.1523 186.095C92.7447 187.536 92.297 189.543 91.8624 191.407C90.9109 192.334 89.9985 193.361 89.1078 194.414C90.1024 196.187 90.6408 198.474 92.8476 199.103C92.1003 199.904 91.4008 200.709 90.697 201.561C90.9011 202.23 91.1269 202.924 91.3527 203.618C93.5247 204.629 95.94 205.877 98.2426 204.395C99.0682 202.205 98.708 199.283 100.541 197.664C100.915 199.117 101.462 200.514 102.187 201.806C105.137 200.357 110.35 201.564 111.728 198.339L109.225 198.84C110.746 196.422 114.391 196.07 117.006 196.71C117.931 196.07 118.835 195.403 119.713 194.758C120.217 195.573 120.72 196.388 121.25 197.182C125.56 197.201 130.056 192.783 127.559 188.469C126.873 188.336 126.182 188.251 125.491 188.166C123.441 188.996 121.694 190.455 119.635 191.116C117.593 189.731 115.343 188.786 112.871 189.747C113.114 189.456 113.584 188.799 113.805 188.481C116.998 188.33 120 187.102 122.472 185.082C122.268 184.413 122.108 183.797 121.903 183.129C121.656 182.939 121.135 182.579 120.861 182.411C120.522 181.634 120.205 180.884 119.84 180.129C117.169 180.905 113.432 181.465 112.959 184.819C111.412 184.61 109.831 184.783 108.315 185.034C109.618 183.416 111.1 181.428 110.887 179.266C109.167 177.26 106.487 177.071 104.015 177.238C102.286 175.063 104.072 171.055 100.423 169.865C98.5026 170.587 96.2436 171.061 95.583 173.291C95.2572 173.43 94.6055 173.71 94.3014 173.876C93.9364 174.71 93.5497 175.519 93.1847 176.353C95.5434 177.694 97.3852 179.686 98.5882 182.08C98.9618 182.209 99.7046 182.516 100.078 182.645C100.139 184.36 100.916 185.874 101.924 187.239C102.71 187.333 103.492 187.474 104.252 187.589C104.226 188.406 104.178 189.196 104.126 190.034C105.464 190.682 106.772 191.4 108.14 191.978C109.522 191.883 110.842 191.398 112.093 190.883L112.111 190.956ZM96.0302 175.786C95.5439 173.191 99.0238 172.27 101 172.252C100.739 174.854 98.072 175.316 96.0302 175.786ZM100.93 180.698C100.517 180.469 99.7397 180.015 99.3487 179.812C100.231 178.854 101.156 177.949 102.103 177.069C103.176 178.512 101.981 179.731 100.93 180.698ZM107.846 182.248C106.634 183.923 104.978 185.173 102.993 185.816C102.641 185.183 102.289 184.55 101.937 183.917C104.205 185.201 105.795 182.813 107.846 182.248ZM108.497 189.65C108.319 187.635 109.935 187.08 111.607 186.963C111.338 188.6 110.056 189.45 108.497 189.65ZM114.813 191.701C115.734 191.638 116.65 191.622 117.541 191.629C117.615 192.406 117.688 193.183 117.736 193.982C117.237 194.178 116.737 194.375 116.259 194.598C115.794 193.618 115.304 192.659 114.791 191.675L114.813 191.701ZM92.5003 197.362C91.9487 196.278 91.4449 195.198 91.0671 194.057C91.9968 193.369 92.9005 192.702 93.8259 192.062C94.3993 192.377 94.9466 192.714 95.4939 193.052C95.0202 194.816 93.9036 196.234 92.5003 197.362ZM97.0487 197.138C96.4535 197.326 95.854 197.562 95.2588 197.751C95.7455 196.903 96.2799 196.059 96.8534 195.315C96.8838 195.775 96.9923 196.7 97.0704 197.164L97.0487 197.138ZM99.2862 195.578C99.5947 194.305 99.1909 192.656 100.242 191.69C102.115 192.553 101.046 195.3 99.2862 195.578Z" fill="#2D2A26"/>
<path d="M342.394 261.269C343.892 263.063 346.629 264.22 347.137 266.576C345.704 266.185 344.227 266.006 342.71 265.992C342.51 269.25 338.9 273.193 340.98 276.001C341.271 275.184 341.511 274.411 341.802 273.593C343.161 276.122 341.675 279.482 339.789 281.41C339.881 282.526 339.998 283.62 340.115 284.714C339.172 284.751 338.203 284.81 337.261 284.847C335.093 288.556 336.704 294.67 341.695 294.605C342.13 294.066 342.564 293.526 342.999 292.987C343.294 290.798 342.895 288.571 343.355 286.421C345.575 285.316 347.496 283.801 347.9 281.212C348.035 281.585 348.356 282.287 348.539 282.665C347.1 285.499 346.661 288.735 347.195 291.865C347.855 292.019 348.516 292.174 349.154 292.303C349.432 292.159 350.036 291.875 350.336 291.757C351.17 291.855 352.004 291.953 352.817 292.024C353.473 289.313 354.803 285.819 352.148 283.754C353.083 282.488 353.743 281.054 354.286 279.585C355.072 281.532 356.023 283.784 358.039 284.66C360.663 284.145 362.119 281.914 363.209 279.723C365.972 279.269 368.565 282.797 371.402 280.206C371.754 278.191 372.411 276.009 370.83 274.328C370.886 273.972 370.951 273.256 370.982 272.921C370.448 272.176 369.909 271.478 369.353 270.706C367.011 272.089 364.379 272.699 361.69 272.606C361.377 272.867 360.777 273.368 360.443 273.603C358.948 272.821 357.219 272.765 355.516 272.951C355.052 273.56 354.561 274.191 354.07 274.822C353.388 274.376 352.727 273.957 351.998 273.507C350.79 274.339 349.539 275.12 348.3 276.022C347.705 277.269 347.457 278.668 347.288 280.002C346.758 280.003 346.228 280.004 345.672 280.027C345.389 278.895 345.329 277.71 345.933 276.631C346.667 276.504 347.388 276.254 348.044 275.927C348.822 274.262 348.461 272.4 348.379 270.659C349.834 271.606 351.489 271.945 353.097 271.22C353.848 271.696 354.626 272.15 355.356 272.6C358.488 272.588 360.482 269.73 360.483 266.816C359.935 264.89 358.398 263.526 356.977 262.196C356.639 260.89 356.226 259.602 355.74 258.331C353.741 258.323 351.465 257.664 349.827 259.253C349.488 258.212 349.119 257.24 348.759 256.173C348.046 256.062 347.364 255.881 346.63 255.744C344.697 257.138 342.394 258.62 342.533 261.329L342.394 261.269ZM368.358 273.436C370.834 274.281 369.891 277.761 368.961 279.509C366.833 278.02 367.715 275.474 368.358 273.436ZM361.615 275.272C361.998 275.041 362.788 274.557 363.171 274.326C363.54 275.562 363.883 276.821 364.178 278.075C362.401 278.279 361.945 276.674 361.615 275.272ZM356.137 274.595C356.885 274.589 357.584 274.579 358.305 274.594C356.09 275.915 357.349 278.483 356.823 280.555C356.007 278.677 355.69 276.602 356.137 274.595ZM350.068 277.502C351.897 278.314 351.597 280.021 350.858 281.521C349.607 280.447 349.456 278.941 350.068 277.502ZM350.283 264.302C349.913 264.125 349.518 263.969 349.262 263.874C349.357 263.353 349.449 262.88 349.544 262.358C349.575 262.289 349.557 262.215 349.588 262.145C349.588 262.145 349.596 262.05 349.623 262.028C349.623 262.028 349.666 262.08 349.688 262.106C350.192 262.921 350.622 263.754 350.999 264.63C350.813 264.565 350.582 264.449 350.304 264.328L350.283 264.302ZM355.287 263.564C355.287 263.564 355.261 263.586 355.235 263.608C354.701 263.922 354.166 264.236 353.584 264.545C353.519 264.467 353.454 264.389 353.367 264.285C352.642 263.523 352.146 262.612 351.825 261.645C351.673 261.198 351.547 260.729 351.421 260.261C351.386 260.113 351.356 259.918 351.321 259.77C352.52 259.828 353.715 259.934 354.901 260.135C355.005 260.842 355.083 261.572 355.14 262.275C355.183 262.592 355.226 262.909 355.248 263.199C355.248 263.199 355.27 263.225 355.239 263.295C355.257 263.369 355.274 263.443 355.265 263.538L355.287 263.564ZM341.922 281.791C343.021 281.888 344.077 281.933 345.159 281.957C344.746 282.787 344.338 283.57 343.855 284.37C343.16 284.068 342.422 283.713 341.705 283.385C341.753 282.86 341.848 282.338 341.922 281.791ZM349.37 267.448C349.348 267.157 349.374 266.87 349.5 266.544C350.143 267.155 351.164 267.582 351.803 268.241C352.089 268.531 352.302 268.839 352.385 269.255C350.994 270.24 349.483 268.854 349.374 267.4L349.37 267.448Z" fill="#474340"/>
<path d="M85.391 178.627C85.6728 183.202 94.9649 184.577 93.3192 178.316C92.5286 177.475 91.8119 176.617 91.0214 175.777C88.8189 175.895 86.6032 176.687 85.391 178.627ZM87.8323 179.589C88.3276 178.91 88.8664 178.283 89.3834 177.631C92.6544 179.003 90.3821 181.475 87.8323 179.589Z" fill="#2D2A26"/>
<path d="M73.9609 179.832C73.805 175.989 69.3916 173.143 65.9116 175.123C63.683 175.529 61.7581 179.476 65.2378 179.35C65.5331 180.074 65.8241 180.847 66.0934 181.593C68.8432 182.341 71.8103 181.761 73.9348 179.854L73.9609 179.832Z" fill="#2D2A26"/>
<path d="M124.788 298.002C128.789 300.089 134.255 297.201 134.246 292.529C135.124 290.03 132.236 285.777 130.337 289.438C129.433 289.31 128.482 289.178 127.557 289.024C125.197 291.392 124.076 294.712 124.788 298.002Z" fill="#2D2A26"/>
<path d="M76.6279 184.667C76.4496 186.625 77.7527 188.185 78.9515 189.567C82.4964 188.99 85.2641 185.574 84.248 181.921C81.5895 180.434 77.6448 181.698 76.6062 184.641L76.6279 184.667ZM78.587 185.634C79.5471 185.936 80.5028 186.285 81.4324 186.656C80.4766 186.837 79.5513 186.948 78.5999 187.08C78.5869 186.694 78.5783 185.995 78.587 185.634Z" fill="#2D2A26"/>
<path d="M90.4467 183.672C86.0463 180.948 83.2305 188.067 86.4666 190.617C90.1417 192.049 94.026 186.156 90.4467 183.672Z" fill="#2D2A26"/>
<path d="M70.4195 190.427C71.0493 191.181 71.7139 191.553 72.3829 191.612C72.813 191.65 73.204 191.588 73.582 191.405C74.9548 190.876 76.1366 189.271 76.5886 187.745C76.1369 186.887 75.6591 186.05 75.203 185.239L70.9066 185.341C69.803 186.881 69.9288 188.674 70.3978 190.401L70.4195 190.427ZM71.7969 187.731C72.605 187.321 73.3913 186.885 74.1733 186.497C75.2853 188.04 73.5778 189.333 72.3961 190.144C72.2355 189.528 71.9576 188.347 71.7708 187.753L71.7969 187.731Z" fill="#2D2A26"/>
<path d="M66.4581 185.526C63.7562 183.457 60.4634 183.118 57.2789 184.233C55.9971 186.937 57.0524 190.161 59.9411 191.235C61.9614 189.15 66.3795 189.034 66.4581 185.526Z" fill="#2D2A26"/>
<path d="M79.6629 198.419C82.5994 200.292 86.4442 198.537 87.7782 195.524C87.9697 192.628 85.1245 190.281 82.3745 191.652C80.819 193.657 79.1419 195.676 79.689 198.398L79.6629 198.419ZM82.1484 193.341C83.7341 192.856 85.1589 193.343 86.2535 194.547C85.5452 196.242 84.459 197.856 82.4303 197.917C82.1045 197.527 81.4747 196.773 81.1489 196.383C81.5052 195.38 81.8399 194.35 82.1484 193.341Z" fill="#2D2A26"/>
<path d="M80.0499 193.638C77.9518 191.815 75.189 191.21 72.4956 191.429C71.6439 193.112 70.41 194.496 69.15 195.901C67.4298 195.484 65.5618 194.838 63.963 195.997C63.6804 198.307 61.7686 201.052 64.1317 202.874C67.6418 202.944 71.1218 200.434 71.2395 196.76C73.0944 197.02 74.9321 196.677 76.7349 196.451C77.7646 195.458 78.929 194.574 80.0238 193.659L80.0499 193.638Z" fill="#2D2A26"/>
<path d="M50.5303 201.215C51.2862 201.643 52.0464 202.023 52.7805 202.425C52.9802 203.671 53.206 204.895 53.4795 206.123C55.2389 206.11 56.7682 205.185 58.2844 204.404C59.0796 202.283 59.2494 199.625 57.034 198.298C54.7054 198.742 52.3811 199.669 50.5303 201.215ZM54.8485 200.874C55.6305 201.015 56.4081 201.204 57.1857 201.394C56.56 202.181 55.9343 202.969 55.2826 203.778C55.1307 202.801 55.0265 201.829 54.8702 200.9L54.8485 200.874Z" fill="#2D2A26"/>
<path d="M79.7833 210.59C82.4676 214.174 88.3196 211.272 88.7067 207.285C86.5569 201.798 78.5762 205.33 79.7833 210.59Z" fill="#5F5D59"/>
<path d="M63.7143 208.255C61.8852 209.562 62.1543 211.633 62.9752 213.463C65.321 213.622 67.9492 213.855 69.9434 212.321C73.6792 214.674 79.7053 208.536 76.5561 205.031C73.6065 204.362 70.7479 205.337 68.7797 207.643C67.1854 207.165 65.5607 206.757 63.9056 206.948L63.7143 208.255ZM70.8691 209.032C71.3688 208.305 71.8684 207.579 72.342 206.874C72.8936 207.959 73.4191 209.065 74.0446 210.131C73.6275 210.48 73.2104 210.828 72.7455 211.172C72.3025 211.013 71.8854 210.831 71.4423 210.672C71.3121 210.251 70.9994 209.453 70.8691 209.032Z" fill="#2D2A26"/>
<path d="M50.9371 214.47C51.0455 216.719 51.6663 219.953 54.3945 220.146C55.524 219.643 56.6492 219.189 57.8135 218.834C59.8905 215.069 53.7309 210.768 50.9371 214.47ZM53.9693 214.762C55.7678 215.114 58.2003 216.966 55.446 218.119C52.7437 220.289 51.6103 216.071 53.9693 214.762Z" fill="#2D2A26"/>
<path d="M60.3154 221.512C60.8104 223.482 62.057 225.133 63.3384 226.667C66.9528 226.384 68.869 222.797 71.9666 221.313C73.0739 225.023 78.161 224.967 79.8686 221.819C83.1403 217.629 76.5073 211.914 72.6015 215.397C71.9367 216.88 71.2458 218.384 70.5331 219.862C67.223 218.39 62.0058 217.23 60.2937 221.486L60.3154 221.512ZM74.3911 217.169C76.7719 216.151 78.631 217.953 78.9739 220.271C77.9442 220.998 77.0796 222.03 75.8024 222.302C73.6608 221.487 73.5742 218.999 74.3694 217.143L74.3911 217.169Z" fill="#2D2A26"/>
<path d="M91.8728 215.366C90.4872 213.39 87.2203 214.089 85.3478 215.079C83.6055 217.814 82.0933 221.726 84.0348 224.739C88.1488 225.054 90.2822 221.198 93.1974 219.071C92.9022 216.758 89.9568 217.364 89.3141 215.429C89.944 215.389 91.1995 215.355 91.8511 215.34L91.8728 215.366Z" fill="#2D2A26"/>
<path d="M91.2157 222.316C90.6073 224.236 89.9467 226.201 89.2905 228.117C89.9291 228.511 90.5677 228.904 91.2062 229.298C93.4653 228.293 95.972 227.215 96.8542 224.668C97.5539 222.274 100.53 222.657 102.476 222.708C103.119 221.995 103.788 221.259 104.453 220.572C104.418 219.365 104.41 218.136 104.375 216.929C102.737 214.809 100.261 213.965 97.837 215.46C97.2199 217.741 95.3821 219.409 94.7867 221.716C93.5964 221.828 92.3756 222.009 91.194 222.29L91.2157 222.316ZM94.3346 224.301C95.0947 225.211 93.3222 226.162 92.6924 225.408C91.9366 224.45 93.6309 223.564 94.3346 224.301Z" fill="#2D2A26"/>
<path d="M67.5954 232.027C68.2898 238.157 75.9272 235.484 77.7131 231.477C79.7031 228.667 76.3366 226.491 74.0082 225.611C71.7535 226.038 69.8158 227.48 69.998 229.976C69.1899 230.651 68.3818 231.326 67.5476 232.023L67.5954 232.027ZM73.339 227.406C74.1861 227.625 75.0288 227.892 75.8716 228.159C77.0789 231.3 72.5823 234.659 69.889 233.289C70.6625 231.143 71.9486 229.185 73.3868 227.41L73.339 227.406Z" fill="#2D2A26"/>
<path d="M82.444 229.776C81.6227 232.183 81.3704 234.954 83.312 236.908C85.5319 236.598 88.0343 235.832 88.5776 233.303C89.5071 234.999 90.5625 236.633 91.618 238.268L89.8412 238.472C89.763 238.802 89.5804 239.484 89.5239 239.84C86.1094 240.044 85.5874 245.512 88.8498 246.451C90.7177 247.362 92.3383 245.964 93.4723 244.62C93.5246 242.722 93.9158 240.806 93.651 238.953C96.0014 237.475 97.5873 235.135 97.2444 232.287C97.8134 232.916 98.3868 233.496 98.9298 234.146C102.692 234.093 106.241 230.554 106.459 226.841C102.558 222.86 98.6307 228.437 96.2193 231.378C94.499 230.961 92.7527 230.566 90.9672 230.601C90.2894 231.432 89.6117 232.263 88.9339 233.094C88.5909 231.306 87.3833 230.019 86.0672 228.868C84.8291 228.975 83.6213 229.278 82.4483 229.728L82.444 229.776ZM104.226 227.559C103.583 229.597 102.119 231.659 99.7728 231.764C100.112 229.362 101.885 227.881 104.226 227.559Z" fill="#5F5D59"/>
<path d="M78.5501 245.565C80.0184 246.104 81.6171 246.004 83.1463 246.139C84.2585 245.034 86.0484 244.156 85.9704 242.368C85.4667 239.963 83.1211 238.215 80.6839 238.529C78.9157 240.227 76.8431 243.15 78.5545 245.517L78.5501 245.565ZM81.6569 239.747C84.7109 240.065 84.6627 243.769 81.8519 244.484C81.4175 244.229 80.5487 243.719 80.0882 243.485C80.5662 242.203 81.1094 240.999 81.6569 239.747Z" fill="#2D2A26"/>
<path d="M87.5154 254.496C87.5674 255.777 87.6151 257.105 87.641 258.408C90.9817 258.486 93.4364 255.862 96.1561 254.296C96.0258 253.875 95.7218 252.981 95.5915 252.561C94.8183 252.324 94.019 252.109 93.2197 251.894C91.9598 252.24 90.6478 252.365 89.3185 252.416C88.7015 253.108 88.1324 253.804 87.4894 254.517L87.5154 254.496ZM94.4924 252.993C92.9153 254.443 91.0471 255.651 89.0487 256.437C89.87 254.03 91.8512 252.375 94.4924 252.993Z" fill="#2D2A26"/>
<path d="M202.413 316.274C202.491 317.798 202.521 319.318 202.573 320.864C206.492 320.945 209.372 317.877 212.548 316.062C212.379 315.542 212.062 314.526 211.892 314.006C210.954 313.73 210.037 313.481 209.121 313.231C207.639 313.63 206.106 313.807 204.564 313.816C203.838 314.642 203.16 315.474 202.413 316.274ZM210.546 314.513C208.703 316.228 206.531 317.601 204.159 318.524C205.115 315.694 207.435 313.756 210.546 314.513Z" fill="#2D2A26"/>
<path d="M87.971 141.291C90.2384 143.899 93.1407 141.121 94.5571 139.055C94.692 136.78 93.7148 134.55 91.2474 134.14C90.7783 133.207 90.3136 132.227 89.8228 131.269C83.7019 130.511 84.4612 138.573 87.9754 141.243L87.971 141.291ZM88.0762 133.257C90.0092 134.512 91.5643 136.214 92.9672 138C92.5371 138.756 92.0809 139.535 91.6507 140.291C88.3099 140.743 86.0819 135.585 88.0979 133.283L88.0762 133.257Z" fill="#2D2A26"/>
<path d="M71.4444 153.507C73.2993 154.033 75.0108 154.81 76.9179 155.027C77.7864 157.656 79.6933 159.726 82.5518 160.075C81.8176 160.468 81.0833 160.861 80.3231 161.275C79.4842 164.933 82.0816 169.208 85.6437 170.293C90.4357 167.394 85.9357 162.325 83.6336 159.304C84.4765 157.717 85.2239 156.122 85.6238 154.375C85.0026 153.526 84.3598 152.65 83.6909 151.796C85.5154 151.861 87.0404 150.985 88.4784 150.004C88.6871 148.77 88.6568 147.516 88.5049 146.274C86.3633 144.929 83.7482 144.024 81.3805 145.428C81.176 147.673 81.3235 150.287 83.6084 151.38C81.7316 151.888 79.8896 152.544 78.0954 153.204C78.1128 152.748 78.2432 151.845 78.2824 151.415C77.9827 151.268 77.3615 150.948 77.0139 150.797C77.6095 147.43 72.4488 145.65 70.7368 148.581C69.4116 150.173 70.3932 152.09 71.4227 153.481L71.4444 153.507ZM82.4863 162.646C84.7191 163.518 85.7572 165.608 85.4963 167.945C83.6675 166.868 82.0343 164.966 82.4863 162.646Z" fill="#5F5D59"/>
<path d="M72.4621 143.123C73.2308 144.467 73.6824 146.385 75.4331 146.732C77.9049 146.83 80.1511 144.91 80.4207 142.478C79.1655 140.392 76.8329 137.706 74.109 138.79C73.2444 140.086 72.9575 141.65 72.4621 143.123ZM74.3736 142.232C74.7212 141.854 75.3903 141.118 75.7596 140.765C76.8716 141.514 77.9532 142.332 79.0348 143.15C78.0006 146.044 74.3733 145.146 74.3736 142.232Z" fill="#2D2A26"/>
<path d="M59.4598 144.671C58.5862 147.917 60.5538 150.908 61.4354 153.923C61.8959 153.892 62.8429 153.807 63.2556 153.771C63.6814 153.062 64.0855 152.327 64.4635 151.614C64.3898 150.308 64.6072 148.978 64.8941 147.679C64.3598 146.934 63.8255 146.188 63.2696 145.417C61.9924 145.159 60.7152 144.902 59.4381 144.645L59.4598 144.671ZM61.08 146.451C63.2215 147.796 64.3594 150.112 63.1254 152.556C62.07 150.656 61.3665 148.596 61.08 146.451Z" fill="#2D2A26"/>
<path d="M366.551 226.081C366.325 228.565 365.986 231.232 367.776 233.268C369.491 235.057 367.732 237.454 366.689 239.12C366.993 240.013 367.266 240.977 367.544 241.892C368.626 242.445 369.703 243.046 370.759 243.621C373.418 243.254 375.36 241.499 375.304 238.677C373.649 237.014 373.075 234.579 371.368 232.959C371.877 231.873 372.294 230.73 372.663 229.582C371.282 228.088 369.927 226.571 368.598 225.033C367.937 225.408 367.255 225.757 366.573 226.107L366.551 226.081ZM369.223 229.278C370.417 229.119 370.339 231.038 369.379 231.267C368.206 231.452 368.263 229.507 369.223 229.278Z" fill="#2D2A26"/>
<path d="M371.375 213.311C372.825 216.425 376.414 214.575 378.317 212.986C379.069 210.813 378.756 208.425 376.493 207.358C376.297 206.33 376.106 205.253 375.911 204.225C370.255 201.799 368.76 209.757 371.375 213.311ZM373.691 205.594C375.194 207.34 376.236 209.382 377.079 211.504C376.445 212.122 375.836 212.718 375.18 213.31C371.853 212.824 371.154 207.272 373.691 205.594Z" fill="#2D2A26"/>
<path d="M352.103 220.494C353.723 221.48 355.174 222.739 356.964 223.451C357.072 226.23 358.336 228.75 361.003 229.876C360.217 230.048 359.383 230.215 358.57 230.408C356.754 233.691 358.048 238.525 361.163 240.558C366.593 239.111 363.635 232.974 362.272 229.435C363.497 228.146 364.7 226.832 365.543 225.245C365.153 224.247 364.788 223.228 364.371 222.252C366.1 222.838 367.803 222.387 369.467 221.835C369.979 220.701 370.305 219.501 370.492 218.242C368.785 216.357 366.544 214.787 363.855 215.488C363.038 217.583 362.442 220.155 364.336 221.839C362.386 221.836 360.452 221.906 358.511 222.071C358.693 221.654 359.036 220.793 359.214 220.424C358.949 220.159 358.437 219.705 358.194 219.467C359.701 216.397 355.219 213.256 352.764 215.616C351.043 216.788 351.456 218.871 352.051 220.537L352.103 220.494ZM360.178 232.332C362.093 233.777 362.51 236.078 361.637 238.264C360.164 236.713 359.122 234.406 360.178 232.332Z" fill="#2D2A26"/>
<path d="M253.798 144.722C255.418 145.708 256.869 146.968 258.659 147.68C258.745 150.433 260.031 152.978 262.65 154.101C261.864 154.272 261.052 154.465 260.218 154.632C258.401 157.915 259.717 162.775 262.836 164.76C268.219 163.309 265.309 157.177 263.945 153.637C265.17 152.349 266.352 151.008 267.217 149.448C266.826 148.45 266.461 147.43 266.044 146.454C267.773 147.041 269.498 146.615 271.114 146.06C271.648 144.951 271.979 143.704 272.161 142.492C270.48 140.586 268.191 139.011 265.524 139.738C264.707 141.833 264.137 144.384 266.031 146.068C264.107 146.042 262.147 146.134 260.232 146.278C260.414 145.861 260.753 145.048 260.914 144.604C260.671 144.366 260.158 143.912 259.915 143.673C261.423 140.604 256.966 137.441 254.511 139.801C252.764 140.995 253.203 143.056 253.798 144.722ZM261.873 156.56C263.788 158.006 264.205 160.306 263.31 162.466C261.863 160.894 260.795 158.608 261.873 156.56Z" fill="#2D2A26"/>
<path d="M355.949 210.792C356.344 212.272 356.209 214.283 357.799 215.073C360.115 215.832 362.826 214.627 363.777 212.375C363.126 210.006 361.662 206.77 358.695 207.086C357.496 208.088 356.809 209.544 355.901 210.788L355.949 210.792ZM358.052 210.448C358.508 210.2 359.351 209.672 359.807 209.424C360.676 210.464 361.492 211.547 362.261 212.626C360.493 215.119 357.265 213.268 358.052 210.448Z" fill="#2D2A26"/>
<path d="M343.038 208.688C341.331 211.571 342.369 214.986 342.394 218.143C342.842 218.255 343.741 218.43 344.193 218.494C344.775 217.92 345.383 217.323 345.965 216.749C346.274 215.476 346.817 214.272 347.452 213.124C347.148 212.23 346.839 211.384 346.535 210.49C345.388 209.859 344.216 209.25 343.038 208.688ZM344.094 210.852C345.753 212.733 346.222 215.254 344.354 217.256C343.872 215.143 343.755 212.99 344.094 210.852Z" fill="#2D2A26"/>
<path d="M198.147 161.813L196.93 164.066C198.033 167.029 198.211 170.367 200.014 173.055C201.838 172.06 203.598 170.988 205.275 169.763C205.423 167.344 204.949 164.871 203.212 163.056C202.647 163.174 202.082 163.293 201.496 163.386C200.445 162.763 199.289 162.227 198.125 161.787L198.147 161.813ZM198.976 164.078C201.691 164.679 202.004 167.861 200.292 169.732C199.467 167.95 199.111 166.04 198.976 164.078Z" fill="#2D2A26"/>
<path d="M173.76 148.197C173.034 150.348 172.656 152.65 173.198 154.889C173.468 155.106 174.059 155.495 174.328 155.712C175.774 155.695 177.234 155.8 178.524 156.444C179.067 159.742 181.834 163.478 185.457 161.246C185.748 159.899 185.927 158.47 186.101 157.089C186.491 157.027 187.321 156.908 187.712 156.846C188.36 155.82 189.137 154.949 190.158 154.317C190.08 155.177 189.924 156.102 189.863 157.036C189.806 158.187 189.919 159.329 190.696 160.312C191.648 160.18 192.595 160.095 193.546 159.962C194.471 159.851 195.375 159.714 196.266 159.456C196.757 155.647 200.766 160.817 203.26 159.352C204.107 160.63 205.023 161.939 206.001 163.109C207.977 162.562 209.706 161.294 209.598 159.045C211.319 157.608 209.494 155.953 208.886 154.431C207.622 154.295 206.406 154.693 205.376 155.421C204.39 154.082 203.352 152.786 202.183 151.599C201.931 151.986 201.427 152.761 201.175 153.148C200.958 152.888 200.598 152.35 200.407 152.068C199.316 151.876 198.178 151.679 197.066 151.46C195.884 153.065 196.505 154.974 196.974 156.701C196.427 156.629 195.853 156.578 195.306 156.506C195.371 154.73 194.85 153.046 193.465 151.864C194.85 151.457 195.902 150.49 195.68 148.954C196.032 148.792 196.784 148.473 197.136 148.312C196.658 147.21 196.159 146.082 195.833 144.898C195.338 144.517 194.864 144.162 194.369 143.781C194.013 140.812 193.049 137.645 189.952 136.48C189.057 136.786 188.14 137.067 187.228 137.299C185.655 139.496 185.95 142.339 187.214 144.594C188.135 145.06 189.078 145.553 189.998 146.02C189.981 147.005 189.964 147.991 189.924 148.951C188.747 148.919 187.57 148.887 186.366 148.877C185.984 146.46 185.12 143.783 182.336 143.416C181.093 144.366 179.555 144.591 178.048 144.747C177.765 148.382 180.328 151.185 182.838 153.502C181.596 153.922 180.379 154.32 179.18 154.792C179.602 151.482 177.218 148.31 173.751 148.292L173.76 148.197ZM184.646 149.255C184.125 149.691 183.577 150.148 183.078 150.609C182.882 150.375 182.457 150.025 182.257 149.839C182.943 149.177 183.608 148.489 184.229 147.749C184.364 148.122 184.538 148.86 184.672 149.233L184.646 149.255ZM188.674 143.904C188.383 142.602 188.018 141.318 187.679 140.012C188.14 139.45 188.574 138.911 189.035 138.35L189.261 140.633C189.895 140.545 190.529 140.456 191.142 140.342C192.792 142.582 191.332 144.597 188.722 143.908L188.674 143.904ZM208.547 157.892C208.112 158.962 207.704 160.009 207.248 161.052C204.441 159.865 205.65 155.59 208.547 157.892ZM197.513 154.221C199.099 152.145 201.792 155.104 203.59 155.721C202.313 159.701 197.739 157.563 197.513 154.221ZM192.152 157.816C192.326 156.7 192.504 155.536 192.678 154.419C192.817 155.539 194.45 158.236 192.152 157.816ZM187.682 152.943C187.313 152.765 186.926 152.515 186.535 152.312C186.592 151.955 186.653 151.286 186.709 150.93C188.351 151.412 190.015 151.391 191.64 151.005C191.271 151.622 190.875 152.262 190.458 152.875C189.537 152.673 188.616 152.736 187.682 152.943ZM180.831 157.562C181.426 156.58 182.074 155.553 183.173 155.121C183.694 156.539 184.219 157.91 184.593 159.364C183.741 159.457 182.89 159.55 182.043 159.596C181.669 158.937 181.252 158.226 180.857 157.541L180.831 157.562ZM175.64 152.143C176.744 151.928 177.23 153.729 176.183 154.118C175.175 154.342 174.784 152.549 175.64 152.143Z" fill="#2D2A26"/>
<path d="M209 148.686C210.507 150.914 213.665 148.761 214.461 146.905C214.348 145.234 213.892 143.628 213.562 141.962C212.828 141.824 212.12 141.666 211.364 141.502C210.595 142.012 209.821 142.57 209.052 143.08C208.957 144.926 208.47 146.833 209.026 148.664L209 148.686Z" fill="#2D2A26"/>
<path d="M199.713 141.701C198.705 144.309 200.75 147.764 203.709 147.544C205.95 147.261 207.371 145.412 207.967 143.369C207.619 140.57 205.686 138.786 202.858 138.632C201.781 139.62 200.547 140.474 199.713 141.701Z" fill="#2D2A26"/>
<path d="M206.596 128.006C204.888 130.889 205.926 134.304 205.952 137.46C206.403 137.524 207.324 137.726 207.75 137.812C208.332 137.237 208.94 136.641 209.523 136.066C209.831 134.793 210.374 133.589 211.009 132.441C210.7 131.595 210.396 130.702 210.092 129.808C208.941 129.225 207.768 128.615 206.596 128.006ZM207.651 130.17C209.31 132.05 209.779 134.572 207.911 136.574C207.429 134.461 207.338 132.286 207.651 130.17Z" fill="#2D2A26"/>
<path d="M161.919 131.162C163.426 133.39 166.585 131.237 167.38 129.381C167.267 127.709 166.811 126.104 166.481 124.437C165.747 124.3 165.039 124.141 164.283 123.978C163.536 124.514 162.741 125.046 161.972 125.556C161.876 127.402 161.389 129.309 161.945 131.14L161.919 131.162Z" fill="#2D2A26"/>
<path d="M152.606 124.199C151.62 126.832 153.644 130.262 156.624 130.068C158.844 129.758 160.265 127.909 160.908 125.871C160.561 123.071 158.628 121.287 155.8 121.134C154.701 122.096 153.467 122.95 152.632 124.177L152.606 124.199Z" fill="#5F5D59"/>
<path d="M159.515 110.482C157.786 113.339 158.845 116.78 158.849 119.91C159.301 119.974 160.222 120.176 160.669 120.288C161.252 119.713 161.86 119.117 162.442 118.542C162.751 117.269 163.294 116.065 163.928 114.917C163.62 114.071 163.316 113.178 163.012 112.284C161.861 111.7 160.714 111.069 159.515 110.482ZM160.57 112.646C162.277 114.531 162.72 117.074 160.852 119.076C160.37 116.963 160.279 114.787 160.57 112.646Z" fill="#2D2A26"/>
<path d="M336.946 260.258C338.65 256.098 331.1 253.312 329.939 257.592C329.735 260.367 328.431 263.31 330.073 265.911C333.961 266.592 334.661 262.344 336.972 260.236L336.946 260.258Z" fill="#2D2A26"/>
<path d="M357.631 239.138C355.264 238.688 353.378 241.411 352.709 243.471C353.36 246.635 354.958 250.508 358.446 251.346C361.648 248.715 360.541 244.476 361.176 240.944C359.356 239.507 357.64 241.956 355.872 241.005C356.323 240.539 357.201 239.63 357.653 239.164L357.631 239.138Z" fill="#474340"/>
<path d="M386.939 262.99C386.9 264.744 387.121 267.075 388.346 268.436C388.802 268.982 389.445 269.327 390.249 269.495C390.401 269.412 390.574 269.355 390.752 269.25C391.921 268.583 392.903 267.586 393.967 266.741C394.007 266.046 394.146 265.312 394.163 264.591C394.172 264.496 394.181 264.4 394.189 264.305C394.215 264.283 394.194 264.257 394.198 264.209C394.176 263.918 394.133 263.601 394.089 263.284C394.007 262.868 393.781 262.438 393.429 262.07C392.521 261.46 391.44 261.172 390.397 261.249C389.09 261.326 387.808 261.911 386.965 262.968L386.939 262.99ZM388.52 263.346C388.52 263.346 388.455 263.268 388.464 263.173L388.568 263.085L388.62 263.042C389.367 262.506 390.145 262.43 390.753 262.628C391.783 262.96 392.482 264.009 392.295 265.269C392.26 265.651 392.104 266.047 391.848 266.481C391.352 266.63 390.392 266.859 389.897 267.007C389.658 266.457 389.445 265.884 389.232 265.311C388.976 264.687 388.724 264.014 388.494 263.368L388.52 263.346Z" fill="#2D2A26"/>
<path d="M375.176 249.333C374.373 246.782 370.728 247.928 369.455 249.477C369.09 251.107 369.081 252.791 368.929 254.463C369.572 254.809 370.236 255.181 370.927 255.531C371.796 255.247 372.712 254.966 373.581 254.682C374.198 252.93 375.219 251.239 375.224 249.337L375.176 249.333Z" fill="#2D2A26"/>
<path d="M374.663 254.705C374.194 257.481 375.553 259.744 378.212 260.702C379.519 260.095 380.962 259.596 382.104 258.686C383.825 256.454 382.852 252.588 379.95 251.922C377.722 251.532 375.836 252.931 374.663 254.705Z" fill="#2D2A26"/>
<path d="M368.585 264.33C368.646 265.25 368.68 266.192 368.715 267.134C369.644 268.035 370.596 268.962 371.551 269.841C374.019 267.603 373.963 263.986 374.863 260.984L373.208 260.115L371.031 261.271C370.349 262.415 369.489 263.398 368.559 264.351L368.585 264.33ZM372.721 261.228C372.595 263.408 372.064 265.528 371.165 267.471C370.097 265.186 370.379 262.61 372.721 261.228Z" fill="#2D2A26"/>
<path d="M236.969 293.057C234.645 296.897 237.042 300.721 240.526 302.666C241.456 302.242 242.411 301.797 243.315 301.395C244.089 299.513 244.154 297.472 243.437 295.555C241.422 294.414 239.302 293.36 236.943 293.079L236.969 293.057ZM238.159 297.713C240.314 296.266 242.764 297.927 241.043 300.424C240.061 299.567 239.084 298.662 238.159 297.713Z" fill="#2D2A26"/>
<path d="M238.2 281.921C237.8 283.932 237.787 285.93 238.086 287.931C239.107 288.623 240.128 289.315 241.127 289.981C245.971 288.892 245.468 282.515 241.302 280.919C240.285 281.238 239.217 281.601 238.174 281.943L238.2 281.921ZM241.731 287.843C241.188 287.193 240.676 286.474 240.111 285.798C241.271 282.577 244.989 286.975 241.731 287.843Z" fill="#2D2A26"/>
<path d="M225.97 287.149C226.269 292.858 233.433 295.923 237.334 291.428C237.026 289.258 237.348 285.987 234.755 285.108C231.757 284.434 228.186 284.768 225.97 287.149ZM228.251 288.819C229.215 287.484 230.701 286.772 232.135 286.104C231.822 287.16 231.435 288.234 231.096 289.312C231.413 290.062 231.661 290.782 231.956 291.506C231.066 291.235 230.175 290.964 229.311 290.671C229.015 290.211 228.498 289.275 228.251 288.819Z" fill="#2D2A26"/>
<path d="M147.613 258.674C145.288 262.514 147.686 266.338 151.169 268.283C152.099 267.86 153.055 267.414 153.959 267.013C154.732 265.13 154.797 263.09 154.081 261.172C152.065 260.031 149.945 258.977 147.587 258.696L147.613 258.674ZM148.802 263.33C150.957 261.883 153.407 263.545 151.687 266.041C150.705 265.184 149.728 264.279 148.802 263.33Z" fill="#2D2A26"/>
<path d="M126.725 231.232C126.303 233.218 126.311 235.241 126.611 237.242C127.632 237.934 128.653 238.626 129.652 239.293C134.474 238.178 133.992 231.826 129.831 230.182C128.788 230.524 127.746 230.865 126.703 231.206L126.725 231.232ZM130.256 237.155C129.713 236.505 129.2 235.785 128.636 235.109C129.774 231.863 133.492 236.261 130.256 237.155Z" fill="#2D2A26"/>
<path d="M307.198 363.723C306.851 365.426 306.838 367.159 307.094 368.843C307.98 369.427 308.818 370.006 309.704 370.59C313.836 369.655 313.419 364.176 309.857 362.826C308.962 363.132 308.093 363.417 307.198 363.723ZM310.23 368.783C309.752 368.211 309.301 367.617 308.849 367.023C309.822 364.268 312.998 368.016 310.23 368.783Z" fill="#2D2A26"/>
<path d="M136.635 252.792C136.934 258.501 144.098 261.566 147.999 257.071C147.691 254.901 148.013 251.63 145.42 250.751C142.422 250.077 138.851 250.411 136.635 252.792ZM138.916 254.462C139.88 253.127 141.366 252.415 142.8 251.748C142.487 252.803 142.1 253.877 141.761 254.955C142.078 255.705 142.326 256.425 142.621 257.15C141.731 256.878 140.84 256.607 139.976 256.314C139.68 255.854 139.163 254.918 138.916 254.462Z" fill="#2D2A26"/>
<path d="M148.51 238.768C148.54 241.876 149.725 245.256 152.597 246.786C158.071 245.127 159.349 237.438 154.053 234.755C152.003 235.585 148.779 236.07 148.51 238.768ZM150.108 241.052C151.233 241.127 152.332 241.224 153.457 241.3C154.1 240.851 154.769 240.38 155.386 239.953C155.352 240.865 155.291 241.799 155.208 242.706C154.813 243.081 154.048 243.808 153.674 244.208C152.141 243.591 151.124 242.322 150.082 241.074L150.108 241.052Z" fill="#2D2A26"/>
<path d="M398.233 275.185C398.28 277.838 399.27 280.718 401.703 282.041C406.386 280.6 407.464 274.05 402.929 271.747C401.178 272.459 398.42 272.865 398.185 275.18L398.233 275.185ZM399.618 277.161C400.6 277.224 401.508 277.304 402.49 277.367C403.055 276.983 403.619 276.6 404.136 276.212C404.115 276.981 404.041 277.793 404.019 278.561C403.654 278.866 403.041 279.51 402.698 279.841C401.373 279.315 400.509 278.227 399.64 277.187L399.618 277.161Z" fill="#2D2A26"/>
<path d="M304.849 317.837C305.04 318.384 305.184 318.926 305.37 319.52C304.858 320.655 304.484 321.85 304.18 323.075C304.97 323.386 305.761 323.696 306.552 324.007C309.38 322.571 312.686 321.973 315.119 319.852C313.924 318.157 312.673 316.554 311.27 315.033C308.846 315.204 306.466 315.957 304.845 317.885L304.849 317.837ZM311.761 319.965C310.101 320.998 308.242 321.58 306.309 321.915C306.609 319.148 309.732 318.437 311.761 319.965Z" fill="#2D2A26"/>
<path d="M315.29 301.302C314.843 302.515 314.347 303.723 313.895 304.983C316.949 306.361 320.238 304.894 323.357 304.495L323.501 302.654C322.875 302.117 322.223 301.602 321.594 301.112C320.282 300.972 319.018 300.572 317.788 300.054C316.98 300.464 316.124 300.87 315.29 301.302ZM315.941 303.671C317.632 301.774 320.108 301.029 322.297 302.643C320.281 303.356 318.105 303.718 315.941 303.671Z" fill="#2D2A26"/>
<path d="M294.465 327.659C293.696 329.493 293.018 331.384 292.953 333.425C296.42 335.031 299.461 332.579 300.782 329.445C300.321 328.682 299.883 327.945 299.422 327.182C297.754 326.721 296.008 326.856 294.465 327.659ZM298.805 329.198C298.192 330.107 297.506 331.034 296.798 331.934C295.36 330.266 296.529 328.01 298.805 329.198Z" fill="#2D2A26"/>
<path d="M286.428 336.051C286.141 338.674 286.783 341.668 289.02 343.287C293.816 342.458 295.772 336.058 291.55 333.228C289.747 333.719 286.949 333.761 286.428 336.051ZM287.561 338.149C288.508 338.329 289.429 338.531 290.376 338.711C290.984 338.38 291.567 338.07 292.175 337.738C292.031 338.52 291.888 339.302 291.744 340.084C291.379 340.389 290.611 340.899 290.272 341.182C289.034 340.495 288.273 339.32 287.561 338.149Z" fill="#2D2A26"/>
<path d="M272.014 330.346C272.948 331.994 273.664 334.706 275.958 334.644C278.617 334.277 281.341 332.928 282.392 330.372C280.464 325.892 273.796 325.592 272.014 330.346ZM276.311 328.655C277.084 328.627 277.883 328.577 278.661 328.502C279.043 328.8 279.738 329.367 280.073 329.662C279.66 331.022 278.7 332.045 277.744 333.02C277.687 332.052 277.653 331.11 277.644 330.146C277.188 329.6 276.749 329.127 276.289 328.629L276.311 328.655Z" fill="#2D2A26"/>
<path d="M260.004 356.182C258.023 359.426 260.081 362.738 263.061 364.398C263.865 364.036 264.669 363.673 265.473 363.311C266.103 361.681 266.211 359.957 265.543 358.309C263.822 357.362 262.002 356.455 260.004 356.182ZM261.011 360.196C262.884 358.941 264.969 360.377 263.5 362.487C262.675 361.763 261.828 361.014 261.011 360.196Z" fill="#2D2A26"/>
<path d="M250.634 351.164C250.912 356.053 257.032 358.664 260.369 354.817C260.083 352.938 260.335 350.167 258.163 349.421C255.565 348.855 252.555 349.118 250.634 351.164ZM252.572 352.636C253.401 351.457 254.657 350.893 255.917 350.282C255.617 351.195 255.317 352.108 254.996 352.994C255.247 353.667 255.482 354.265 255.738 354.89C254.987 354.679 254.24 354.42 253.466 354.183C253.262 353.78 252.78 352.991 252.55 352.61L252.572 352.636Z" fill="#2D2A26"/>
<path d="M260.779 339.202C260.826 341.855 261.843 344.714 264.249 346.058C268.906 344.64 270.036 338.046 265.501 335.743C263.751 336.455 260.992 336.861 260.779 339.202ZM262.169 341.131C263.125 341.215 264.085 341.252 265.014 341.358C265.557 340.949 266.122 340.565 266.687 340.182C266.639 340.972 266.591 341.762 266.543 342.553C266.204 342.836 265.544 343.476 265.201 343.807C263.924 343.285 263.011 342.193 262.143 341.153L262.169 341.131Z" fill="#2D2A26"/>
</g>
<defs>
<clipPath id="clip0_164_898">
<rect width="366.254" height="299.005" fill="white" transform="translate(229.472) rotate(50.1258)"/>
</clipPath>
</defs>
</svg>
