<svg width="420" height="425" viewBox="0 0 420 425" fill="none" xmlns="http://www.w3.org/2000/svg">
<g filter="url(#filter0_d_221_996)">
<g clip-path="url(#clip0_221_996)">
<rect x="97.667" y="5.62561" width="336" height="336" rx="52" transform="rotate(16.787 97.667 5.62561)" fill="white"/>
<rect x="97.667" y="5.62561" width="336" height="336" rx="52" transform="rotate(16.787 97.667 5.62561)" fill="white"/>
<rect x="97.667" y="5.62561" width="336" height="336" rx="52" transform="rotate(16.787 97.667 5.62561)" fill="white"/>
<rect x="97.667" y="5.62561" width="336" height="336" rx="52" transform="rotate(16.787 97.667 5.62561)" fill="white"/>
<circle cx="97.6672" cy="5.62566" r="19" transform="rotate(16.787 97.6672 5.62566)" fill="#1B74E4"/>
<rect x="105.69" y="20.58" width="312" height="312" rx="44" transform="rotate(16.787 105.69 20.58)" stroke="black" stroke-width="4"/>
<path d="M290.781 130.731L189.428 100.156C173.391 95.3178 156.642 104.437 151.853 120.314L121.326 221.507C116.488 237.544 125.608 254.292 141.484 259.082L160.087 264.694L177.552 206.8L160.392 201.624L171.987 173.628L186.42 177.982L190.823 163.389C196.87 143.342 217.905 132.192 237.791 138.191L259.441 144.722L250.733 173.588L229.083 167.057C225.074 165.848 220.899 168.087 219.689 172.097L215.287 186.69L244.153 195.398L232.559 223.394L206.418 215.508L188.954 273.402L242.677 289.608C258.714 294.446 275.463 285.327 280.252 269.45L310.779 168.257C315.617 152.22 306.497 135.472 290.621 130.683L290.781 130.731Z" fill="black"/>
<path d="M116.88 295.278L124.6 297.607L123.699 300.594L115.979 298.265L116.88 295.278ZM114.487 304.207L110.764 303.084L115.617 287L127.771 290.667L126.87 293.654L118.438 291.11L114.487 304.207ZM122.652 306.671L134.673 292.749L138.35 293.858L140.689 312.112L136.783 310.933L135.185 294.959L136.655 295.403L126.467 307.821L122.652 306.671ZM127.276 304.305L129.117 301.777L137.389 304.272L137.547 307.404L127.276 304.305ZM149.748 315.145C148.507 314.771 147.411 314.223 146.459 313.501C145.526 312.769 144.783 311.909 144.228 310.923C143.673 309.937 143.326 308.871 143.187 307.726C143.063 306.586 143.184 305.411 143.549 304.201C143.914 302.99 144.463 301.944 145.197 301.063C145.946 300.186 146.825 299.49 147.833 298.975C148.856 298.465 149.956 298.17 151.133 298.09C152.314 297.996 153.533 298.138 154.789 298.517C156.183 298.937 157.365 299.561 158.336 300.389C159.326 301.206 160.063 302.197 160.547 303.362L157.492 304.847C157.13 304.053 156.658 303.401 156.077 302.891C155.5 302.366 154.813 301.983 154.017 301.743C153.266 301.517 152.54 301.431 151.838 301.487C151.136 301.542 150.486 301.731 149.888 302.052C149.289 302.373 148.765 302.808 148.315 303.357C147.881 303.911 147.548 304.571 147.317 305.337C147.086 306.103 146.998 306.837 147.054 307.539C147.125 308.246 147.321 308.898 147.642 309.496C147.963 310.094 148.4 310.611 148.954 311.045C149.508 311.48 150.161 311.81 150.911 312.037C151.708 312.277 152.489 312.346 153.256 312.243C154.027 312.124 154.785 311.827 155.531 311.35L157.255 314.276C156.207 314.98 155.042 315.406 153.761 315.554C152.495 315.707 151.157 315.57 149.748 315.145ZM165.306 309.059L173.05 311.395L172.176 314.29L164.433 311.955L165.306 309.059ZM163.586 315.76L172.34 318.401L171.439 321.388L158.985 317.631L163.837 301.547L175.992 305.214L175.091 308.201L166.636 305.65L163.586 315.76ZM174.401 322.281L179.253 306.197L187.111 308.568C189.133 309.178 190.534 310.018 191.314 311.089C192.109 312.165 192.317 313.331 191.938 314.587C191.684 315.429 191.256 316.102 190.653 316.605C190.054 317.093 189.344 317.397 188.522 317.517C187.701 317.637 186.823 317.556 185.888 317.274L186.609 316.464C187.62 316.769 188.465 317.207 189.145 317.78C189.829 318.337 190.289 319.002 190.524 319.775C190.774 320.553 190.758 321.408 190.476 322.343C190.06 323.721 189.19 324.637 187.867 325.091C186.549 325.528 184.832 325.428 182.718 324.791L174.401 322.281ZM178.946 320.594L183.288 321.904C184.253 322.195 185.027 322.262 185.61 322.103C186.212 321.934 186.618 321.505 186.826 320.815C187.029 320.141 186.926 319.567 186.518 319.093C186.129 318.608 185.453 318.22 184.487 317.929L179.869 316.536L180.687 313.825L184.662 315.024C185.566 315.296 186.301 315.351 186.869 315.188C187.456 315.014 187.846 314.606 188.041 313.962C188.23 313.334 188.126 312.793 187.728 312.339C187.35 311.874 186.71 311.505 185.806 311.233L182.106 310.117L178.946 320.594ZM199.699 330.214C198.428 329.831 197.311 329.268 196.348 328.526C195.4 327.789 194.642 326.925 194.071 325.934C193.517 324.948 193.17 323.882 193.03 322.737C192.906 321.597 193.025 320.429 193.385 319.235C193.746 318.04 194.293 317.002 195.027 316.12C195.776 315.243 196.662 314.549 197.685 314.039C198.708 313.529 199.818 313.229 201.015 313.138C202.212 313.048 203.439 313.193 204.695 313.572C205.966 313.955 207.068 314.513 208 315.246C208.948 315.983 209.699 316.844 210.254 317.831C210.824 318.821 211.178 319.889 211.318 321.034C211.461 322.164 211.351 323.334 210.986 324.544C210.625 325.739 210.068 326.783 209.314 327.675C208.565 328.552 207.679 329.246 206.656 329.756C205.653 330.255 204.553 330.55 203.356 330.64C202.174 330.735 200.955 330.593 199.699 330.214ZM200.633 327.036C201.353 327.254 202.048 327.33 202.72 327.265C203.406 327.205 204.049 327.014 204.647 326.693C205.245 326.372 205.762 325.935 206.196 325.381C206.646 324.831 206.986 324.173 207.217 323.407C207.449 322.642 207.529 321.905 207.458 321.199C207.402 320.497 207.214 319.847 206.893 319.248C206.587 318.655 206.165 318.143 205.626 317.713C205.087 317.283 204.458 316.96 203.738 316.743C203.018 316.525 202.315 316.447 201.628 316.507C200.957 316.572 200.322 316.765 199.724 317.086C199.126 317.407 198.602 317.842 198.152 318.391C197.717 318.945 197.385 319.605 197.153 320.371C196.927 321.122 196.839 321.856 196.89 322.573C196.961 323.28 197.15 323.93 197.455 324.523C197.776 325.122 198.206 325.636 198.745 326.066C199.283 326.496 199.913 326.819 200.633 327.036ZM219.086 336.063C217.815 335.679 216.698 335.116 215.735 334.375C214.787 333.638 214.029 332.774 213.459 331.783C212.904 330.797 212.557 329.731 212.417 328.586C212.294 327.446 212.412 326.278 212.772 325.083C213.133 323.888 213.68 322.85 214.414 321.968C215.163 321.091 216.049 320.398 217.072 319.888C218.095 319.377 219.205 319.077 220.402 318.987C221.599 318.897 222.826 319.041 224.082 319.42C225.353 319.804 226.455 320.362 227.387 321.094C228.335 321.831 229.086 322.693 229.641 323.679C230.211 324.67 230.565 325.738 230.705 326.883C230.848 328.013 230.738 329.183 230.373 330.393C230.012 331.587 229.455 332.631 228.701 333.523C227.952 334.4 227.066 335.094 226.043 335.604C225.04 336.104 223.94 336.399 222.743 336.489C221.561 336.584 220.342 336.442 219.086 336.063ZM220.02 332.885C220.74 333.102 221.435 333.178 222.107 333.113C222.793 333.053 223.436 332.862 224.034 332.542C224.632 332.221 225.149 331.783 225.583 331.229C226.033 330.68 226.373 330.022 226.605 329.256C226.836 328.49 226.916 327.754 226.845 327.047C226.789 326.345 226.601 325.695 226.28 325.097C225.974 324.503 225.552 323.992 225.013 323.562C224.475 323.132 223.845 322.808 223.125 322.591C222.405 322.374 221.702 322.295 221.015 322.356C220.344 322.42 219.709 322.613 219.111 322.934C218.513 323.255 217.989 323.69 217.539 324.24C217.104 324.794 216.772 325.454 216.541 326.22C216.314 326.97 216.226 327.704 216.277 328.422C216.348 329.128 216.537 329.778 216.842 330.372C217.163 330.97 217.593 331.484 218.132 331.914C218.671 332.344 219.3 332.668 220.02 332.885ZM235.185 336.607L236.274 332.248L246.419 326.459L250.555 327.707L241.363 333.081L238.629 334.663L235.185 336.607ZM230.744 339.279L235.596 323.195L239.296 324.311L234.444 340.395L230.744 339.279ZM241.75 342.599L238.143 333.865L241.376 331.957L246.093 343.909L241.75 342.599Z" fill="black"/>
</g>
</g>
<defs>
<filter id="filter0_d_221_996" x="-3.37451" y="0.62561" width="430.723" height="430.723" filterUnits="userSpaceOnUse" color-interpolation-filters="sRGB">
<feFlood flood-opacity="0" result="BackgroundImageFix"/>
<feColorMatrix in="SourceAlpha" type="matrix" values="0 0 0 0 0 0 0 0 0 0 0 0 0 0 0 0 0 0 127 0" result="hardAlpha"/>
<feOffset dx="2" dy="1"/>
<feGaussianBlur stdDeviation="3"/>
<feComposite in2="hardAlpha" operator="out"/>
<feColorMatrix type="matrix" values="0 0 0 0 0 0 0 0 0 0 0 0 0 0 0 0 0 0 0.2 0"/>
<feBlend mode="normal" in2="BackgroundImageFix" result="effect1_dropShadow_221_996"/>
<feBlend mode="normal" in="SourceGraphic" in2="effect1_dropShadow_221_996" result="shape"/>
</filter>
<clipPath id="clip0_221_996">
<rect x="97.667" y="5.62561" width="336" height="336" rx="56" transform="rotate(16.787 97.667 5.62561)" fill="white"/>
</clipPath>
</defs>
</svg>
