<svg width="54" height="43" viewBox="0 0 54 43" fill="none" xmlns="http://www.w3.org/2000/svg">
<path d="M1 23.6202C1 25.6102 2.61 27.2202 4.59 27.2202H7.66C5.68 27.2202 4.07 28.8302 4.07 30.8102C4.07 32.8002 5.68 34.4102 7.66 34.4102H11.64C9.65 34.4102 8.05 36.0202 8.05 38.0002C8.05 39.9802 9.65 41.5902 11.62 41.5902H11.64L36.5 41.5502C45.53 41.5102 52.81 34.1702 52.77 25.1402C52.75 21.4302 51.51 18.0302 49.41 15.2902C47.32 12.5702 44.39 10.5102 41 9.53017C37.38 8.48017 33.98 6.79017 31.14 4.31017L28.56 2.04017C26.72 0.480167 23.99 0.700166 22.42 2.53017C21.14 4.04017 21.07 6.17017 22.1 7.74017C22.32 8.08017 22.58 8.39017 22.91 8.67017L27.73 12.8402H8.67C6.68 12.8402 5.08 14.4502 5.08 16.4302C5.08 18.4202 6.68 20.0302 8.67 20.0302H4.59C2.61 20.0302 1 21.6402 1 23.6202Z" fill="#FFE5B1" stroke="black" stroke-width="1.25" stroke-linecap="round" stroke-linejoin="round"/>
<path d="M22.8899 20.0302H8.66992" stroke="black" stroke-width="1.25" stroke-linecap="round" stroke-linejoin="round"/>
<path d="M27.74 12.8402H27.73" stroke="black" stroke-width="1.25" stroke-linecap="round" stroke-linejoin="round"/>
<path d="M21.2102 27.2202H7.66016" stroke="black" stroke-width="1.25" stroke-linecap="round" stroke-linejoin="round"/>
<path d="M24.5101 34.4102H11.6401" stroke="black" stroke-width="1.25" stroke-linecap="round" stroke-linejoin="round"/>
<path d="M27.73 12.8402H27.74L31.93 16.4702C31.93 16.4702 26.96 24.6502 35.38 29.4402" fill="#FFE5B1"/>
<path d="M27.73 12.8402H27.74L31.93 16.4702C31.93 16.4702 26.96 24.6502 35.38 29.4402" stroke="black" stroke-width="1.25" stroke-linecap="round" stroke-linejoin="round"/>
</svg>
