<svg width="54" height="43" viewBox="0 0 54 43" fill="none" xmlns="http://www.w3.org/2000/svg">
<path d="M52.7702 23.6202C52.7702 25.6102 51.1602 27.2202 49.1802 27.2202H46.1102C48.0902 27.2202 49.7002 28.8302 49.7002 30.8102C49.7002 32.8002 48.0902 34.4102 46.1102 34.4102H42.1302C44.1202 34.4102 45.7202 36.0202 45.7202 38.0002C45.7202 39.9802 44.1202 41.5902 42.1502 41.5902H42.1302L17.2702 41.5502C8.24016 41.5102 0.960164 34.1702 1.00016 25.1402C1.02016 21.4302 2.26016 18.0302 4.36016 15.2902C6.45016 12.5702 9.38016 10.5102 12.7702 9.53017C16.3902 8.48017 19.7902 6.79017 22.6302 4.31017L25.2102 2.04017C27.0502 0.480167 29.7802 0.700166 31.3502 2.53017C32.6302 4.04017 32.7002 6.17017 31.6702 7.74017C31.4502 8.08017 31.1902 8.39017 30.8602 8.67017L26.0402 12.8402H45.1002C47.0902 12.8402 48.6902 14.4502 48.6902 16.4302C48.6902 18.4202 47.0902 20.0302 45.1002 20.0302H49.1802C51.1602 20.0302 52.7702 21.6402 52.7702 23.6202Z" fill="#FFE5B1" stroke="black" stroke-width="1.25" stroke-linecap="round" stroke-linejoin="round"/>
<path d="M45.1004 20.0302H30.8804" stroke="black" stroke-width="1.25" stroke-linecap="round" stroke-linejoin="round"/>
<path d="M26.0403 12.8402H26.0303" stroke="black" stroke-width="1.25" stroke-linecap="round" stroke-linejoin="round"/>
<path d="M46.1101 27.2202H32.5601" stroke="black" stroke-width="1.25" stroke-linecap="round" stroke-linejoin="round"/>
<path d="M42.1302 34.4102H29.2603" stroke="black" stroke-width="1.25" stroke-linecap="round" stroke-linejoin="round"/>
<path d="M18.3901 29.4402C26.8101 24.6502 21.8401 16.4702 21.8401 16.4702L26.0301 12.8402H26.0401" fill="#FFE5B1"/>
<path d="M18.3901 29.4402C26.8101 24.6502 21.8401 16.4702 21.8401 16.4702L26.0301 12.8402H26.0401" stroke="black" stroke-width="1.25" stroke-linecap="round" stroke-linejoin="round"/>
</svg>
