<svg width="251" height="251" viewBox="0 0 251 251" fill="none" xmlns="http://www.w3.org/2000/svg">
<g filter="url(#filter0_d_450_7936)">
<path d="M136.202 245.364C69.5664 252.367 9.66773 203.836 2.66407 137.201C-4.33958 70.5653 44.1629 10.6697 110.798 3.666C177.434 -3.33766 237.329 45.1648 244.333 111.8C251.337 178.436 202.834 238.331 136.199 245.335L136.202 245.364Z" fill="white"/>
<path d="M134.907 233.043C194.853 226.743 238.342 173.039 232.041 113.092C225.741 53.1458 172.037 9.65728 112.09 15.9579C52.1437 22.2585 8.65515 75.9624 14.9558 135.909C21.2564 195.855 74.9603 239.344 134.907 233.043Z" stroke="#1D1D1B" stroke-miterlimit="10"/>
<path d="M90.9769 164.299L89.7213 152.352L90.2397 152.789L85.3041 153.308L85.1332 151.682L95.9205 150.548L96.0914 152.174L91.1558 152.693L91.5534 152.16L92.809 164.106L90.9769 164.299ZM105.29 162.946C104.293 163.05 103.347 162.98 102.452 162.734C101.569 162.486 100.784 162.096 100.098 161.563C99.4109 161.018 98.8501 160.359 98.416 159.585C97.9819 158.812 97.7144 157.945 97.6135 156.985C97.5126 156.026 97.5941 155.123 97.858 154.276C98.1218 153.429 98.5339 152.674 99.0942 152.01C99.6532 151.334 100.339 150.783 101.151 150.357C101.963 149.932 102.874 149.666 103.883 149.56C104.881 149.455 105.814 149.527 106.685 149.776C107.566 150.01 108.351 150.401 109.038 150.946C109.737 151.477 110.297 152.13 110.718 152.905C111.153 153.679 111.421 154.551 111.523 155.524C111.625 156.496 111.544 157.405 111.28 158.252C111.029 159.098 110.618 159.859 110.046 160.537C109.486 161.2 108.8 161.745 107.988 162.171C107.187 162.582 106.287 162.841 105.29 162.946ZM105.115 161.282C105.838 161.206 106.492 161.011 107.077 160.697C107.674 160.383 108.173 159.977 108.574 159.482C108.987 158.972 109.286 158.399 109.471 157.762C109.669 157.124 109.729 156.443 109.653 155.72C109.577 154.997 109.376 154.344 109.051 153.761C108.737 153.176 108.326 152.684 107.818 152.284C107.321 151.87 106.747 151.571 106.098 151.387C105.461 151.202 104.781 151.148 104.058 151.223C103.323 151.301 102.657 151.497 102.06 151.812C101.475 152.125 100.977 152.537 100.564 153.046C100.15 153.543 99.8443 154.111 99.6467 154.749C99.4616 155.386 99.4071 156.066 99.4831 156.789C99.559 157.512 99.7538 158.166 100.067 158.75C100.393 159.333 100.811 159.831 101.321 160.244C101.829 160.644 102.401 160.937 103.038 161.122C103.688 161.306 104.38 161.359 105.115 161.282ZM123.243 147.676L125.112 147.48L126.488 160.566L124.618 160.763L123.243 147.676ZM117.102 161.553L115.233 161.749L113.857 148.663L115.727 148.466L117.102 161.553ZM124.173 154.912L116.302 155.739L116.131 154.113L124.002 153.286L124.173 154.912ZM128.204 162.276L132.523 144.017L134.149 143.846L129.831 162.105L128.204 162.276ZM137.142 159.447L135.766 146.36L137.299 146.199L144.209 155.472L143.386 155.558L148.143 145.059L149.676 144.898L151.07 157.983L149.275 158.171L148.178 147.91L148.607 147.864L144.359 157.081L143.499 157.172L137.39 149.043L137.858 148.994L138.936 159.258L137.142 159.447ZM155.143 157.555L153.768 144.468L155.619 144.273L156.994 157.36L155.143 157.555ZM166.944 156.465C165.947 156.57 165.008 156.505 164.126 156.27C163.256 156.021 162.478 155.631 161.792 155.098C161.117 154.551 160.562 153.891 160.128 153.118C159.694 152.344 159.426 151.472 159.324 150.5C159.221 149.527 159.302 148.618 159.566 147.771C159.83 146.924 160.242 146.169 160.802 145.505C161.361 144.829 162.041 144.285 162.842 143.873C163.654 143.448 164.559 143.182 165.556 143.078C166.566 142.971 167.513 143.048 168.397 143.308C169.292 143.554 170.074 143.983 170.743 144.593L169.652 145.898C169.098 145.427 168.497 145.1 167.847 144.916C167.197 144.72 166.516 144.659 165.806 144.734C165.07 144.811 164.398 145.008 163.789 145.324C163.192 145.638 162.686 146.044 162.272 146.542C161.858 147.039 161.553 147.613 161.357 148.263C161.172 148.9 161.117 149.58 161.193 150.303C161.269 151.026 161.464 151.686 161.779 152.283C162.105 152.866 162.522 153.358 163.031 153.758C163.539 154.158 164.118 154.45 164.767 154.634C165.429 154.816 166.128 154.869 166.863 154.792C167.573 154.717 168.227 154.522 168.824 154.208C169.42 153.88 169.939 153.423 170.381 152.834L171.72 153.884C171.192 154.62 170.517 155.208 169.694 155.647C168.883 156.085 167.966 156.358 166.944 156.465Z" fill="black"/>
<path d="M77.2786 97.0327L81.5819 137.976L59.8765 140.257L57.8486 120.963L49.0431 121.889L47.4692 106.914L52.1391 106.026C56.6527 105.268 58.297 104.188 59.9479 98.8542L77.2786 97.0327ZM112.865 135.822C93.7391 137.832 84.07 130.002 82.8262 118.168L82.614 116.149C81.3701 104.315 89.2 94.6456 108.325 92.6354C127.507 90.6193 137.176 98.4492 138.42 110.283L138.632 112.303C139.876 124.137 132.046 133.806 112.865 135.822ZM111.155 119.557C115.137 119.138 116.894 116.969 116.564 113.828L116.517 113.379C116.186 110.239 114.017 108.482 110.035 108.9C106.053 109.319 104.296 111.488 104.626 114.629L104.673 115.078C105.004 118.219 107.173 119.975 111.155 119.557ZM171.032 129.708C151.907 131.718 142.238 123.889 140.994 112.054L140.782 110.035C139.538 98.201 147.368 88.5319 166.493 86.5217C185.675 84.5057 195.344 92.3355 196.588 104.17L196.8 106.189C198.044 118.023 190.214 127.692 171.032 129.708ZM169.323 113.443C173.305 113.025 175.061 110.855 174.731 107.714L174.684 107.266C174.354 104.125 172.185 102.368 168.203 102.787C164.221 103.205 162.464 105.375 162.794 108.515L162.841 108.964C163.171 112.105 165.341 113.862 169.323 113.443Z" fill="black"/>
</g>
<defs>
<filter id="filter0_d_450_7936" x="0.991577" y="0.993164" width="249.014" height="249.043" filterUnits="userSpaceOnUse" color-interpolation-filters="sRGB">
<feFlood flood-opacity="0" result="BackgroundImageFix"/>
<feColorMatrix in="SourceAlpha" type="matrix" values="0 0 0 0 0 0 0 0 0 0 0 0 0 0 0 0 0 0 127 0" result="hardAlpha"/>
<feOffset dx="2" dy="1"/>
<feGaussianBlur stdDeviation="1.5"/>
<feComposite in2="hardAlpha" operator="out"/>
<feColorMatrix type="matrix" values="0 0 0 0 0 0 0 0 0 0 0 0 0 0 0 0 0 0 0.2 0"/>
<feBlend mode="normal" in2="BackgroundImageFix" result="effect1_dropShadow_450_7936"/>
<feBlend mode="normal" in="SourceGraphic" in2="effect1_dropShadow_450_7936" result="shape"/>
</filter>
</defs>
</svg>
