<svg width="317" height="258" viewBox="0 0 317 258" fill="none" xmlns="http://www.w3.org/2000/svg">
<g filter="url(#filter0_d_450_7938)">
<path d="M150.838 234.68C72.7193 229.204 12.509 177.338 16.5938 119.07C20.6785 60.8013 87.5361 17.8435 165.655 23.3198C243.773 28.7961 303.983 80.6615 299.899 138.93C295.814 197.199 228.956 240.156 150.838 234.68Z" fill="white"/>
<path d="M151.531 224.779C224.282 229.879 286.265 191.131 289.973 138.234C293.681 85.3375 237.711 38.3217 164.96 33.2217C92.2089 28.1217 30.2265 66.8688 26.5183 119.766C22.8101 172.663 78.7804 219.679 151.531 224.779Z" stroke="#1D1D1B" stroke-linecap="round" stroke-linejoin="round"/>
<path d="M170.218 166.971L137.904 164.706" stroke="#1D1D1B" stroke-width="2" stroke-miterlimit="10"/>
<path d="M96.7822 161.822L94.6854 161.675C92.3323 161.51 90.5325 159.464 90.6991 157.087L92.8011 127.103L105.776 101.322C107.464 97.9519 110.999 95.9521 114.75 96.2151L133.109 97.5021L130.007 141.745L216.001 147.773C219.542 148.022 222.228 151.113 221.98 154.654L221.319 164.09C221.069 167.655 217.979 170.318 214.438 170.07L211.968 169.897" stroke="#1D1D1B" stroke-width="2" stroke-miterlimit="10"/>
<path d="M177.461 168.182C176.937 175.66 182.57 182.143 190.048 182.667C197.527 183.191 204.009 177.558 204.533 170.08C205.058 162.601 199.425 156.119 191.946 155.594C184.467 155.07 177.985 160.703 177.461 168.182Z" stroke="#1D1D1B" stroke-width="2" stroke-miterlimit="10"/>
<path d="M102.487 162.926C101.963 170.405 107.596 176.887 115.075 177.411C122.553 177.935 129.035 172.302 129.56 164.824C130.084 157.345 124.451 150.863 116.972 150.339C109.494 149.814 103.012 155.447 102.487 162.926Z" stroke="#1D1D1B" stroke-width="2" stroke-miterlimit="10"/>
<path d="M119.319 137.578L119.056 141.329" stroke="#1D1D1B" stroke-width="2" stroke-miterlimit="10"/>
<path d="M113.005 106.747L116.5 106.992C119.226 107.183 121.307 109.553 121.114 112.302L120.291 124.044C120.099 126.793 117.73 128.852 114.981 128.659L102.493 127.783" stroke="#1D1D1B" stroke-width="2" stroke-miterlimit="10"/>
<path d="M92.0463 138.195L101.109 138.831C103.556 139.002 105.397 141.121 105.226 143.568C105.088 145.525 103.684 147.182 101.76 147.586L91.2247 149.914" stroke="#1D1D1B" stroke-width="2" stroke-miterlimit="10"/>
<path d="M227.07 82.3866L143.057 76.4971L139.021 134.067L223.034 139.956L227.07 82.3866Z" stroke="#1D1D1B" stroke-width="2" stroke-miterlimit="10"/>
</g>
<defs>
<filter id="filter0_d_450_7938" x="15.3976" y="20.8496" width="289.697" height="218.301" filterUnits="userSpaceOnUse" color-interpolation-filters="sRGB">
<feFlood flood-opacity="0" result="BackgroundImageFix"/>
<feColorMatrix in="SourceAlpha" type="matrix" values="0 0 0 0 0 0 0 0 0 0 0 0 0 0 0 0 0 0 127 0" result="hardAlpha"/>
<feOffset dx="2" dy="1"/>
<feGaussianBlur stdDeviation="1.5"/>
<feComposite in2="hardAlpha" operator="out"/>
<feColorMatrix type="matrix" values="0 0 0 0 0 0 0 0 0 0 0 0 0 0 0 0 0 0 0.2 0"/>
<feBlend mode="normal" in2="BackgroundImageFix" result="effect1_dropShadow_450_7938"/>
<feBlend mode="normal" in="SourceGraphic" in2="effect1_dropShadow_450_7938" result="shape"/>
</filter>
</defs>
</svg>
