<svg width="404" height="400" viewBox="0 0 404 400" fill="none" xmlns="http://www.w3.org/2000/svg">
<g filter="url(#filter0_d_221_958)">
<g clip-path="url(#clip0_221_958)">
<rect x="4" y="70.7931" width="336" height="336" rx="52" transform="rotate(-12.163 4 70.7931)" fill="white"/>
<rect x="4" y="70.7931" width="336" height="336" rx="52" transform="rotate(-12.163 4 70.7931)" fill="white"/>
<rect x="4" y="70.7931" width="336" height="336" rx="52" transform="rotate(-12.163 4 70.7931)" fill="white"/>
<rect x="4" y="70.7931" width="336" height="336" rx="52" transform="rotate(-12.163 4 70.7931)" fill="white"/>
<circle cx="4.00001" cy="70.7931" r="19" transform="rotate(-12.163 4.00001 70.7931)" fill="url(#paint0_linear_221_958)"/>
<rect x="18.2588" y="79.9954" width="312" height="312" rx="44" transform="rotate(-12.163 18.2588 79.9954)" stroke="black" stroke-width="4"/>
<rect x="99.7334" y="111.537" width="166" height="166" rx="36" transform="rotate(-12.163 99.7334 111.537)" stroke="black" stroke-width="15"/>
<circle cx="198.358" cy="175.186" r="33.3804" transform="rotate(-12.163 198.358 175.186)" stroke="black" stroke-width="15"/>
<circle cx="236.409" cy="116.226" r="8.11957" transform="rotate(-12.163 236.409 116.226)" fill="black"/>
<path d="M154.282 321.763L150.742 305.34L154.543 304.521L158.083 320.944L154.282 321.763ZM161.98 320.104L158.441 303.681L161.584 303.004L173.823 312.74L172.298 313.068L169.749 301.244L173.503 300.435L177.042 316.858L173.922 317.53L161.661 307.799L163.186 307.471L165.734 319.295L161.98 320.104ZM186.385 315.139C185.071 315.422 183.775 315.521 182.496 315.437C181.214 315.337 180.145 315.084 179.289 314.68L179.962 311.539C180.774 311.888 181.692 312.124 182.717 312.247C183.754 312.35 184.766 312.296 185.751 312.084C186.502 311.922 187.089 311.722 187.512 311.483C187.947 311.226 188.246 310.94 188.408 310.627C188.569 310.314 188.613 309.986 188.539 309.641C188.445 309.204 188.198 308.897 187.8 308.72C187.399 308.529 186.9 308.415 186.303 308.38C185.703 308.33 185.044 308.308 184.325 308.316C183.619 308.304 182.898 308.263 182.162 308.192C181.443 308.118 180.764 307.97 180.127 307.747C179.49 307.525 178.931 307.17 178.45 306.685C177.984 306.196 177.657 305.514 177.468 304.638C177.266 303.699 177.332 302.793 177.668 301.919C178.015 301.025 178.649 300.242 179.567 299.57C180.499 298.878 181.738 298.365 183.287 298.031C184.319 297.809 185.363 297.715 186.418 297.749C187.469 297.768 188.431 297.938 189.301 298.257L188.75 301.396C187.89 301.123 187.054 300.968 186.244 300.929C185.43 300.876 184.656 300.928 183.921 301.086C183.186 301.245 182.602 301.461 182.17 301.734C181.738 302.007 181.45 302.306 181.308 302.632C181.162 302.941 181.127 303.276 181.205 303.636C181.296 304.058 181.542 304.365 181.944 304.557C182.342 304.733 182.839 304.839 183.436 304.874C184.033 304.909 184.684 304.932 185.39 304.943C186.112 304.951 186.831 304.985 187.548 305.043C188.28 305.098 188.964 305.237 189.602 305.46C190.239 305.682 190.79 306.038 191.256 306.527C191.737 307.013 192.07 307.686 192.256 308.546C192.454 309.469 192.378 310.369 192.027 311.247C191.676 312.124 191.035 312.909 190.104 313.601C189.189 314.289 187.949 314.802 186.385 315.139ZM199.062 312.112L196.19 298.786L190.934 299.918L190.267 296.822L204.578 293.737L205.246 296.834L199.99 297.967L202.863 311.293L199.062 312.112ZM207.18 310.362L210.96 292.362L214.714 291.553L225.597 306.393L221.608 307.252L212.477 294.048L213.979 293.724L211.074 309.523L207.18 310.362ZM210.081 306.054L210.468 302.951L218.914 301.131L220.568 303.794L210.081 306.054ZM235.062 304.647C233.764 304.927 232.524 304.982 231.341 304.811C230.171 304.621 229.096 304.231 228.118 303.64C227.155 303.045 226.336 302.281 225.66 301.346C224.999 300.408 224.536 299.322 224.269 298.086C224.003 296.85 223.978 295.669 224.193 294.542C224.424 293.412 224.864 292.376 225.512 291.435C226.16 290.493 226.988 289.701 227.995 289.058C228.999 288.4 230.158 287.929 231.472 287.646C232.926 287.333 234.284 287.294 235.546 287.529C236.824 287.761 237.961 288.252 238.958 289.003L237.003 291.781C236.274 291.284 235.525 290.962 234.757 290.817C233.986 290.656 233.186 290.665 232.357 290.843C231.559 291.015 230.859 291.297 230.256 291.689C229.653 292.081 229.16 292.564 228.776 293.137C228.408 293.708 228.16 294.342 228.032 295.041C227.92 295.736 227.949 296.475 228.117 297.257C228.282 298.023 228.559 298.7 228.948 299.287C229.352 299.871 229.841 300.355 230.414 300.739C231 301.103 231.641 301.342 232.336 301.454C233.047 301.563 233.793 301.533 234.575 301.364C235.326 301.202 236.028 300.928 236.682 300.542C237.347 300.137 237.954 299.572 238.502 298.848L241.252 301.128C240.505 301.993 239.576 302.733 238.465 303.349C237.369 303.962 236.235 304.394 235.062 304.647ZM237.673 301.384L236.343 295.214L239.816 294.465L241.252 301.128L237.673 301.384ZM245.172 302.174L241.632 285.751L248.741 284.219C250.211 283.902 251.53 283.871 252.698 284.127C253.863 284.367 254.831 284.87 255.601 285.637C256.372 286.404 256.891 287.405 257.157 288.641C257.42 289.861 257.358 290.979 256.972 291.995C256.582 292.996 255.906 293.845 254.943 294.544C253.981 295.242 252.764 295.75 251.294 296.067L246.297 297.144L247.627 295.114L248.972 301.355L245.172 302.174ZM255.612 299.923L250.222 294.849L254.28 293.974L259.718 299.039L255.612 299.923ZM247.718 295.536L245.645 294.117L250.431 293.086C251.604 292.833 252.426 292.394 252.897 291.768C253.364 291.128 253.502 290.361 253.31 289.47C253.114 288.563 252.673 287.921 251.986 287.545C251.3 287.17 250.37 287.108 249.197 287.361L244.411 288.393L245.711 286.222L247.718 295.536ZM260.265 298.92L264.046 280.92L267.799 280.111L278.682 294.951L274.694 295.811L265.563 282.606L267.064 282.282L264.16 298.081L260.265 298.92ZM263.167 294.612L263.554 291.509L272 289.689L273.654 292.352L263.167 294.612ZM280.386 294.584L276.847 278.161L279.99 277.483L289.48 287.566L287.814 287.925L292.19 274.854L295.311 274.181L298.897 290.594L295.331 291.363L292.946 280.411L293.603 280.27L290.1 290.673L288.388 291.042L280.793 283.031L281.591 282.859L283.952 293.815L280.386 294.584Z" fill="black"/>
</g>
</g>
<defs>
<filter id="filter0_d_221_958" x="0" y="-5" width="411.25" height="411.251" filterUnits="userSpaceOnUse" color-interpolation-filters="sRGB">
<feFlood flood-opacity="0" result="BackgroundImageFix"/>
<feColorMatrix in="SourceAlpha" type="matrix" values="0 0 0 0 0 0 0 0 0 0 0 0 0 0 0 0 0 0 127 0" result="hardAlpha"/>
<feOffset dx="2" dy="1"/>
<feGaussianBlur stdDeviation="3"/>
<feComposite in2="hardAlpha" operator="out"/>
<feColorMatrix type="matrix" values="0 0 0 0 0 0 0 0 0 0 0 0 0 0 0 0 0 0 0.2 0"/>
<feBlend mode="normal" in2="BackgroundImageFix" result="effect1_dropShadow_221_958"/>
<feBlend mode="normal" in="SourceGraphic" in2="effect1_dropShadow_221_958" result="shape"/>
</filter>
<linearGradient id="paint0_linear_221_958" x1="-15" y1="51.7931" x2="22.0281" y2="95.0527" gradientUnits="userSpaceOnUse">
<stop stop-color="#D9D9D9"/>
<stop offset="0.0001" stop-color="#7300E4"/>
<stop offset="0.455965" stop-color="#E300A4"/>
<stop offset="0.950031" stop-color="#FFF500"/>
</linearGradient>
<clipPath id="clip0_221_958">
<rect x="4" y="70.7931" width="336" height="336" rx="56" transform="rotate(-12.163 4 70.7931)" fill="white"/>
</clipPath>
</defs>
</svg>
