<svg width="292" height="297" viewBox="0 0 292 297" fill="none" xmlns="http://www.w3.org/2000/svg">
<ellipse cx="138.51" cy="180.148" rx="45.5104" ry="3.95743" fill="black"/>
<path d="M49.6777 199.178C48.9177 198.667 48.2739 198.001 47.7892 197.225C47.3045 196.448 46.9895 195.577 46.865 194.67C46.7404 193.763 46.8094 192.839 47.0667 191.961C47.3241 191.082 47.7643 190.268 48.3585 189.571C61.0567 174.579 77.3169 163.017 95.6469 155.946C96.4834 155.638 97.3743 155.504 98.2645 155.555C99.1548 155.606 100.025 155.839 100.821 156.24C101.618 156.642 102.322 157.203 102.892 157.889C103.462 158.575 103.885 159.371 104.134 160.227C104.611 161.809 104.467 163.513 103.732 164.993C102.997 166.472 101.726 167.616 100.177 168.191C83.9908 174.549 69.627 184.808 58.3638 198.058C57.3132 199.289 55.8422 200.086 54.2368 200.293C52.6313 200.5 51.0063 200.103 49.6777 199.178Z" fill="#FFD600" stroke="#2D2A26" stroke-width="1.65" stroke-miterlimit="10"/>
<path d="M30.9866 230.064C30.6282 230.159 30.2609 230.217 29.891 230.239C21.9267 230.786 10.9513 214.484 4.85355 192.532C-0.124164 174.289 -0.42273 157.688 3.70878 150.446C3.77596 150.352 3.83385 150.252 3.88256 150.147C4.7324 148.606 6.13947 147.449 7.81515 146.912C15.8542 144.672 27.5269 161.471 33.9233 184.443C40.3196 207.416 39.0007 227.824 30.9866 230.064Z" fill="white" stroke="#2D2A26" stroke-width="1.65" stroke-linecap="round" stroke-linejoin="round"/>
<path d="M39.8462 226.704C39.0271 227.931 37.7882 228.816 36.3621 229.193C34.2333 229.698 32.0703 230.048 29.8908 230.239C30.2607 230.217 30.628 230.159 30.9863 230.064C39.0005 227.825 40.3194 207.391 33.923 184.444C27.5267 161.496 15.8539 144.622 7.81492 146.912C6.13923 147.449 4.73217 148.606 3.88232 150.147C8.31249 141.809 12.967 138.873 17.2478 139.296C20.3091 139.644 21.4788 141.386 21.6033 143.278C21.7055 144.822 21.2653 146.354 20.3589 147.608C27.1783 152.86 34.5947 166.3 39.2489 182.951C44.5004 202.09 44.6746 220.134 39.8462 226.704Z" fill="white" stroke="#2D2A26" stroke-width="1.65" stroke-linecap="round" stroke-linejoin="round"/>
<path d="M62.2217 201.89C61.1515 203.782 58.2892 201.89 56.5719 206.121C54.3319 211.696 47.9101 224.514 39.8462 226.704C44.6746 220.134 44.5751 202.09 39.2489 182.951C34.5948 166.3 27.1784 152.86 20.3589 147.608C21.2654 146.354 21.7055 144.822 21.6033 143.278C35.2243 152.043 45.2612 165.391 49.9013 180.91C50.5666 183.109 51.1071 185.344 51.5194 187.604C51.5194 187.604 55.4265 186.858 56.6959 189.845C57.1954 191.624 57.0727 193.52 56.3477 195.22L58.8365 193.329C58.8365 193.329 64.4119 198.107 62.2217 201.89Z" fill="#93918F" stroke="#2D2A26" stroke-width="1.65" stroke-linecap="round" stroke-linejoin="round"/>
<path d="M55.6509 208.287C54.033 206.638 52.0594 205.381 49.8808 204.614C47.7022 203.846 45.3762 203.587 43.082 203.856" stroke="#2D2A26" stroke-width="1.65" stroke-linecap="round" stroke-linejoin="round"/>
<path d="M35.6402 155.224C36.0385 157.307 35.8223 159.46 35.018 161.422C34.6363 162.357 34.5486 163.388 34.7664 164.375C34.9843 165.362 35.4973 166.259 36.2375 166.947C39.3709 170.213 41.7125 174.156 43.0819 178.471C46.1681 186.649 47.7616 195.315 47.7862 204.056" stroke="#2D2A26" stroke-width="1.65" stroke-linecap="round" stroke-linejoin="round"/>
<path d="M61.3753 191.712L58.8864 193.329L56.3975 195.221C57.1226 193.521 57.2452 191.624 56.7457 189.845C55.4764 186.858 51.5693 187.605 51.5693 187.605C51.157 185.344 50.6165 183.109 49.9512 180.91C52.9627 177.824 54.4812 175.608 59.011 180.76C60.9227 182.831 62.268 185.36 62.918 188.102C63.0639 188.789 62.9943 189.505 62.7181 190.151C62.4419 190.797 61.9729 191.342 61.3753 191.712Z" fill="#93918F" stroke="#2D2A26" stroke-width="1.65" stroke-linecap="round" stroke-linejoin="round"/>
<path d="M52.3904 191.612C52.4659 191.474 52.5702 191.354 52.696 191.261C52.8219 191.167 52.9667 191.101 53.1202 191.068C53.2736 191.035 53.4323 191.036 53.5856 191.069C53.7389 191.103 53.883 191.169 54.0085 191.263C55.9498 192.756 55.3525 196.241 54.0085 198.107C53.0627 199.551 51.3703 200.97 51.5197 202.762C51.5483 203.121 51.5977 203.478 51.6685 203.832C51.8004 204.448 51.6941 205.091 51.3708 205.631C51.0475 206.172 50.5313 206.569 49.9264 206.744C49.5663 206.837 49.1899 206.849 48.8248 206.777C48.4597 206.706 48.1152 206.553 47.8167 206.331C47.5183 206.109 47.2737 205.823 47.1003 205.494C46.927 205.165 46.8295 204.801 46.8154 204.429C46.7643 202.677 47.2226 200.948 48.1345 199.452C49.0797 198.139 50.272 197.023 51.6442 196.166C52.175 195.814 52.5507 195.273 52.6942 194.652C52.8377 194.032 52.7377 193.38 52.4153 192.831C52.3053 192.652 52.2476 192.445 52.2476 192.234C52.2476 192.023 52.3053 191.817 52.4153 191.637L52.3904 191.612Z" fill="white" stroke="#2D2A26" stroke-width="1.65" stroke-linecap="round" stroke-linejoin="round"/>
<path d="M49.7276 209.382C49.2696 208.32 48.9028 207.221 48.632 206.097C48.6034 205.961 48.6033 205.82 48.6308 205.684C48.6584 205.548 48.7132 205.419 48.7925 205.305C48.8717 205.191 48.9734 205.093 49.0914 205.02C49.2094 204.946 49.341 204.898 49.4785 204.877C49.7282 204.84 49.9827 204.898 50.1906 205.042C50.3986 205.185 50.5443 205.402 50.5983 205.649C50.8421 206.652 51.1671 207.634 51.5693 208.585C51.6234 208.705 51.6532 208.834 51.6574 208.965C51.6617 209.095 51.6405 209.226 51.5942 209.349C51.548 209.471 51.4779 209.583 51.3883 209.679C51.2986 209.774 51.1905 209.851 51.0711 209.905C50.8235 210.013 50.5435 210.02 50.2915 209.922C50.0395 209.824 49.8367 209.629 49.7276 209.382Z" fill="white" stroke="#2D2A26" stroke-width="1.65" stroke-linecap="round" stroke-linejoin="round"/>
<path d="M55.0284 182.926C54.988 183.272 54.8753 183.605 54.6979 183.905C54.5204 184.204 54.2823 184.463 53.9985 184.665C53.7147 184.866 53.3913 185.006 53.05 185.075C52.7087 185.145 52.357 185.141 52.017 185.066C50.8085 184.911 49.6415 184.523 48.5821 183.921C48.7161 182.428 49.2879 181.009 50.2251 179.84C49.3789 177.699 48.4328 175.583 47.3875 173.518C47.0141 172.771 46.616 172.024 46.1929 171.302C47.4376 171.342 48.6529 171.694 49.7275 172.323C51.6439 173.568 56.0738 178.769 55.0284 182.926Z" fill="#6FCFEB" stroke="#2D2A26" stroke-width="1.65" stroke-miterlimit="10"/>
<path d="M52.6644 176.081C52.6468 176.425 52.5582 176.76 52.4043 177.067C52.2505 177.375 52.0348 177.647 51.7706 177.867C51.5064 178.086 51.1997 178.249 50.8695 178.345C50.5393 178.44 50.1924 178.466 49.8517 178.421C48.6263 178.357 47.4256 178.052 46.3177 177.524C46.3364 176.027 46.8047 174.571 47.6618 173.343C46.6718 171.251 45.5666 169.216 44.3514 167.246C43.9283 166.524 43.4802 165.827 43.0073 165.105C44.2534 165.083 45.4884 165.347 46.6167 165.877C48.6077 166.972 53.4111 171.85 52.6644 176.081Z" fill="#6FCFEB" stroke="#2D2A26" stroke-width="1.65" stroke-miterlimit="10"/>
<path d="M49.0557 169.187C49.0234 169.867 48.7267 170.507 48.2293 170.972C47.732 171.437 47.0731 171.69 46.3925 171.676C45.167 171.697 43.9494 171.477 42.8087 171.029C42.7236 169.537 43.0875 168.055 43.8538 166.773C42.7177 164.754 41.48 162.793 40.1454 160.899C39.6476 160.227 39.1745 159.53 38.6519 158.883C39.8958 158.755 41.1526 158.934 42.311 159.405C44.5012 160.376 49.4788 164.931 49.0557 169.187Z" fill="#6FCFEB" stroke="#2D2A26" stroke-width="1.65" stroke-miterlimit="10"/>
<path d="M59.7572 123.616C50.0125 123.51 40.6145 119.986 33.2013 113.661C28.9004 110.239 25.6423 105.682 23.7951 100.505C21.9479 95.3289 21.5853 89.7386 22.7482 84.3667C23.1079 82.7561 24.0929 81.3545 25.4862 80.47C26.8794 79.5855 28.5671 79.2906 30.1777 79.6503C31.7883 80.0101 33.1899 80.995 34.0744 82.3883C34.9589 83.7815 35.2533 85.4692 34.8935 87.0798C34.2371 90.2528 34.4919 93.5463 35.6281 96.5807C36.7644 99.6152 38.7359 102.266 41.315 104.228C48.4082 110.35 59.1103 112.889 66.2035 110.152C66.9667 109.859 67.78 109.72 68.597 109.741C69.414 109.763 70.2191 109.946 70.9656 110.279C71.712 110.611 72.3853 111.088 72.9477 111.681C73.51 112.274 73.95 112.972 74.2425 113.735C74.535 114.499 74.6745 115.312 74.6527 116.129C74.6309 116.946 74.4483 117.75 74.1155 118.497C73.7827 119.243 73.3062 119.917 72.7131 120.48C72.12 121.042 71.4219 121.482 70.6587 121.774C67.1676 123.047 63.4728 123.672 59.7572 123.616Z" fill="#FFD600" stroke="#2D2A26" stroke-width="1.65" stroke-miterlimit="10"/>
<path d="M26.7053 91.0366C16.7499 87.801 15.9779 81.0813 18.865 77.4973C21.1889 78.7249 23.7208 79.5096 26.3316 79.8118L33.7982 80.4091C36.086 82.3055 38.5247 84.012 41.0904 85.5114C42.0112 90.4891 36.7105 94.2223 26.7053 91.0366Z" fill="white" stroke="#2D2A26" stroke-width="1.65" stroke-linecap="round" stroke-linejoin="round"/>
<path d="M25.212 81.753C19.0075 80.0958 13.7153 76.0421 10.4994 70.4833C7.2836 64.9244 6.4077 58.3157 8.06406 52.1109L14.6095 27.6452C15.2633 25.1899 16.8657 23.0946 19.064 21.8205C21.2623 20.5463 23.8764 20.1976 26.3319 20.8507C28.7845 21.5154 30.8739 23.1248 32.1427 25.3265C33.4114 27.5282 33.7561 30.1427 33.1015 32.598L33.7486 30.1092C34.4138 27.6556 36.0221 25.5645 38.2226 24.2917C40.4232 23.0189 43.0375 22.6677 45.496 23.3146C47.2389 23.7794 48.8151 24.7269 50.0435 26.0478C51.2719 27.3686 52.1027 29.0092 52.44 30.7812L57.4177 12.2642C57.9217 10.2339 59.1729 8.46805 60.9213 7.31934C62.6698 6.17064 64.787 5.72353 66.8506 6.06701C67.9383 6.27083 68.973 6.69548 69.89 7.31509C70.8069 7.93469 71.5864 8.73588 72.1813 9.66905C72.7762 10.6022 73.1733 11.6478 73.348 12.7406C73.5227 13.8334 73.4716 14.9503 73.1973 16.0224L64.4116 49.5722L68.792 44.1965C70.1363 42.5456 72.0071 41.4068 74.0911 40.9712C76.1751 40.5356 78.3455 40.8294 80.2385 41.8036C82.1316 42.7779 83.6321 44.373 84.4889 46.322C85.3457 48.271 85.5067 50.4554 84.9446 52.5089C84.612 53.796 84.0003 54.9945 83.1527 56.0186L69.6384 72.5693C65.4407 77.7212 59.843 81.5497 53.5198 83.5941C47.1965 85.6386 40.4171 85.8121 33.9978 84.093" fill="white"/>
<path d="M25.212 81.753C19.0075 80.0958 13.7153 76.0421 10.4994 70.4832C7.2836 64.9244 6.4077 58.3157 8.06406 52.1109L14.6095 27.6452C15.2633 25.1899 16.8657 23.0946 19.064 21.8205C21.2623 20.5463 23.8764 20.1976 26.3319 20.8507C28.7845 21.5154 30.8739 23.1248 32.1427 25.3265C33.4114 27.5282 33.7561 30.1427 33.1015 32.598L33.7486 30.1092C34.4138 27.6556 36.0221 25.5645 38.2226 24.2917C40.4232 23.0189 43.0375 22.6677 45.496 23.3146C47.2389 23.7794 48.8151 24.7269 50.0435 26.0478C51.2719 27.3686 52.1027 29.0092 52.44 30.7812L57.4177 12.2642C57.9217 10.2339 59.1729 8.46805 60.9213 7.31934C62.6698 6.17064 64.787 5.72353 66.8506 6.06701C67.9383 6.27083 68.973 6.69548 69.89 7.31509C70.8069 7.93469 71.5865 8.73588 72.1813 9.66905C72.7762 10.6022 73.1733 11.6478 73.348 12.7406C73.5227 13.8334 73.4716 14.9503 73.1973 16.0224L64.4116 49.5722L68.792 44.1965C70.1363 42.5456 72.0072 41.4068 74.0911 40.9712C76.1751 40.5356 78.3455 40.8294 80.2385 41.8036C82.1316 42.7779 83.6321 44.373 84.4889 46.322C85.3457 48.271 85.5067 50.4554 84.9446 52.5089C84.612 53.796 84.0003 54.9945 83.1527 56.0186L69.6384 72.5692C65.4407 77.7212 59.843 81.5497 53.5198 83.5941C47.1965 85.6386 40.4171 85.8121 33.9978 84.093" stroke="#2D2A26" stroke-width="1.65" stroke-linecap="round" stroke-linejoin="round"/>
<path d="M35.3169 67.5917C35.8943 65.3524 36.9119 63.2505 38.3101 61.4085C39.7083 59.5664 41.4588 58.0211 43.4604 56.8628C45.4619 55.7044 47.6744 54.9564 49.9681 54.6619C52.2618 54.3674 54.5911 54.5324 56.8204 55.1474L59.3092 55.7696L61.151 53.5299L64.4115 49.5475" stroke="#2D2A26" stroke-width="1.65" stroke-linecap="round" stroke-linejoin="round"/>
<path d="M16.4514 30.9558L14.3113 38.945C14.1485 39.6137 14.0565 40.298 14.0373 40.986C14.0121 42.4728 14.3997 43.9373 15.1572 45.2169C15.8773 46.4905 16.9225 47.5501 18.1862 48.2873C19.4499 49.0245 20.8872 49.4126 22.3503 49.4126C23.8133 49.4126 25.25 49.0245 26.5138 48.2873C27.7775 47.5501 28.8227 46.4905 29.5428 45.2169C29.8576 44.6144 30.108 43.9804 30.2896 43.3254L31.9819 37.0534L33.1266 32.6979" stroke="#2D2A26" stroke-width="1.65" stroke-linecap="round" stroke-linejoin="round"/>
<path d="M52.4649 30.9059C52.7375 32.3176 52.6863 33.7727 52.3154 35.1618L49.4784 45.7644C49.3036 46.4333 49.0442 47.0774 48.7067 47.6808C47.9866 48.9544 46.9414 50.014 45.6776 50.7512C44.4139 51.4884 42.9772 51.8765 41.5141 51.8765C40.0511 51.8765 38.6144 51.4884 37.3506 50.7512C36.0869 50.014 35.0411 48.9544 34.321 47.6808C33.5659 46.4002 33.1785 44.9364 33.2011 43.4499C33.2151 42.7598 33.3157 42.074 33.5001 41.4089L35.6152 33.4197" stroke="#2D2A26" stroke-width="1.65" stroke-linecap="round" stroke-linejoin="round"/>
<path d="M212.101 107.663C212.105 122.525 207.711 137.055 199.471 149.423C191.232 161.792 179.516 171.446 165.8 177.168C152.084 182.89 136.981 184.425 122.395 181.579C107.808 178.733 94.3895 171.633 83.8306 161.174C73.2717 150.716 66.0446 137.366 63.0593 122.807C60.0741 108.248 61.4648 93.1311 67.0557 79.3611C72.6466 65.591 82.1874 53.7837 94.4769 45.4267C106.766 37.0696 121.255 32.5372 136.116 32.3996H136.813C152.413 32.3725 167.632 37.2187 180.343 46.2622C181.612 47.1581 182.832 48.1042 184.052 49.0749L185.769 50.4688C187.063 51.5639 188.258 52.7085 189.502 53.9031C196.665 60.9032 202.354 69.2662 206.236 78.4988C210.117 87.7315 212.111 97.6475 212.101 107.663Z" fill="#FFD600" stroke="#2D2A26" stroke-width="1.65" stroke-miterlimit="10"/>
<path d="M101.297 107.662C90.7687 97.8813 102.964 89.17 108.365 96.7859" stroke="#2D2A26" stroke-width="1.65" stroke-linecap="round" stroke-linejoin="round"/>
<path d="M119.515 98.7026C122.004 94.4466 131.088 93.2768 134 101.739" stroke="#2D2A26" stroke-width="1.65" stroke-linecap="round" stroke-linejoin="round"/>
<path d="M135.618 81.1311C132.236 85.8228 130.647 91.5709 131.138 97.3336C130.075 96.4409 128.802 95.8334 127.439 95.5678C126.076 95.3023 124.668 95.3876 123.348 95.8158C123.469 93.407 123.82 91.015 124.393 88.6724C124.416 88.5742 124.459 88.4815 124.519 88.4002C124.579 88.3189 124.655 88.2509 124.742 88.1997C125.834 87.4681 127.012 86.8747 128.251 86.4327C128.277 86.4117 128.298 86.3851 128.312 86.3549C128.326 86.3248 128.334 86.2917 128.334 86.2583C128.334 86.2249 128.326 86.1918 128.312 86.1617C128.298 86.1316 128.277 86.1049 128.251 86.0839C127.638 85.3553 126.964 84.6813 126.235 84.0684C126.146 83.9895 126.084 83.8842 126.057 83.7682C126.03 83.6523 126.04 83.5313 126.086 83.4213C127.07 81.1978 128.37 79.1269 129.943 77.2733C130.455 76.534 131.239 76.0282 132.124 75.8672C133.008 75.7062 133.921 75.9031 134.66 76.4147C135.399 76.9263 135.905 77.711 136.066 78.5955C136.227 79.48 136.03 80.3918 135.519 81.1311H135.618Z" fill="#2D2A26"/>
<path d="M94.7011 80.1855C91.329 84.882 89.7412 90.6264 90.2216 96.388C89.1618 95.489 87.8888 94.8772 86.5248 94.6113C85.1607 94.3455 83.751 94.4343 82.4312 94.8696C82.5526 92.4608 82.9024 90.0694 83.4763 87.7268C83.5289 87.5245 83.6529 87.3473 83.8251 87.2286C84.9372 86.516 86.1217 85.9238 87.359 85.4616C87.3847 85.4432 87.406 85.4192 87.4204 85.3911C87.4349 85.363 87.4423 85.3316 87.4423 85.3C87.4423 85.2683 87.4349 85.237 87.4204 85.2088C87.406 85.1807 87.3847 85.1568 87.359 85.1383C86.7462 84.4097 86.0716 83.7351 85.3429 83.1222C85.2538 83.0433 85.1917 82.9386 85.1649 82.8227C85.1381 82.7067 85.1486 82.5851 85.1941 82.4751C86.1705 80.2417 87.4791 78.1691 89.0762 76.3277C89.6101 75.6369 90.3794 75.1667 91.2376 75.0061C92.0957 74.8455 92.9831 75.0054 93.7307 75.4563C94.4479 75.9855 94.9435 76.7616 95.1228 77.6347C95.302 78.5078 95.1518 79.4166 94.7011 80.1855Z" fill="#2D2A26"/>
<path d="M140.571 60.1503C143.06 57.6615 148.709 61.4195 151.845 67.4425C156.699 76.8006 154.334 82.3759 153.289 82.0275C151.821 81.5546 153.488 75.4569 145.823 69.5832C139.078 64.5059 138.804 62.017 140.571 60.1503Z" fill="#2D2A26"/>
<path d="M96.7667 55.8445C103.462 54.401 103.934 60.822 97.8118 61.8923C94.385 62.1058 91.1665 63.6084 88.8024 66.0983C86.3136 69.0351 83.8247 74.6353 83.8247 69.4087C83.8247 64.1821 89.9472 57.3378 96.7667 55.8445Z" fill="#2D2A26"/>
<path d="M171.614 122.224C173.818 117.067 171.834 111.275 167.183 109.287C162.531 107.299 156.973 109.868 154.769 115.025C152.566 120.182 154.55 125.975 159.201 127.963C163.853 129.95 169.41 127.381 171.614 122.224Z" fill="#6FCFEB" stroke="#2D2A26" stroke-width="1.65" stroke-miterlimit="10"/>
<path d="M73.695 113.213C74.5661 118.041 72.9235 122.396 70.0115 122.894C67.0995 123.392 64.0632 119.908 63.217 115.079C62.3707 110.251 63.9885 105.895 66.9004 105.372C69.8124 104.85 72.8239 108.359 73.695 113.213Z" fill="#6FCFEB" stroke="#2D2A26" stroke-width="1.65" stroke-miterlimit="10"/>
<path d="M127.753 112.217C135.668 110.45 139.302 116.423 138.132 119.908" stroke="#2D2A26" stroke-width="1.65" stroke-linecap="round" stroke-linejoin="round"/>
<path d="M87.0605 117.693C100.65 125.458 117.698 130.709 136.091 113.86" stroke="#2D2A26" stroke-width="1.65" stroke-linecap="round" stroke-linejoin="round"/>
<path d="M289.206 178.993C288.779 179.653 288.227 180.221 287.58 180.666C286.933 181.111 286.204 181.423 285.436 181.585C284.668 181.747 283.876 181.756 283.104 181.61C282.333 181.464 281.598 181.167 280.942 180.735L278.031 178.844C278.361 180.38 278.602 181.934 278.752 183.498V184.369C278.947 186.401 278.327 188.428 277.03 190.005C275.734 191.582 273.865 192.58 271.833 192.782H271.062C269.784 192.788 268.526 192.47 267.403 191.861C266.108 193.277 264.335 194.163 262.425 194.349H261.654C259.742 194.345 257.9 193.63 256.487 192.341C255.074 191.053 254.192 189.285 254.013 187.381C254.013 187.381 253.266 176.828 244.481 175.907L240.324 175.459L249.558 182.926C250.405 183.543 251.118 184.326 251.652 185.228C252.187 186.13 252.532 187.131 252.666 188.171C252.801 189.211 252.722 190.267 252.435 191.275C252.148 192.283 251.659 193.222 250.997 194.035C250.335 194.847 249.514 195.517 248.585 196.002C247.655 196.487 246.637 196.777 245.592 196.856C244.546 196.934 243.496 196.799 242.505 196.458C241.514 196.117 240.602 195.577 239.826 194.872L228.029 185.24L224.296 182.179C220.868 179.421 218.384 175.664 217.189 171.43C215.994 167.195 216.148 162.693 217.628 158.55C219.109 154.407 221.842 150.827 225.45 148.309C229.058 145.791 233.361 144.459 237.76 144.497C240.857 144.501 243.921 145.127 246.77 146.339C260.832 152.312 284.726 168.739 287.414 170.507C288.106 170.931 288.704 171.492 289.171 172.155C289.639 172.818 289.967 173.57 290.135 174.364C290.303 175.159 290.307 175.979 290.147 176.775C289.987 177.571 289.667 178.325 289.206 178.993Z" fill="white" stroke="#2D2A26" stroke-width="1.65" stroke-linecap="round" stroke-linejoin="round"/>
<path d="M267.478 191.81C268.173 191.019 268.699 190.095 269.024 189.094C269.349 188.092 269.467 187.035 269.37 185.987V185.116C269.162 179.389 267.149 173.875 263.62 169.361C261.704 167.152 259.201 165.53 256.402 164.682C255.244 164.326 254.051 164.092 252.843 163.985" stroke="#2D2A26" stroke-width="1.65" stroke-linecap="round" stroke-linejoin="round"/>
<path d="M262.201 162.293C268.025 162.84 275.442 166.3 278.031 178.769" stroke="#2D2A26" stroke-width="1.65" stroke-linecap="round" stroke-linejoin="round"/>
<path d="M240.349 175.534C238.742 174.397 237.197 173.175 235.72 171.875" stroke="#2D2A26" stroke-width="1.65" stroke-linecap="round" stroke-linejoin="round"/>
<path d="M237.662 155.174C231.34 154.901 228.303 152.213 227.432 149.152C227.141 148.12 227.07 147.039 227.222 145.979C227.375 144.918 227.748 143.9 228.318 142.993C228.888 142.085 229.641 141.307 230.531 140.709C231.42 140.111 232.425 139.705 233.48 139.519C233.48 139.793 233.48 140.042 233.48 140.316C233.454 142.046 234.116 143.714 235.32 144.956C236.524 146.198 238.172 146.91 239.902 146.937C241.631 146.963 243.3 146.301 244.541 145.097C245.783 143.893 246.495 142.245 246.522 140.515V140.117C247.308 140.714 247.969 141.462 248.464 142.316C248.96 143.171 249.281 144.115 249.409 145.094C250.006 150.022 245.278 155.498 237.662 155.174Z" fill="white" stroke="#2D2A26" stroke-width="1.65" stroke-miterlimit="10"/>
<path d="M246.497 140.117V140.515C246.47 142.245 245.758 143.893 244.516 145.097C243.275 146.301 241.606 146.963 239.876 146.937C238.147 146.91 236.499 146.198 235.295 144.956C234.091 143.714 233.429 142.046 233.455 140.316C233.455 140.042 233.455 139.793 233.455 139.519C233.455 133.123 231.314 128.071 227.183 125.258C221.035 121.077 211.329 121.973 200.527 127.549C199.083 128.29 197.413 128.464 195.847 128.035C194.28 127.607 192.931 126.607 192.065 125.233C191.584 124.468 191.265 123.612 191.13 122.717C190.994 121.823 191.045 120.91 191.279 120.036C191.512 119.163 191.924 118.347 192.487 117.639C193.051 116.932 193.755 116.348 194.554 115.925C209.861 108.035 224.172 107.463 234.376 114.507C242.465 119.858 246.671 129.216 246.497 140.117Z" fill="#FFD600" stroke="#2D2A26" stroke-width="1.65" stroke-miterlimit="10"/>
<path d="M170.885 78.0947L168.719 87.3033C168.719 87.3033 162.398 87.7762 160.556 92.281C158.714 96.7859 153.961 109.28 137.982 109.529C122.004 109.778 114.786 101.067 113.567 94.5961C112.347 88.1251 110.605 84.8396 107.145 84.4165C103.686 83.9933 101.122 87.7514 98.2104 92.978C93.7803 100.942 84.7455 102.933 70.6088 98.5281C66.8975 97.4958 63.6459 95.2356 61.3855 92.1164C59.1252 88.9971 57.9898 85.2034 58.1645 81.3552C58.1645 71.3998 56.5217 69.8318 54.3315 68.9109L54.7052 59.3036C64.4758 59.6131 74.2094 60.6531 83.8248 62.4147C95.5971 64.9036 98.4842 68.4131 100.077 71.3499C102.218 75.3072 103.387 76.6509 107.917 77.2981C109.537 77.6241 111.216 77.4944 112.767 76.9231C114.319 76.3519 115.681 75.3622 116.702 74.063C119.764 70.8275 125.737 69.4583 138.704 70.6032C149.77 71.3155 160.642 73.8466 170.885 78.0947Z" fill="#1D1D1B" stroke="#2D2A26" stroke-width="1.65" stroke-miterlimit="10"/>
<path d="M147.988 101.838C144.922 103.983 141.276 105.147 137.534 105.174C137.534 100.196 137.36 90.4645 133.478 92.7294C127.977 96.0644 124.419 82.774 124.443 74.735C126.779 73.9746 129.233 73.6453 131.686 73.764C133.528 73.764 135.269 73.7642 136.937 73.9633C137.559 83.3712 138.132 86.6316 142.488 83.9187C148.113 80.7081 148.063 92.8785 147.988 101.838Z" fill="white"/>
<path d="M87.9065 96.388C85.975 96.9947 83.9574 97.2802 81.9335 97.2338C80.7886 97.2338 79.6933 97.2342 78.648 97.0351C79.0213 92.3312 79.4696 81.7038 75.7861 83.9935C70.5843 87.2042 68.3194 72.8679 68.8171 64.8787C72.5052 64.8305 76.189 65.1392 79.8177 65.7998C79.8177 74.9339 80.2657 78.0698 84.1981 75.6307C89.8976 71.9721 88.4292 87.453 87.9065 96.388Z" fill="white"/>
<path d="M152.268 97.7071C151.062 99.3036 149.619 100.705 147.987 101.863C144.921 104.008 141.276 105.172 137.534 105.199C135.314 105.258 133.094 105.073 130.914 104.651C119.316 102.435 115.632 91.5095 117.449 82.9727C117.716 81.0898 118.516 79.323 119.756 77.8807C120.995 76.4384 122.622 75.381 124.443 74.8341C126.778 74.0737 129.232 73.745 131.685 73.8637C133.527 73.8637 135.269 73.8639 136.936 74.063C148.161 74.6603 154.757 76.7008 156.847 81.1808C158.988 86.3078 155.728 93.2023 152.268 97.7071Z" stroke="#2D2A26" stroke-width="1.65" stroke-miterlimit="10"/>
<path d="M98.8332 79.762C98.8332 86.8303 95.4977 94.0485 87.9067 96.388C85.9753 96.9947 83.9577 97.2802 81.9337 97.2338C80.7888 97.2338 79.6936 97.2342 78.6482 97.0351C68.4937 95.9649 64.1132 90.8628 62.3461 86.5073C60.8528 82.8736 60.7039 76.9497 61.575 69.284C61.8986 66.3471 64.5365 65.0778 68.8174 64.8787C72.5054 64.8305 76.1892 65.1392 79.8179 65.7998C81.9335 66.1483 84.1484 66.5714 86.5128 67.0443C93.9047 68.5376 98.8083 74.4607 98.8332 79.762Z" stroke="#2D2A26" stroke-width="1.65" stroke-miterlimit="10"/>
<path d="M170.885 78.0946C170.885 78.0946 188.507 85.3622 197.193 94.9941C204.659 103.207 204.335 110.922 200.577 110.873C196.819 110.823 200.154 104.527 194.927 99.499C186.465 91.3605 168.72 87.3033 168.72 87.3033L170.885 78.0946Z" fill="#1D1D1B" stroke="#2D2A26" stroke-width="1.65" stroke-miterlimit="10"/>
<path d="M135.394 264.162C125.14 287.682 103.611 300.176 90.2955 293.431C76.9801 286.686 76.358 263.166 89.2005 240.941C103.163 216.774 114.612 205.375 128.052 211.846C142.064 218.566 146.967 237.506 135.394 264.162Z" fill="white" stroke="#2D2A26" stroke-width="1.65" stroke-linecap="round" stroke-linejoin="round"/>
<path d="M100.4 291.34C100.026 289.846 99.2864 288.468 98.2483 287.33C97.2101 286.192 95.906 285.329 94.4524 284.819C93.1733 284.227 91.7801 283.919 90.3703 283.919C88.9605 283.919 87.5679 284.227 86.2888 284.819C80.2658 275.387 82.1326 257.442 92.0383 240.244C105.354 217.048 115.732 205.972 127.853 211.771C140.496 217.819 144.877 235.689 133.702 261.175C125.887 278.846 111.874 290.245 100.4 291.34Z" fill="#8A8785" stroke="#2D2A26" stroke-width="1.65" stroke-linecap="round" stroke-linejoin="round"/>
<path d="M83.6504 262.445C96.4907 262.383 109.035 266.295 119.564 273.644C120.08 273.969 120.678 274.137 121.286 274.13C121.895 274.123 122.488 273.94 122.996 273.604C123.503 273.267 123.903 272.791 124.146 272.234C124.389 271.676 124.467 271.059 124.368 270.459L124.219 269.612C124.096 268.881 124.13 268.133 124.319 267.416C124.508 266.7 124.847 266.032 125.314 265.456C129.719 260.18 137.907 243.305 135.269 217.77" stroke="#2D2A26" stroke-width="1.65" stroke-miterlimit="10"/>
<path d="M101.595 235.589C101.623 235.253 101.718 234.925 101.877 234.626C102.035 234.328 102.252 234.065 102.515 233.853C102.778 233.641 103.082 233.485 103.407 233.394C103.733 233.303 104.073 233.28 104.408 233.325C110.049 234.152 115.456 236.144 120.287 239.173C120.575 239.35 120.824 239.584 121.019 239.86C121.214 240.136 121.35 240.449 121.42 240.78C121.49 241.111 121.491 241.452 121.425 241.784C121.358 242.115 121.225 242.43 121.033 242.708C120.667 243.216 120.123 243.566 119.509 243.691C118.896 243.816 118.258 243.705 117.723 243.38C113.467 240.709 108.705 238.946 103.736 238.203C103.116 238.116 102.551 237.799 102.154 237.315C101.758 236.831 101.558 236.214 101.595 235.589Z" fill="#6FCFEB" stroke="#2D2A26" stroke-width="1.65" stroke-miterlimit="10"/>
<path d="M97.4888 245.52C97.4888 244.86 97.7512 244.227 98.2179 243.761C98.6847 243.294 99.3175 243.031 99.9776 243.031C106.058 243.387 111.911 245.467 116.852 249.029C117.128 249.226 117.361 249.477 117.536 249.766C117.712 250.056 117.826 250.379 117.873 250.714C117.92 251.05 117.897 251.391 117.807 251.718C117.717 252.045 117.562 252.349 117.35 252.614C116.951 253.092 116.387 253.403 115.769 253.486C115.152 253.569 114.526 253.418 114.015 253.062C109.87 250.023 104.934 248.25 99.8032 247.959C99.1823 247.916 98.6002 247.642 98.1717 247.19C97.7433 246.738 97.4997 246.143 97.4888 245.52Z" fill="#6FCFEB" stroke="#2D2A26" stroke-width="1.65" stroke-miterlimit="10"/>
<path d="M93.1084 256.148C93.0366 255.815 93.0335 255.471 93.0999 255.137C93.1663 254.804 93.3006 254.487 93.4943 254.207C93.6879 253.927 93.9369 253.69 94.2258 253.51C94.5148 253.33 94.8377 253.212 95.1744 253.161C98.5131 252.703 101.912 252.998 105.121 254.028C108.33 255.057 111.267 256.794 113.716 259.109C113.961 259.342 114.155 259.622 114.289 259.932C114.422 260.242 114.491 260.577 114.491 260.914C114.491 261.252 114.422 261.586 114.289 261.896C114.155 262.206 113.961 262.486 113.716 262.718C113.256 263.145 112.651 263.382 112.023 263.382C111.396 263.382 110.791 263.145 110.331 262.718C108.432 260.876 106.139 259.491 103.625 258.667C101.111 257.843 98.4423 257.603 95.8215 257.965C95.2262 258.04 94.6234 257.897 94.125 257.563C93.6265 257.229 93.2657 256.727 93.1084 256.148Z" fill="#6FCFEB" stroke="#2D2A26" stroke-width="1.65" stroke-miterlimit="10"/>
<path d="M125.114 228.92C125.075 228.729 125.077 228.531 125.12 228.341C125.163 228.15 125.246 227.971 125.364 227.816C125.482 227.66 125.632 227.532 125.803 227.439C125.975 227.346 126.164 227.291 126.359 227.277C129.37 227.128 131.536 230.786 131.785 233.723C132.083 235.864 131.585 238.527 133.228 240.045C133.543 240.362 133.876 240.661 134.224 240.941C134.842 241.412 135.26 242.099 135.394 242.865C135.528 243.631 135.368 244.42 134.946 245.073C134.685 245.454 134.341 245.77 133.939 245.998C133.538 246.226 133.09 246.359 132.629 246.388C132.168 246.417 131.707 246.34 131.28 246.164C130.854 245.988 130.473 245.716 130.167 245.371C128.709 243.772 127.749 241.783 127.404 239.647C127.235 237.664 127.463 235.667 128.076 233.773C128.267 233.015 128.172 232.212 127.81 231.519C127.447 230.826 126.842 230.291 126.11 230.015C125.863 229.944 125.639 229.807 125.464 229.618C125.288 229.43 125.167 229.197 125.114 228.945V228.92Z" fill="white" stroke="#2D2A26" stroke-width="1.65" stroke-linecap="round" stroke-linejoin="round"/>
<path d="M136.863 247.686C135.584 247.06 134.36 246.327 133.204 245.495C133.068 245.392 132.955 245.261 132.871 245.111C132.788 244.961 132.736 244.796 132.72 244.625C132.704 244.455 132.723 244.283 132.776 244.12C132.829 243.957 132.916 243.807 133.03 243.679C133.239 243.452 133.524 243.309 133.831 243.277C134.138 243.245 134.446 243.326 134.697 243.504C135.734 244.252 136.834 244.91 137.983 245.471C138.274 245.615 138.497 245.868 138.604 246.175C138.711 246.482 138.693 246.819 138.555 247.114C138.484 247.264 138.383 247.398 138.258 247.509C138.133 247.62 137.988 247.704 137.83 247.758C137.672 247.811 137.505 247.832 137.339 247.82C137.173 247.807 137.011 247.762 136.863 247.686Z" fill="white" stroke="#2D2A26" stroke-width="1.65" stroke-linecap="round" stroke-linejoin="round"/>
<path d="M108.888 224.017C109.064 223.934 109.219 223.815 109.344 223.667C109.47 223.519 109.562 223.346 109.614 223.159C109.666 222.972 109.677 222.776 109.646 222.585C109.615 222.394 109.544 222.211 109.436 222.05C107.743 219.561 103.537 220.01 101.023 221.578C99.1563 222.648 97.3148 224.638 95.1246 224.24C94.6795 224.189 94.2386 224.106 93.8055 223.992C93.0595 223.776 92.2591 223.855 91.5694 224.212C90.8796 224.568 90.353 225.175 90.0971 225.908C89.9418 226.345 89.8901 226.811 89.9464 227.271C90.0027 227.731 90.165 228.172 90.4209 228.558C90.6769 228.944 91.0195 229.266 91.4211 229.497C91.8227 229.728 92.2722 229.863 92.7348 229.89C94.8863 230.1 97.0517 229.667 98.957 228.645C100.63 227.58 102.084 226.203 103.238 224.589C103.728 223.98 104.425 223.573 105.196 223.444C105.967 223.316 106.758 223.475 107.419 223.892C107.625 224.042 107.868 224.135 108.121 224.161C108.375 224.187 108.631 224.146 108.863 224.041L108.888 224.017Z" fill="white" stroke="#2D2A26" stroke-width="1.65" stroke-linecap="round" stroke-linejoin="round"/>
<path d="M86.8111 225.958C88.0782 226.61 89.4031 227.143 90.7686 227.551C90.9323 227.599 91.1039 227.612 91.273 227.589C91.4421 227.567 91.6045 227.51 91.75 227.421C91.8954 227.331 92.0209 227.213 92.1176 227.072C92.2143 226.932 92.2801 226.772 92.3114 226.605C92.3741 226.305 92.3217 225.993 92.165 225.73C92.0082 225.467 91.7589 225.273 91.4656 225.186C90.2407 224.806 89.0496 224.323 87.9061 223.743C87.6141 223.6 87.2782 223.574 86.9679 223.671C86.6576 223.769 86.3969 223.981 86.2387 224.265C86.1626 224.413 86.1168 224.575 86.1045 224.742C86.0921 224.908 86.1137 225.075 86.167 225.232C86.2204 225.39 86.3049 225.536 86.4156 225.66C86.5263 225.785 86.6607 225.886 86.8111 225.958Z" fill="white" stroke="#2D2A26" stroke-width="1.65" stroke-linecap="round" stroke-linejoin="round"/>
<path d="M114.014 231.458C113.043 231.003 112.197 230.317 111.551 229.46C110.904 228.603 110.477 227.601 110.305 226.542C110.133 225.483 110.223 224.398 110.566 223.381C110.909 222.364 111.494 221.446 112.272 220.706C113.313 222.321 114.837 223.567 116.628 224.265C118.409 224.913 120.373 224.842 122.103 224.067C124.666 229.044 119.938 234.097 114.014 231.458Z" fill="white" stroke="#2D2A26" stroke-width="1.65" stroke-linecap="round" stroke-linejoin="round"/>
<path d="M118.819 224.689C117.792 224.761 116.798 225.087 115.929 225.639C115.06 226.191 114.343 226.95 113.841 227.849" stroke="#2D2A26" stroke-width="1.65" stroke-linecap="round" stroke-linejoin="round"/>
<path d="M119.167 224.042C117.986 224.168 116.794 223.953 115.731 223.424C114.668 222.895 113.779 222.073 113.169 221.054C105.702 208.61 94.6759 186.21 104.009 173.169C109.236 165.926 118.943 163.836 132.955 166.947C134.566 167.306 135.967 168.291 136.852 169.685C137.736 171.078 138.031 172.766 137.671 174.376C137.312 175.987 136.327 177.388 134.933 178.273C133.54 179.157 131.852 179.452 130.242 179.093C121.929 177.251 116.055 177.749 114.114 180.437C111.252 184.394 113.069 196.789 123.821 214.659C124.245 215.357 124.527 216.133 124.65 216.941C124.774 217.749 124.736 218.574 124.54 219.367C124.343 220.161 123.992 220.907 123.505 221.564C123.019 222.221 122.407 222.776 121.705 223.195C120.933 223.664 120.065 223.953 119.167 224.042Z" fill="#FFD600" stroke="#2D2A26" stroke-width="1.65" stroke-miterlimit="10"/>
<path d="M179.994 46.1379C167.353 37.1721 152.236 32.3618 136.738 32.3744H136.041C129.62 26.0527 128.276 11.8413 135.394 5.64409H135.519C137.418 4.06022 139.752 3.08812 142.214 2.85627C157.57 1.08918 164.614 13.6577 167.999 26.2513C170.222 33.8006 174.353 40.6501 179.994 46.1379Z" fill="#6FCFEB"/>
<path d="M175.041 41.7579L175.315 42.1309C175.266 42.1061 175.166 41.9072 175.041 41.7579ZM174.121 40.5134C173.498 39.6423 172.851 38.6962 172.204 37.6509C172.794 38.6371 173.433 39.5927 174.121 40.5134ZM168.695 30.558L168.844 31.0058L169.292 32.0011C169.143 31.6776 168.993 31.3543 168.869 31.0058C168.805 30.9013 168.747 30.7929 168.695 30.6819V30.558ZM180.467 45.4911L180.069 45.0925L179.596 44.6198C176.989 41.8602 174.717 38.8029 172.826 35.5108L171.93 33.8678C171.582 33.2207 171.258 32.5734 170.96 31.8766C170.661 31.1797 170.039 29.7615 169.641 28.6415C169.242 27.5215 169.043 26.8742 168.794 25.9534C168.545 25.0325 168.222 23.9874 167.923 23.0416C167.625 22.0958 167.177 20.8264 166.754 19.781C166.331 18.7357 166.231 18.412 165.932 17.7649C164.143 13.2479 161.271 9.23976 157.569 6.09232C157.221 5.79365 156.848 5.51966 156.474 5.24588C156.101 4.97211 155.454 4.57416 154.907 4.2755C154.58 4.07676 154.238 3.90218 153.886 3.75293L153.04 3.35433L152.418 3.10581L151.248 2.68229C150.65 2.50807 150.028 2.33399 149.381 2.20955C149.104 2.13364 148.821 2.08351 148.535 2.06007L147.216 1.88629H147.042C145.387 1.70774 143.718 1.70774 142.064 1.88629L140.894 2.06007C138.722 2.45331 136.689 3.40568 134.996 4.82297L134.846 4.94754C133.23 6.51351 131.954 8.39585 131.097 10.477C130.241 12.5581 129.823 14.793 129.869 17.0431C129.757 20.4556 130.385 23.8519 131.71 26.9985C132.374 28.6086 133.263 30.1169 134.349 31.4786L135.021 32.2752L135.543 32.8226L135.792 33.0718H136.788C140.958 33.0656 145.121 33.4151 149.232 34.1169C149.854 34.1169 150.477 34.3157 151.074 34.4402C151.51 34.505 151.943 34.5967 152.368 34.7142C153.563 34.9382 154.857 35.2371 155.952 35.5606C157.047 35.8842 158.216 36.1826 159.311 36.531C160.979 37.0537 162.622 37.6509 164.289 38.298C167.08 39.403 169.798 40.6832 172.428 42.1309C174.886 43.4884 177.271 44.9756 179.571 46.5861L180.094 45.939L180.591 45.3168L180.467 45.4911ZM133.477 27.1978C133.071 26.3199 132.73 25.4129 132.457 24.4847C131.717 22.1355 131.371 19.6797 131.436 17.2174C131.404 15.1677 131.794 13.1334 132.582 11.2408C133.37 9.34818 134.539 7.63798 136.016 6.21688C137.801 4.77794 139.978 3.91057 142.263 3.72802C154.259 2.33426 162.647 9.99973 167.152 26.5257C167.376 27.372 167.65 28.1933 167.923 29.0146C168.197 29.8359 168.372 30.259 168.62 30.8563L168.769 31.3042L169.218 32.3001C169.299 32.5038 169.39 32.7031 169.491 32.8974C169.74 33.4449 169.989 33.9673 170.263 34.49C170.294 34.5776 170.336 34.6614 170.387 34.7391C170.636 35.2369 170.885 35.71 171.158 36.1828C171.432 36.6557 171.781 37.2777 172.105 37.8004C172.694 38.7865 173.334 39.7416 174.021 40.6623L174.942 41.9067L175.216 42.2804C173.039 40.9853 170.796 39.8052 168.496 38.7458L166.928 38.0246L165.46 37.4024C162.648 36.23 159.762 35.2402 156.823 34.4402C155.976 34.1913 155.13 33.9672 154.334 33.7681C152.691 33.3699 151.048 33.0466 149.356 32.7728L147.689 32.4988L145.972 32.2752H145.05C144.453 32.2752 143.856 32.1506 143.258 32.1257C142.661 32.1008 142.089 32.1255 141.467 31.9762H139.252H136.763H136.414C135.162 30.5587 134.169 28.9332 133.477 27.1729V27.1978Z" fill="#2D2A26"/>
<path d="M185.395 50.3692L183.703 48.9753C182.508 48.0046 181.214 47.0585 180.019 46.1625C174.374 40.6678 170.242 33.8099 168.023 26.2517C164.563 13.658 157.595 1.08953 142.238 2.85662C139.776 3.08847 137.442 4.06057 135.543 5.64443C138.492 2.92737 142.272 1.28685 146.27 0.989976C157.121 0.293096 164.488 8.10809 168.67 17.7649C169.828 20.4023 170.761 23.1333 171.458 25.9284C173.946 35.2865 180.791 44.7445 183.902 48.6271C184.723 49.5728 185.246 50.2198 185.395 50.3692Z" fill="#6FCFEB"/>
<path d="M185.868 49.5724L184.847 48.3279L184.549 47.9798C184.452 47.8684 184.36 47.7518 184.275 47.631L183.703 46.9091L182.981 45.9885C182.508 45.3414 181.986 44.6443 181.463 43.8977C180.144 42.0061 178.75 39.8656 177.406 37.551V37.3772C176.883 36.4314 176.336 35.4354 175.838 34.4399L175.39 33.5442C175.166 33.0963 174.967 32.6482 174.768 32.2002C174.569 31.7522 174.345 31.2293 174.146 30.7564C173.947 30.2836 173.648 29.5369 173.449 28.9147C173.25 28.2925 173.051 27.8198 172.876 27.2723C172.702 26.7247 172.552 26.1525 172.403 25.6049C172.254 25.0574 172.03 24.1362 171.806 23.4393C171.582 22.7425 171.358 22.0205 171.134 21.3485C170.91 20.6765 170.661 20.005 170.413 19.3579C170.413 19.3579 170.413 19.3577 170.413 19.2084L169.765 17.6401L169.616 17.3168L169.392 16.8441C164.215 5.37046 156.027 -0.577912 146.345 0.044303C142.201 0.344727 138.28 2.0374 135.22 4.84763L135.767 5.44493L135.917 5.61932L136.315 6.04223C138.099 4.6033 140.276 3.73593 142.562 3.55338C154.558 2.15961 162.945 9.82508 167.45 26.3511C167.674 27.1973 167.948 28.0186 168.222 28.84C168.496 29.6613 168.67 30.0844 168.919 30.6817C168.966 30.835 169.025 30.9852 169.093 31.1301C169.218 31.4786 169.367 31.8019 169.516 32.1254C169.597 32.3291 169.689 32.5285 169.79 32.7227C170.039 33.2703 170.288 33.7933 170.561 34.3159C170.593 34.4036 170.635 34.4867 170.686 34.5645C170.935 35.0622 171.184 35.5353 171.458 36.0082C171.731 36.4811 172.08 37.103 172.403 37.6257C173.05 38.671 173.697 39.6172 174.32 40.4883L175.241 41.7327C175.365 41.882 175.465 42.0312 175.589 42.1556C176.136 42.8774 176.659 43.5245 177.157 44.0721C177.941 44.9462 178.772 45.7771 179.646 46.5609L179.969 46.8095C181.139 47.6308 182.309 48.5269 183.429 49.4229L185.022 50.7171L186.167 49.5724H185.868ZM180.467 45.3912L180.069 44.9926L179.596 44.5199C176.989 41.7603 174.717 38.703 172.827 35.4109C172.528 34.8882 172.229 34.3403 171.955 33.7928C171.682 33.2452 171.284 32.499 170.985 31.8022C170.512 30.7817 170.089 29.6865 169.691 28.5665C169.292 27.4465 169.093 26.7992 168.844 25.8784C168.595 24.9575 168.272 23.9124 167.973 22.9666C167.675 22.0208 167.226 20.7514 166.803 19.706C166.38 18.6607 166.281 18.337 165.982 17.6899C164.193 13.1729 161.321 9.16477 157.619 6.01732C157.271 5.71866 156.898 5.44467 156.525 5.17089C156.151 4.89712 155.504 4.49917 154.956 4.2005C154.629 4.00177 154.288 3.82718 153.936 3.67794L153.09 3.27933L152.467 3.03081L151.298 2.60729C150.7 2.43307 150.078 2.259 149.431 2.13456C149.154 2.05865 148.871 2.00851 148.585 1.98508L147.266 1.8113H147.092C146.586 1.77341 146.079 1.77341 145.574 1.8113H146.37C157.968 1.06464 164.464 10.5219 167.55 16.993L168.048 18.1134C169.172 20.7164 170.087 23.4045 170.786 26.1524C170.935 26.7248 171.084 27.2971 171.283 27.8696C171.482 28.442 171.632 29.0143 171.856 29.5867C172.08 30.1592 172.279 30.7066 172.503 31.279C172.727 31.8514 172.926 32.2997 173.15 32.7975V32.9469C173.399 33.5194 173.648 34.0667 173.922 34.6143L174.743 36.2318C174.735 36.3062 174.735 36.3816 174.743 36.456C175.54 37.9742 176.386 39.4426 177.232 40.8115C177.531 41.3093 177.829 41.7823 178.128 42.2303C178.7 43.1263 179.272 43.9725 179.845 44.7192L180.517 45.6647H180.368L180.467 45.3912Z" fill="#2D2A26"/>
<path d="M136.016 6.21651L134.821 5.12141L135.07 4.9223L136.016 6.21651Z" fill="#313130"/>
<path d="M183.877 48.5521C180.815 44.6695 173.921 35.2116 171.432 25.8534C170.736 23.0584 169.803 20.3274 168.645 17.6899C171.701 17.564 174.735 18.2603 177.43 19.706C178.181 20.1381 178.897 20.6293 179.571 21.1747C180.492 21.954 181.326 22.8297 182.06 23.7875C183.267 25.3825 184.254 27.1322 184.997 28.9894C186.259 32.1322 186.812 35.5145 186.619 38.8956C186.425 42.2768 185.489 45.574 183.877 48.5521Z" fill="white"/>
<path d="M175.29 33.5944L175.738 34.49C175.589 34.1914 175.44 33.893 175.315 33.5944H175.29ZM187.212 33.0961C187 31.9873 186.7 30.8975 186.316 29.8362C186.191 29.4628 186.042 29.0896 185.893 28.7163C185.744 28.343 185.545 27.9692 185.395 27.5958C184.893 26.4831 184.293 25.417 183.603 24.41C183.521 24.2497 183.421 24.0995 183.304 23.9622L182.857 23.34C182.119 22.3777 181.285 21.4935 180.368 20.7016C179.895 20.3283 179.422 19.98 178.899 19.6316C178.676 19.4761 178.443 19.335 178.202 19.2087C177.988 19.0808 177.763 18.9722 177.53 18.8848C175.045 17.6699 172.307 17.0643 169.541 17.1178H167.799L168.296 18.2377C169.42 20.8406 170.336 23.5287 171.034 26.2767C171.184 26.8491 171.333 27.422 171.532 27.9944C171.731 28.5669 171.881 29.1392 172.105 29.7116C172.329 30.284 172.528 30.8314 172.752 31.4039C172.976 31.9763 173.175 32.4246 173.399 32.9223V33.0718C173.648 33.6442 173.897 34.1916 174.17 34.7391L174.991 36.3567C174.983 36.4311 174.983 36.5064 174.991 36.5809C175.788 38.0991 176.634 39.5675 177.48 40.9364C177.779 41.4342 178.078 41.9072 178.376 42.3552C178.949 43.2512 179.521 44.0974 180.094 44.8441L180.766 45.7895C181.33 46.6192 181.877 47.3656 182.408 48.0293L183.005 48.801L183.23 49.0999L184.051 50.145L184.3 49.5726V49.3235L184.449 48.9753V48.801L184.599 48.5026C184.723 48.2537 184.822 48.0047 184.922 47.7558C185.021 47.5069 185.246 47.0591 185.37 46.6858C185.945 45.3251 186.403 43.9175 186.739 42.4792C186.961 41.5537 187.119 40.6143 187.212 39.667C187.317 38.8417 187.367 38.0102 187.361 37.1782C187.443 35.816 187.393 34.4487 187.212 33.0961ZM185.893 38.696C185.861 39.213 185.803 39.7283 185.718 40.2394C185.666 40.6579 185.591 41.0733 185.494 41.4839V41.832C185.494 42.1805 185.32 42.5044 185.246 42.8279L185.022 43.5747C184.798 44.3214 184.549 45.0677 184.275 45.7397C184.001 46.4117 183.951 46.5361 183.777 46.9094L183.055 45.9888C182.582 45.3417 182.06 44.6446 181.537 43.898C180.218 42.0064 178.824 39.8659 177.48 37.5513V37.3775C176.958 36.4317 176.41 35.4357 175.913 34.4402C175.763 34.1415 175.613 33.8432 175.489 33.5445C175.265 33.0965 175.066 32.6485 174.867 32.2005C174.668 31.7525 174.444 31.2545 174.245 30.7567C174.045 30.259 173.747 29.5372 173.548 28.915C173.349 28.2928 173.15 27.8201 172.976 27.2726C172.802 26.725 172.652 26.1528 172.503 25.6052C172.353 25.0577 172.129 24.1365 171.905 23.4396C171.681 22.7427 171.457 22.0208 171.233 21.3488C171.009 20.6768 170.76 20.0053 170.511 19.3582C170.511 19.3582 170.511 19.358 170.511 19.2087L170.213 18.4619C172.711 18.5144 175.159 19.1629 177.356 20.3535C177.727 20.5538 178.085 20.7783 178.426 21.0255L179.422 21.7723C180.277 22.5125 181.045 23.3475 181.711 24.2611C182.878 25.7842 183.833 27.4588 184.549 29.2389C185.605 31.7524 186.146 34.4519 186.141 37.1782C186.087 37.6885 186.004 38.195 185.893 38.696Z" fill="#2D2A26"/>
<path d="M189.129 53.8033C187.934 52.6336 186.64 51.489 185.42 50.3939C185.271 50.2446 184.748 49.5975 183.927 48.5771C185.552 45.6096 186.503 42.3203 186.714 38.9437C186.925 35.5671 186.389 32.1858 185.146 29.0393C184.404 27.1821 183.416 25.4324 182.21 23.8374C181.476 22.8796 180.642 22.0039 179.721 21.2245C180.791 21.9712 181.737 22.7176 182.657 23.4892C192.911 32.5237 192.314 44.5945 189.129 53.8033Z" fill="#6FCFEB"/>
<path d="M187.461 39.617C187.461 38.8454 187.585 38.049 187.585 37.1281C187.599 37.9596 187.558 38.7911 187.461 39.617ZM183.728 23.4643L183.13 22.9168C182.682 22.5186 182.259 22.1454 181.811 21.797L180.343 20.7014L179.845 21.3485L179.372 21.9957C180.227 22.7359 180.996 23.5709 181.662 24.4845C182.829 26.0076 183.783 27.6822 184.499 29.4622C185.555 31.9758 186.097 34.6759 186.092 37.4022C186.117 37.883 186.117 38.3645 186.092 38.8453C186.06 39.3623 186.002 39.8776 185.918 40.3887C185.865 40.8072 185.79 41.2225 185.694 41.6331V41.9813C185.694 42.3048 185.544 42.6536 185.445 42.9772L185.221 43.7234C184.997 44.47 184.748 45.217 184.474 45.889C184.201 46.561 184.151 46.6853 183.977 47.0587C183.884 47.2977 183.776 47.5305 183.653 47.7556C183.666 47.796 183.666 47.8398 183.653 47.8802C183.653 48.0295 183.529 48.1537 183.479 48.2782V48.5273V48.7509L183.728 49.0499C184.051 49.4481 184.3 49.7963 184.549 50.0701C184.798 50.3438 185.147 50.7921 185.321 50.9663C185.495 51.1406 187.81 52.9077 189.054 54.1521L189.975 55.0478L190.224 54.4505L190.348 54.0774L190.497 53.6047C191.413 50.9291 192.014 48.156 192.289 45.3415C192.39 44.3159 192.44 43.2859 192.439 42.2553C192.428 38.673 191.645 35.1353 190.141 31.8837C188.638 28.632 186.45 25.743 183.728 23.4145V23.4643ZM190.274 44.4203C190.079 47.117 189.569 49.7821 188.755 52.3602L187.785 51.4391L186.018 49.8465L184.997 48.602C185.121 48.3531 185.221 48.1041 185.321 47.8553C185.42 47.6064 185.644 47.1579 185.769 46.7846C186.343 45.4239 186.801 44.0169 187.138 42.5786C187.36 41.6531 187.517 40.7137 187.61 39.7665C187.61 38.9949 187.735 38.1985 187.735 37.2776C187.726 34.7742 187.288 32.291 186.441 29.9356C186.316 29.5623 186.167 29.1884 186.018 28.8151C185.868 28.4418 185.669 28.0686 185.519 27.6953C188.584 31.5884 190.328 36.3573 190.497 41.3092C190.481 42.3331 190.407 43.3552 190.274 44.3705V44.4203Z" fill="#2D2A26"/>
<path d="M183.554 21.1748C183.552 22.0327 183.212 22.8553 182.608 23.4643C181.687 22.6928 180.741 21.9464 179.671 21.1997C178.997 20.6544 178.281 20.1631 177.53 19.7311C177.794 19.2054 178.2 18.764 178.701 18.4562C179.202 18.1485 179.78 17.9866 180.368 17.989C181.211 17.9955 182.017 18.3329 182.613 18.929C183.209 19.525 183.547 20.3319 183.554 21.1748Z" fill="#6FCFEB"/>
<path d="M180.343 17.2172C179.743 17.2198 179.152 17.3578 178.613 17.6207C178.075 17.8836 177.603 18.2648 177.232 18.7357C177.054 18.9396 176.903 19.1649 176.783 19.4071L176.435 20.1041L177.107 20.4778C177.478 20.6781 177.835 20.9026 178.177 21.1498L179.173 21.896C180.154 22.5771 181.093 23.3172 181.985 24.1114L182.558 24.5841L183.055 24.1114L183.504 23.5888C183.893 22.976 184.113 22.27 184.139 21.5442C184.165 20.8183 183.996 20.0986 183.651 19.4594C183.306 18.8202 182.797 18.2848 182.176 17.9081C181.555 17.5314 180.845 17.3274 180.119 17.3169L180.343 17.2172ZM180.343 18.8597C181.003 18.8597 181.636 19.1221 182.102 19.5888C182.569 20.0556 182.832 20.6884 182.832 21.3485C182.829 21.7381 182.735 22.1222 182.558 22.469L181.836 21.896L180.368 20.801C179.895 20.4277 179.422 20.0794 178.899 19.731C179.252 19.2537 179.764 18.9179 180.343 18.7849V18.8597Z" fill="#2D2A26"/>
</svg>
