<svg width="428" height="428" viewBox="0 0 428 428" fill="none" xmlns="http://www.w3.org/2000/svg">
<path d="M365.313 62.6631C345.487 42.7361 321.907 26.9379 295.936 16.182C269.966 5.42613 242.12 -0.0740023 214.011 4.60452e-06C185.907 4.44514e-06 158.079 5.53584 132.115 16.2912C106.152 27.0466 82.5607 42.8108 62.6898 62.6839C42.8188 82.557 27.0569 106.15 16.3043 132.115C5.55174 158.08 0.0189813 185.908 0.0219739 214.011C0.0219739 214.65 0.0219739 215.287 0.0219739 215.925C0.341652 251.032 9.29431 285.521 26.0904 316.351C42.8866 347.181 67.0102 373.405 96.3342 392.71C125.658 412.015 159.282 423.809 194.24 427.051C229.198 430.293 264.417 424.885 296.792 411.302C329.166 397.719 357.701 376.379 379.88 349.164C402.06 321.949 417.203 289.694 423.973 255.245C430.744 220.796 428.935 185.21 418.705 151.625C408.475 118.04 390.139 87.4882 365.313 62.6631Z" fill="white"/>
</svg>
