<svg width="338" height="342" viewBox="0 0 338 342" fill="none" xmlns="http://www.w3.org/2000/svg">
<g clip-path="url(#clip0_164_1076)">
<g style="mix-blend-mode:multiply" opacity="0.6">
<path d="M319.096 246.996C316.813 254.475 313.014 262.846 307.136 268.22C304.18 270.909 301.279 273.725 298.247 276.359C295.568 278.663 293.124 281.372 290.265 283.399C284.558 287.52 277.256 288.701 270.472 289.73C265.175 290.518 259.845 291.312 254.485 291.294C251.871 291.275 249.159 291.067 246.69 291.943C242.43 293.482 239.511 297.866 237.151 301.514C234.797 305.195 230.132 307.378 226.3 309.256C217.218 313.685 207.15 315.789 197.116 316.221C182.702 316.817 168.351 314.034 154.356 310.514C147.358 308.754 140.433 306.812 133.547 304.693C127.09 302.71 119.701 301.047 113.738 297.928C103.998 292.835 92.6113 290.56 82.3335 286.337C72.1656 282.163 62.1333 277.152 53.3519 270.441C36.2331 257.457 27.7621 238.619 33.7573 217.407C36.8807 206.321 42.3358 195.607 42.473 184.086C42.6335 172.289 37.1727 161.163 35.7257 149.489C35.3263 146.39 35.2072 143.347 35.3355 140.367C35.4735 136.398 36.0402 132.564 36.9971 128.837C38.2119 123.98 40.0367 119.33 42.3393 114.909C45.1079 109.597 48.6016 104.575 52.5669 99.9533C60.1492 91.0725 69.4703 83.5095 79.1095 77.4941C81.6972 75.8849 84.8778 74.5881 87.0931 72.5628C89.9049 70.0329 92.0389 67.7146 95.4588 65.8007C96.4848 65.2266 97.5108 64.6524 98.5966 64.2387C99.3958 63.9394 100.173 63.7117 100.988 63.5118C104.954 62.4621 109.05 62.2082 113.118 61.7884C115.783 61.4936 116.838 60.4724 118.197 59.232C118.877 58.6118 119.639 57.8762 120.781 57.1812C122.685 55.9548 124.949 55.4867 127.141 54.9961C129.762 54.436 132.56 53.9156 135.087 54.8677C135.269 54.9405 135.412 54.9854 135.593 55.0582C140.142 56.7721 143.873 58.0399 148.601 55.2C149.252 54.8226 149.887 54.3457 150.532 53.9351C153.264 52.1666 156.46 51.1736 159.734 51.0863C163.515 50.9852 167.861 52.4937 171.542 51.3542C174.286 50.5022 176.925 48.5786 179.703 47.517C189.955 43.6139 199.543 37.9128 207.916 30.7753C214.201 25.4043 222.001 18.2914 231.228 22.5148C235.693 24.5485 237.861 29.7773 238.379 34.6605C238.898 39.5437 238.178 44.5252 238.801 49.4255C239.76 56.6188 243.591 62.9056 248.107 68.401C250.39 71.1958 252.844 73.7928 255.364 76.3791C256.427 77.5 257.892 78.59 258.778 79.8756C259.795 81.3441 259.674 82.6905 261.413 83.8041C262.813 84.7005 264.418 85.1894 265.867 85.9757C269.485 88.0103 271.608 91.9194 273.149 95.7868C273.721 97.2252 274.232 98.7076 275.112 99.96C275.862 101.03 276.854 101.924 277.818 102.856C278.044 104.249 281.586 107.282 282.482 108.634C283.74 110.54 284.628 112.472 285.627 114.454C287.913 118.949 292.393 122.749 295.75 126.527C297.492 128.491 299.272 130.482 300.401 132.851C301.715 135.531 301.775 138.208 302.011 141.13C302.193 143.516 302.974 144.785 303.972 146.971L303.999 147.137C306.415 152.223 308.461 157.54 310.365 162.811C314.302 173.742 317.435 184.938 319.681 196.312C322.967 212.859 324.223 230.687 319.195 246.98L319.096 246.996Z" fill="#797774"/>
</g>
<path d="M317.643 238.011C315.36 245.49 311.56 253.862 305.682 259.235C302.727 261.924 299.826 264.741 296.794 267.374C294.115 269.679 291.671 272.387 288.812 274.415C283.104 278.535 275.803 279.716 269.019 280.745C263.722 281.534 258.392 282.328 253.032 282.31C250.418 282.29 247.706 282.082 245.237 282.958C240.977 284.497 238.058 288.882 235.698 292.529C233.344 296.21 228.679 298.393 224.847 300.272C215.765 304.7 205.696 306.805 195.663 307.236C181.248 307.832 166.898 305.05 152.903 301.529C145.905 299.769 138.98 297.827 132.094 295.709C125.637 293.725 118.248 292.062 112.285 288.944C102.545 283.851 91.1581 281.575 80.8804 277.352C70.7125 273.179 60.6802 268.167 51.8988 261.456C34.7799 248.472 26.309 229.634 32.3041 208.422C35.4276 197.337 40.8826 186.622 41.0199 175.101C41.1803 163.304 35.7195 152.178 34.2726 140.504C33.8731 137.405 33.7541 134.363 33.8824 131.382C34.0204 127.413 34.587 123.579 35.5439 119.852C36.7588 114.995 38.5836 110.345 40.8862 105.925C43.6548 100.612 47.1485 95.5902 51.1138 90.9686C58.6961 82.0878 68.0172 74.5248 77.6563 68.5093C80.244 66.9002 83.4247 65.6033 85.64 63.5781C88.4517 61.0481 90.5857 58.7299 94.0057 56.816C95.0317 56.2418 96.0576 55.6677 97.1435 55.254C97.9426 54.9546 98.7195 54.7269 99.5348 54.5271C103.501 53.4774 107.597 53.2234 111.665 52.8037C114.33 52.5089 115.385 51.4877 116.744 50.2473C117.423 49.6271 118.186 48.8914 119.328 48.1964C121.232 46.97 123.495 46.5019 125.688 46.0113C128.309 45.4513 131.107 44.9308 133.634 45.883C133.816 45.9558 133.958 46.0007 134.14 46.0734C138.689 47.7873 142.42 49.0551 147.148 46.2153C147.799 45.8379 148.434 45.361 149.079 44.9504C151.811 43.1819 155.007 42.1888 158.281 42.1016C162.062 42.0005 166.408 43.509 170.089 42.3695C172.833 41.5175 175.472 39.5939 178.25 38.5323C188.502 34.6291 198.09 28.9281 206.463 21.7906C212.748 16.4196 220.548 9.30664 229.775 13.5301C234.24 15.5637 236.408 20.7926 236.926 25.6758C237.445 30.559 236.724 35.5404 237.347 40.4408C238.307 47.634 242.138 53.9208 246.654 59.4163C248.937 62.2111 251.391 64.8081 253.911 67.3943C254.974 68.5153 256.439 69.6052 257.325 70.8908C258.342 72.3593 258.221 73.7058 259.96 74.8193C261.36 75.7157 262.964 76.2047 264.414 76.9909C268.031 79.0255 270.155 82.9347 271.696 86.802C272.268 88.2405 272.779 89.7228 273.659 90.9753C274.409 92.0449 275.401 92.9391 276.365 93.8717C276.591 95.2642 280.132 98.2977 281.029 99.6496C282.287 101.556 283.175 103.487 284.174 105.469C286.46 109.964 290.94 113.765 294.297 117.542C296.039 119.506 297.818 121.498 298.947 123.867C300.262 126.546 300.322 129.224 300.557 132.145C300.74 134.531 301.521 135.8 302.519 137.986L302.546 138.152C304.962 143.238 307.008 148.555 308.912 153.827C312.849 164.757 315.982 175.954 318.228 187.327C321.514 203.875 322.77 221.703 317.742 237.995L317.643 238.011Z" fill="#FFED9A"/>
<path d="M244.504 283.246C241.528 285.599 237.726 289.344 235.665 292.535C233.311 296.215 228.651 298.432 224.814 300.277C215.731 304.705 205.663 306.81 195.63 307.242C181.215 307.837 166.865 305.055 152.87 301.535C145.872 299.774 138.947 297.832 132.061 295.714C125.603 293.73 118.215 292.067 112.252 288.949C102.512 283.856 91.1197 281.548 80.8419 277.324C70.674 273.151 60.6417 268.139 51.8604 261.428C34.7799 248.472 26.3089 229.634 32.3041 208.422C33.8796 202.86 40.1223 191.985 40.8453 170.877C52.9482 174.227 62.5131 202.346 73.7152 207.883C88.41 215.101 106.612 219.268 114.642 226.577C115.92 227.765 117.524 228.254 118.751 229.552C120.176 231.023 121.661 232.45 123.229 233.761C126.366 236.384 129.79 238.688 133.419 240.585C140.683 244.411 148.718 246.718 156.871 247.237C160.777 247.49 164.794 247.589 168.61 246.869C172.818 246.053 176.1 244.127 180.205 242.885C188.476 240.357 197.515 238.181 206.138 236.991C208.626 236.656 211.17 236.449 213.682 236.893C214.485 237.036 216.141 237.21 216.749 237.826C217.445 238.564 217.29 239.916 217.479 240.872C218.501 246.354 221.43 251.052 223.511 256.159C226.288 263.058 231.47 269.739 235.438 276.241C236.41 277.853 238.267 278.642 239.394 280.16C240.423 281.491 243.718 281.741 244.46 283.186L244.504 283.246Z" fill="#FFE664"/>
<path d="M247.021 282.669C244.598 283.197 242.037 282.455 239.962 281.157C237.855 279.865 236.085 278.144 234.464 276.297C231.354 272.581 228.575 268.608 226.073 264.454C223.57 260.3 221.151 256.03 219.591 251.417C217.998 246.81 216.924 242.051 216.647 237.196L216.945 237.148C218.819 241.608 220.484 246.034 222.402 250.35C224.288 254.672 225.98 259.059 228.152 263.267C230.352 267.436 232.844 271.524 235.629 275.326C237.018 277.211 238.563 279.002 240.444 280.365C242.293 281.733 244.578 282.656 246.935 282.343L246.983 282.642L247.021 282.669Z" fill="#2D2A26"/>
<path d="M39.5636 169.451C41.3782 169.77 43.0642 170.552 44.4851 171.581C45.8836 172.682 47.1991 173.898 48.4815 175.119C51.0464 177.562 53.3515 180.285 55.5574 183.025C59.9416 188.541 63.857 194.304 68.2698 199.578C72.6441 204.825 77.565 209.676 83.5687 212.21C89.5832 214.809 96.5307 215.421 103.483 217.529C106.94 218.569 110.432 220.249 113.322 222.606C116.234 224.89 118.6 227.57 121 230.039C123.367 232.514 125.889 234.692 128.615 236.667C131.425 238.526 134.322 240.303 137.393 241.677C143.544 244.493 150.294 246.191 157.127 246.515C163.959 247.043 170.881 246.026 177.521 243.897C171.169 246.762 164.147 248.203 157.076 248.292C149.999 248.348 142.923 246.941 136.264 244.343C129.611 241.779 123.538 237.556 118.452 232.526C115.954 230.073 113.582 227.565 110.96 225.607C108.365 223.611 105.416 222.353 102.239 221.37C95.9087 219.332 88.746 218.857 81.9358 215.74C75.1149 212.556 69.9985 207.124 65.708 201.558C61.3792 195.964 57.6736 190.031 53.5867 184.466C51.546 181.7 49.4115 178.983 47.0172 176.547C44.6398 174.005 41.8241 172.318 39.4922 169.429L39.5636 169.451Z" fill="#2D2A26"/>
<path d="M317.643 238.011C315.36 245.491 311.56 253.862 305.682 259.235C302.727 261.924 299.826 264.741 296.794 267.374C294.115 269.679 291.671 272.387 288.812 274.415C283.104 278.535 275.803 279.716 269.019 280.745C264.487 276.205 260.798 269.113 259.024 262.969C257.214 256.594 263.22 250.758 261.399 244.316C260.212 240.12 255.947 237.645 253.557 233.983C251.491 230.847 250.869 227.002 250.368 223.272C249.833 219.548 249.277 215.692 247.304 212.507C244.878 208.613 242.161 209.426 238.779 207.796C235.621 206.299 235.35 202.737 233.668 199.675C231.555 195.832 226.976 193.51 222.626 194.078C214.422 195.132 212.504 204.866 208.084 210.446C203.668 216.059 197.512 220.967 190.396 222.458C185.973 223.411 176.695 223.483 173.342 219.942C171.589 218.116 171.045 215.381 169.353 213.511C167.786 211.791 165.456 211.011 163.491 209.764C156.428 205.293 161.797 192.994 154.446 187.582C149.52 183.956 142.351 186.17 137.657 190.059C132.925 193.92 129.479 199.24 124.484 202.736C121.741 204.642 119.35 206.628 115.97 204.385C113.995 203.071 112.738 200.961 111.586 198.868C110.439 196.808 109.276 194.648 107.378 193.186C103.66 190.317 98.7698 191.108 94.4147 190.384C88.553 189.358 87.3616 187.442 87.2932 181.567C87.2147 174.163 90.8116 164.328 88.3051 157.215C86.2829 151.418 79.0484 147.144 73.2002 146.831C67.2806 146.496 61.264 149.544 58.0015 154.528C56.0962 157.422 54.2963 161.387 50.8628 161.33C48.6178 161.285 46.854 159.393 45.5411 157.564C38.3802 147.665 35.0106 135.214 35.789 123.045C36.6084 110.291 42.9895 100.481 51.1469 90.9632C58.7292 82.0824 68.0503 74.5195 77.6894 68.504C80.2771 66.8948 83.4578 65.598 85.6731 63.5728C88.4848 61.0428 90.6188 58.7245 94.0387 56.8107C95.0647 56.2365 96.0907 55.6624 97.1765 55.2486C97.9757 54.9493 98.7526 54.7216 99.5679 54.5217C103.534 53.4721 107.63 53.2181 111.698 52.7984C114.363 52.5035 115.418 51.4824 116.777 50.242C117.456 49.6218 118.219 48.8861 119.361 48.1911C121.265 46.9647 123.528 46.4966 125.721 46.006C128.342 45.446 131.14 44.9255 133.667 45.8777C133.849 45.9504 133.991 45.9954 134.173 46.0681C138.722 47.782 142.453 49.0498 147.181 46.21C147.832 45.8326 148.467 45.3557 149.112 44.9451C151.844 43.1766 155.04 42.1835 158.314 42.0962C162.095 41.9952 166.441 43.5037 170.122 42.3641C172.866 41.5122 175.505 39.5886 178.283 38.527C188.535 34.6238 198.123 28.9228 206.496 21.7853C212.781 16.4143 220.581 9.30133 229.808 13.5248C234.273 15.5584 236.441 20.7873 236.959 25.6705C237.478 30.5537 236.758 35.5351 237.38 40.4354C238.34 47.6287 242.171 53.9155 246.687 59.411C248.97 62.2058 251.424 64.8027 253.944 67.389C255.007 68.51 256.472 69.5999 257.358 70.8855C258.375 72.354 258.254 73.7005 259.993 74.814C261.393 75.7104 262.997 76.1994 264.447 76.9856C268.064 79.0202 270.188 82.9293 271.729 86.7967C272.301 88.2352 272.812 89.7175 273.692 90.97C274.442 92.0395 275.434 92.9337 276.398 93.8664C276.624 95.2589 280.165 98.2924 281.062 99.6443C282.32 101.55 283.208 103.482 284.207 105.464C286.493 109.959 290.973 113.759 294.33 117.537C296.072 119.501 297.852 121.492 298.98 123.861C300.295 126.54 300.355 129.218 300.59 132.14C300.773 134.526 301.554 135.795 302.552 137.981L302.579 138.147C304.995 143.233 307.041 148.55 308.945 153.821C312.882 164.752 316.015 175.948 318.261 187.322C321.547 203.869 322.803 221.697 317.775 237.99L317.643 238.011Z" fill="#FFF5CC"/>
<path d="M173.587 198.81C175.121 201.59 176.666 204.436 178.891 206.661C181.148 208.882 184.223 210.494 187.366 210.224C190.411 209.97 193.187 207.854 194.432 205.067C195.638 202.252 195.323 198.833 193.655 196.279C190.025 190.606 181.133 189.288 178.981 182.9C178.269 180.804 178.477 178.525 178.222 176.321C177.324 167.621 165.804 169.552 164.788 176.895C163.84 183.614 170.611 193.406 173.597 198.876L173.587 198.81Z" fill="white"/>
<path d="M61.6339 100.256C71.05 87.2004 84.8528 77.79 99.6275 71.4544C114.407 65.152 130.265 61.7372 146.086 58.9406C156.467 57.0918 167.023 55.487 176.845 51.6532C184.755 48.5711 192.032 44.0943 199.249 39.6613C206.129 35.4528 213.004 31.2112 219.884 27.0028C214.069 36.9586 201.675 41.038 194.214 49.8311C190.57 54.1287 188.198 59.3773 184.35 63.4696C178.242 69.9347 169.288 72.6413 160.732 75.0796C145.762 79.3714 130.788 83.6301 115.818 87.9219C103.113 91.5414 89.7624 95.5714 80.5978 105.15C72.102 114.043 68.4678 126.163 61.4973 136.102C59.8473 138.478 58.0107 140.748 55.8892 142.724C52.9997 145.403 51.7113 146.87 50.425 142.689C48.5089 136.501 49.9976 128.096 51.482 121.97C53.4083 114.174 56.8902 106.773 61.6009 100.261L61.6339 100.256Z" fill="white"/>
<path d="M317.643 238.011C315.36 245.49 311.56 253.862 305.682 259.235C302.727 261.924 299.826 264.741 296.794 267.374C294.115 269.679 291.671 272.387 288.812 274.415C283.104 278.535 275.803 279.716 269.019 280.745C263.722 281.534 258.392 282.328 253.032 282.31C250.418 282.29 247.706 282.082 245.237 282.958C240.977 284.497 238.058 288.882 235.698 292.529C233.344 296.21 228.679 298.393 224.847 300.272C215.765 304.7 205.696 306.804 195.663 307.236C181.248 307.832 166.898 305.05 152.903 301.529C145.905 299.769 138.98 297.827 132.094 295.709C125.637 293.725 118.248 292.062 112.285 288.944C102.545 283.851 91.1581 281.575 80.8804 277.352C70.7125 273.179 60.6802 268.167 51.8988 261.456C34.7799 248.472 26.309 229.634 32.3041 208.422C35.4276 197.337 40.8826 186.622 41.0199 175.101C41.1803 163.304 35.7195 152.178 34.2726 140.504C33.8731 137.405 33.7541 134.363 33.8824 131.382C34.0204 127.413 34.587 123.579 35.5439 119.852C36.7588 114.995 38.5836 110.345 40.8862 105.925C43.6548 100.612 47.1485 95.5902 51.1138 90.9686C58.6961 82.0878 68.0172 74.5248 77.6563 68.5093C80.244 66.9002 83.4247 65.6033 85.64 63.5781C88.4517 61.0481 90.5857 58.7299 94.0057 56.816C95.0316 56.2418 96.0576 55.6677 97.1435 55.254C97.9426 54.9546 98.7195 54.7269 99.5348 54.5271C103.501 53.4774 107.597 53.2234 111.665 52.8037C114.33 52.5089 115.385 51.4877 116.744 50.2473C117.423 49.6271 118.186 48.8914 119.328 48.1964C121.232 46.97 123.495 46.5019 125.688 46.0113C128.309 45.4513 131.107 44.9308 133.634 45.883C133.816 45.9558 133.958 46.0007 134.14 46.0734C138.689 47.7873 142.42 49.0551 147.148 46.2153C147.799 45.8379 148.434 45.361 149.079 44.9504C151.811 43.1819 155.007 42.1888 158.281 42.1016C162.062 42.0005 166.408 43.509 170.089 42.3695C172.833 41.5175 175.472 39.5939 178.25 38.5323C188.502 34.6291 198.09 28.9281 206.463 21.7906C212.748 16.4196 220.548 9.30664 229.775 13.5301C234.24 15.5637 236.408 20.7926 236.926 25.6758C237.445 30.559 236.724 35.5404 237.347 40.4408C238.307 47.634 242.138 53.9208 246.654 59.4163C248.937 62.2111 251.391 64.8081 253.911 67.3943C254.974 68.5153 256.439 69.6052 257.325 70.8908C258.342 72.3593 258.221 73.7058 259.96 74.8193C261.36 75.7157 262.964 76.2047 264.414 76.9909C268.031 79.0255 270.155 82.9347 271.696 86.802C272.268 88.2405 272.779 89.7228 273.659 90.9753C274.409 92.0449 275.401 92.9391 276.365 93.8717C276.591 95.2642 280.132 98.2977 281.029 99.6496C282.287 101.556 283.175 103.487 284.174 105.469C286.46 109.964 290.94 113.765 294.297 117.542C296.039 119.506 297.818 121.498 298.947 123.867C300.262 126.546 300.322 129.224 300.557 132.145C300.74 134.531 301.521 135.8 302.519 137.986L302.546 138.152C304.962 143.238 307.008 148.555 308.912 153.827C312.849 164.757 315.982 175.954 318.228 187.327C321.514 203.875 322.77 221.703 317.742 237.995L317.643 238.011Z" stroke="#2D2A26" stroke-width="0.88" stroke-miterlimit="10"/>
<path d="M317.643 238.011C315.36 245.491 311.56 253.862 305.682 259.235C302.727 261.924 299.826 264.741 296.794 267.374C294.115 269.679 291.671 272.387 288.812 274.415C283.104 278.535 275.803 279.716 269.019 280.745C264.487 276.205 260.798 269.113 259.024 262.969C257.214 256.594 263.22 250.758 261.399 244.316C260.212 240.12 255.947 237.645 253.557 233.983C251.491 230.847 250.869 227.002 250.368 223.272C249.833 219.548 249.277 215.692 247.304 212.507C244.878 208.613 242.161 209.426 238.779 207.796C235.621 206.299 235.35 202.737 233.668 199.675C231.555 195.832 226.976 193.51 222.626 194.078C214.422 195.132 212.504 204.866 208.084 210.446C203.668 216.059 197.512 220.967 190.396 222.458C185.973 223.411 176.695 223.483 173.342 219.942C171.589 218.116 171.045 215.381 169.353 213.511C167.786 211.791 165.456 211.011 163.491 209.764C156.428 205.293 161.797 192.994 154.446 187.582C149.52 183.956 142.351 186.17 137.657 190.059C132.925 193.92 129.479 199.24 124.484 202.736C121.741 204.642 119.35 206.628 115.97 204.385C113.995 203.071 112.738 200.961 111.586 198.868C110.439 196.808 109.276 194.648 107.378 193.186C103.66 190.317 98.7698 191.108 94.4147 190.384C88.553 189.358 87.3616 187.442 87.2932 181.567C87.2147 174.163 90.8116 164.328 88.3051 157.215C86.2829 151.418 79.0484 147.144 73.2002 146.831C67.2806 146.496 61.264 149.544 58.0015 154.528C56.0962 157.422 54.2963 161.387 50.8628 161.33C48.6178 161.285 46.854 159.393 45.5411 157.564C38.3802 147.665 35.0106 135.214 35.789 123.045C36.6084 110.291 42.9895 100.481 51.1469 90.9632C58.7292 82.0824 68.0503 74.5195 77.6894 68.504C80.2771 66.8948 83.4578 65.598 85.6731 63.5728C88.4848 61.0428 90.6188 58.7245 94.0387 56.8107C95.0647 56.2365 96.0907 55.6624 97.1765 55.2486C97.9757 54.9493 98.7526 54.7216 99.5679 54.5217C103.534 53.4721 107.63 53.2181 111.698 52.7984C114.363 52.5035 115.418 51.4824 116.777 50.242C117.456 49.6218 118.219 48.8861 119.361 48.1911C121.265 46.9647 123.528 46.4966 125.721 46.006C128.342 45.446 131.14 44.9255 133.667 45.8777C133.849 45.9504 133.991 45.9954 134.173 46.0681C138.722 47.782 142.453 49.0498 147.181 46.21C147.832 45.8326 148.467 45.3557 149.112 44.9451C151.844 43.1766 155.04 42.1835 158.314 42.0962C162.095 41.9952 166.441 43.5037 170.122 42.3641C172.866 41.5122 175.505 39.5886 178.283 38.527C188.535 34.6238 198.123 28.9228 206.496 21.7853C212.781 16.4143 220.581 9.30133 229.808 13.5248C234.273 15.5584 236.441 20.7873 236.959 25.6705C237.478 30.5537 236.758 35.5351 237.38 40.4354C238.34 47.6287 242.171 53.9155 246.687 59.411C248.97 62.2058 251.424 64.8027 253.944 67.389C255.007 68.51 256.472 69.5999 257.358 70.8855C258.375 72.354 258.254 73.7005 259.993 74.814C261.393 75.7104 262.997 76.1994 264.447 76.9856C268.064 79.0202 270.188 82.9294 271.729 86.7967C272.301 88.2352 272.812 89.7175 273.692 90.97C274.442 92.0395 275.434 92.9337 276.398 93.8664C276.624 95.2589 280.165 98.2924 281.062 99.6443C282.32 101.55 283.208 103.482 284.207 105.464C286.493 109.959 290.973 113.759 294.33 117.537C296.072 119.501 297.852 121.492 298.98 123.861C300.295 126.54 300.355 129.218 300.59 132.14C300.773 134.526 301.554 135.795 302.552 137.981L302.579 138.147C304.995 143.233 307.041 148.55 308.945 153.821C312.882 164.752 316.015 175.948 318.261 187.322C321.547 203.869 322.803 221.697 317.775 237.99L317.643 238.011Z" stroke="#2D2A26" stroke-width="3" stroke-miterlimit="10"/>
</g>
<defs>
<clipPath id="clip0_164_1076">
<rect width="293.222" height="298.029" fill="white" transform="translate(-0.000488281 46.8081) rotate(-9.18563)"/>
</clipPath>
</defs>
</svg>
