<svg width="220" height="260" viewBox="0 0 220 260" fill="none" xmlns="http://www.w3.org/2000/svg">
<path d="M35.0317 28.4278L168.232 2.32066C197.19 -3.34704 222.674 22.046 216.936 50.8754L182.218 225.191C175.001 261.383 127.373 270.711 106.933 239.94L8.44984 91.7319C-7.84443 67.2091 6.07406 34.0955 35.0317 28.4278Z" stroke="black" stroke-width="3" stroke-miterlimit="10"/>
<path d="M127.911 162.645C112.155 139.104 101.329 128.014 90.3245 93.2269C81.3593 64.8438 104.512 53.5754 121.165 101.26C118.879 57.3687 148.554 47.5283 147.119 92.8253C145.864 133.213 127.911 162.645 127.911 162.645Z" fill="black"/>
<path d="M149.966 229.162L149.719 226.953C149.316 226.864 149.114 226.507 149.069 225.905C148.778 225.793 148.397 225.391 147.971 224.655C147.142 224.209 146.604 224.008 146.38 224.097C145.438 223.718 144.699 223.606 144.161 223.74L143.802 223.517C143.937 223.428 143.399 223.517 142.189 223.762C141.628 223.874 141.27 224.053 141.113 224.343H140.709C140.53 224.387 140.351 224.521 140.104 224.744C139.858 224.99 139.611 225.101 139.365 225.101L137.93 226.507V226.663C138.02 226.998 137.93 227.199 137.639 227.288L137.706 227.578C137.706 227.578 137.661 227.824 137.549 228.047C137.437 228.27 137.392 228.471 137.415 228.627C137.437 228.738 137.482 228.85 137.549 228.962C137.28 229.229 137.19 229.631 137.303 230.167C137.347 230.457 137.504 230.925 137.751 231.55C137.953 231.572 138.109 231.795 138.199 232.264C138.244 232.509 138.423 232.621 138.692 232.599V232.8C138.692 232.956 138.894 233.157 139.252 233.38C139.611 233.625 139.79 233.826 139.835 233.982H139.947C140.396 233.871 140.821 234.049 141.225 234.495L141.561 234.317C141.718 234.272 141.875 234.317 142.032 234.495C142.189 234.674 142.323 234.719 142.502 234.674C142.614 234.652 142.727 234.607 142.839 234.54C143.197 234.719 143.713 234.741 144.385 234.607C144.632 234.562 145.192 234.406 146.088 234.161C146.044 233.915 146.402 233.737 147.209 233.581C147.433 233.514 147.725 233.29 148.038 232.844C148.375 232.42 148.688 232.197 148.957 232.175L148.913 231.952C148.913 231.952 149.025 231.572 149.338 231.193C149.675 230.791 149.764 230.524 149.652 230.323C149.787 230.256 149.854 230.077 149.809 229.743C149.764 229.43 149.809 229.229 149.966 229.162Z" fill="black" stroke="black" stroke-width="0.17" stroke-linecap="round" stroke-linejoin="round"/>
<path d="M125.759 197.343C126.634 198.659 127.239 200.043 127.53 201.471C127.844 202.899 127.866 204.305 127.597 205.666C127.351 207.027 126.835 208.299 126.051 209.482C125.266 210.664 124.258 211.668 122.958 212.516C121.68 213.364 120.335 213.9 118.946 214.145C117.556 214.391 116.189 214.368 114.822 214.078C113.455 213.788 112.177 213.23 110.989 212.382C109.801 211.557 108.748 210.463 107.851 209.125C106.977 207.786 106.372 206.425 106.081 205.019C105.789 203.613 105.745 202.23 106.014 200.846C106.26 199.485 106.776 198.213 107.56 197.053C108.345 195.893 109.376 194.866 110.675 194.018C111.975 193.17 113.32 192.612 114.687 192.345C116.077 192.077 117.444 192.122 118.811 192.412C120.179 192.724 121.456 193.282 122.622 194.107C123.809 194.933 124.84 196.004 125.715 197.343H125.759ZM123.541 198.816C122.891 197.856 122.151 197.075 121.277 196.473C120.403 195.87 119.461 195.469 118.453 195.268C117.444 195.067 116.413 195.067 115.382 195.268C114.351 195.469 113.343 195.893 112.379 196.517C111.415 197.164 110.631 197.901 110.048 198.793C109.465 199.686 109.062 200.623 108.86 201.627C108.658 202.631 108.658 203.658 108.86 204.684C109.062 205.733 109.488 206.737 110.138 207.674C110.788 208.656 111.55 209.437 112.424 210.039C113.298 210.642 114.239 211.044 115.27 211.267C116.279 211.468 117.31 211.49 118.363 211.267C119.394 211.066 120.403 210.642 121.366 210.017C122.33 209.392 123.115 208.634 123.697 207.741C124.28 206.871 124.684 205.911 124.885 204.907C125.087 203.881 125.087 202.877 124.885 201.828C124.684 200.779 124.235 199.775 123.585 198.793L123.541 198.816Z" fill="black"/>
<path d="M112.222 176.948C113.096 178.265 113.701 179.648 113.993 181.054C114.284 182.46 114.306 183.843 114.06 185.204C113.791 186.565 113.275 187.815 112.513 188.998C111.729 190.18 110.698 191.184 109.398 192.055C108.098 192.903 106.753 193.46 105.364 193.706C103.974 193.951 102.607 193.929 101.24 193.639C99.8724 193.349 98.6173 192.791 97.4294 191.943C96.2415 191.095 95.2105 190.046 94.3364 188.708C93.4399 187.369 92.8572 185.985 92.5434 184.535C92.252 183.107 92.2744 181.679 92.6554 180.295L95.3002 180.875C95.0312 181.991 95.0088 183.084 95.2329 184.133C95.4347 185.182 95.8605 186.186 96.4881 187.123C97.138 188.105 97.9001 188.908 98.7966 189.511C99.6931 190.136 100.634 190.537 101.643 190.76C102.652 190.984 103.683 190.984 104.736 190.76C105.789 190.56 106.798 190.136 107.762 189.511C108.726 188.886 109.51 188.127 110.115 187.235C110.72 186.365 111.101 185.405 111.303 184.401C111.505 183.397 111.482 182.37 111.258 181.299C111.034 180.251 110.608 179.224 109.958 178.242C109.331 177.305 108.569 176.524 107.672 175.922C106.776 175.319 105.767 174.918 104.602 174.717L105.095 172.061C106.529 172.262 107.851 172.776 109.062 173.601C110.272 174.427 111.348 175.52 112.244 176.881L112.222 176.948Z" fill="black"/>
<path d="M101.195 160.391C102.069 161.708 102.674 163.091 102.966 164.519C103.279 165.948 103.302 167.353 103.033 168.714C102.786 170.076 102.271 171.347 101.486 172.53C100.702 173.713 99.6933 174.717 98.3933 175.565C97.1158 176.413 95.771 176.948 94.3814 177.194C92.9918 177.439 91.6246 177.417 90.2574 177.127C88.8902 176.837 87.6126 176.279 86.4247 175.431C85.2369 174.605 84.1834 173.512 83.2869 172.173C82.4128 170.857 81.8077 169.473 81.5163 168.067C81.2249 166.662 81.1801 165.278 81.4266 163.895C81.6732 162.533 82.1887 161.262 82.9731 160.079C83.7576 158.919 84.7886 157.892 86.0885 157.044C87.3885 156.196 88.7333 155.639 90.1005 155.371C91.4901 155.125 92.8573 155.148 94.2245 155.438C95.5917 155.75 96.8692 156.308 98.0571 157.134C99.245 157.959 100.276 159.03 101.15 160.369L101.195 160.391ZM98.976 161.864C98.3261 160.905 97.5864 160.124 96.6899 159.521C95.8158 158.919 94.8745 158.517 93.8659 158.316C92.8573 158.115 91.8263 158.115 90.7953 158.316C89.7643 158.517 88.7557 158.919 87.7919 159.566C86.8282 160.213 86.0437 160.949 85.461 161.842C84.8782 162.712 84.4748 163.649 84.2731 164.653C84.0714 165.657 84.0714 166.684 84.2731 167.71C84.4748 168.759 84.9231 169.763 85.5506 170.723C86.2006 171.704 86.9626 172.485 87.8368 173.088C88.7109 173.69 89.6522 174.092 90.6832 174.315C91.6918 174.516 92.7228 174.538 93.7762 174.315C94.8072 174.114 95.8158 173.713 96.7796 173.066C97.7433 172.441 98.5278 171.682 99.1105 170.79C99.6933 169.919 100.097 168.96 100.298 167.956C100.5 166.952 100.5 165.925 100.298 164.876C100.097 163.85 99.6484 162.824 98.9984 161.842L98.976 161.864Z" fill="black"/>
<path d="M92.9245 148.364L75.4423 159.878L66.7236 146.758L68.8529 145.352L75.9354 156.018L80.9335 152.738L77.325 147.315C75.9578 145.24 75.3302 143.388 75.4871 141.737C75.644 140.086 76.5405 138.725 78.1767 137.631C79.8801 136.516 81.5611 136.248 83.2645 136.806C84.9454 137.364 86.5143 138.747 87.9712 140.911L92.9245 148.364ZM89.316 147.204L86.0661 142.317C85.1023 140.867 84.1161 139.974 83.0627 139.595C82.0093 139.216 80.9559 139.394 79.8801 140.108C77.7733 141.492 77.706 143.634 79.6335 146.557L82.8834 151.444L89.2936 147.226L89.316 147.204Z" fill="black"/>
<path d="M81.9643 131.428C82.1212 131.674 82.2781 131.941 82.4126 132.209C82.5471 132.477 82.6815 132.789 82.816 133.124L80.4851 134.418C80.373 134.106 80.2385 133.816 80.0592 133.548C79.5661 132.812 78.8937 132.432 78.0196 132.388C77.1455 132.343 76.0473 132.611 74.7473 133.169C73.4474 133.726 71.856 134.574 69.9958 135.69L62.4426 140.264L54.3066 128.014L71.7888 116.5L73.4025 118.932L57.4445 129.442L57.691 128.416L63.5632 137.23L62.5322 137.118L68.4493 133.503C70.2199 132.41 71.8112 131.54 73.2232 130.87C74.6353 130.201 75.9128 129.755 77.011 129.554C78.1317 129.353 79.073 129.398 79.9023 129.688C80.7092 129.978 81.404 130.558 81.9867 131.406L81.9643 131.428Z" fill="black"/>
<path d="M68.9872 112.328L51.505 123.841L49.8688 121.387L63.3615 112.506L43.0329 111.1L41.5088 108.802L58.9909 97.288L60.6047 99.7202L47.1569 108.579L67.4631 110.029L68.9872 112.305V112.328Z" fill="black"/>
<path d="M56.2346 93.1153L38.7525 104.629L33.7768 97.1541C32.5216 95.2575 31.9165 93.5393 31.9613 91.955C32.0061 90.3707 32.7682 89.0989 34.225 88.1394C35.6595 87.2022 37.0939 87.0014 38.5283 87.5146C39.9628 88.0278 41.2403 89.1435 42.3609 90.817L41.3075 90.8616C40.0076 88.9203 39.4248 87.1799 39.5145 85.6402C39.6041 84.1006 40.3886 82.8287 41.8679 81.8692C43.3695 80.8874 44.8936 80.6642 46.4625 81.1998C48.0314 81.7353 49.5107 83.0741 50.9451 85.1939L56.2346 93.1376V93.1153ZM44.804 97.1095L41.5765 92.2674C40.7696 91.0625 39.9179 90.2815 39.0214 89.9691C38.1249 89.6567 37.206 89.7906 36.2646 90.4154C35.3233 91.0402 34.8078 91.8211 34.7629 92.7806C34.6957 93.7401 35.0767 94.8112 35.8836 96.0384L39.1111 100.881L44.8264 97.1095H44.804ZM52.6261 91.955L49.0176 86.5105C48.1435 85.1939 47.2246 84.346 46.2832 84.0113C45.3419 83.6543 44.3781 83.8328 43.3471 84.5022C42.3385 85.1716 41.823 85.9972 41.8006 86.979C41.8006 87.9608 42.2041 89.0988 43.1006 90.4377L46.7091 95.8822L52.6261 91.9773V91.955Z" fill="black"/>
<path d="M46.0813 77.8751L23.3769 81.5122L21.7407 79.0577L33.9558 59.6447L35.6816 62.2554L24.2734 79.8833L23.6234 78.8792L44.3779 75.3313L46.0813 77.8974V77.8751ZM39.4918 77.4065L37.0488 78.0536L30.549 68.2578L32.0731 66.2273L39.5143 77.4065H39.4918Z" fill="black"/>
<path d="M62.6671 62.4339L58.6104 41.9722L66.6342 40.3879C68.4273 40.0309 70.0186 40.0086 71.4082 40.3433C72.7978 40.6557 73.9409 41.2805 74.8374 42.2176C75.7339 43.1548 76.3391 44.3598 76.6304 45.8548C76.9218 47.3498 76.8321 48.6663 76.3615 49.8713C75.8908 51.0762 75.0615 52.0803 73.9184 52.9059C72.753 53.7315 71.2737 54.3117 69.4807 54.6687L63.0705 55.9183L64.124 54.2894L65.6256 61.8538L62.6895 62.4339H62.6671ZM64.1688 54.5795L62.555 53.3745L68.8755 52.1473C70.7582 51.7679 72.103 51.0985 72.9099 50.1167C73.7167 49.1349 73.9857 47.9076 73.6943 46.4349C73.403 44.9622 72.7081 43.9358 71.5651 43.3333C70.422 42.7309 68.9428 42.597 67.0601 42.9763L60.7396 44.2036L61.7706 42.4854L64.1688 54.5795Z" fill="black"/>
<path d="M87.9711 53.8208L75.5991 38.6698L78.7369 38.045L89.1142 51.1655L87.9711 53.8208ZM81.8075 56.0299C82.9058 56.2084 83.8471 56.1191 84.6764 55.7621C85.5057 55.4051 86.1557 54.6018 86.6039 53.3522L87.2987 51.5895L87.5229 51.2101L92.2296 35.412L95.1433 34.8541L89.3383 53.4861C88.9125 54.9142 88.3073 56.0299 87.5229 56.8555C86.7384 57.6811 85.8419 58.239 84.8109 58.5067C83.7799 58.7745 82.6816 58.7745 81.5162 58.529L81.8075 56.0522V56.0299Z" fill="black"/>
<path d="M113.701 43.802C112.648 44.516 111.595 45.0962 110.564 45.5647C109.533 46.0333 108.502 46.3457 107.471 46.5465C104.96 47.0375 102.898 46.8143 101.285 45.8771C99.6708 44.94 98.6398 43.3557 98.1915 41.102L96.8691 34.4748L99.7604 33.917L101.016 40.2318C101.307 41.7491 102.024 42.8201 103.122 43.4672C104.221 44.092 105.61 44.2482 107.291 43.9358C108.3 43.735 109.286 43.4003 110.295 42.954C111.281 42.4854 112.244 41.9276 113.141 41.2359L113.724 43.8243L113.701 43.802ZM114.844 52.1919L110.788 31.7302L113.701 31.1724L117.736 51.6341L114.822 52.1919H114.844Z" fill="black"/>
<path d="M125.625 50.0944L122.689 50.6746L118.632 30.2129L121.568 29.6327L125.625 50.0944ZM135.89 38.6029L123.518 41.0351L123.025 38.4913L135.397 36.0591L135.89 38.6029ZM133.38 27.3121L136.316 26.7319L140.373 47.1937L137.437 47.7738L133.38 27.3121Z" fill="black"/>
<path d="M142.95 46.7027L148.217 24.4113L151.131 23.8311L164.511 42.4631L161.418 43.0656L149.383 25.8617L150.548 25.6385L145.953 46.1003L142.928 46.7027H142.95ZM145.909 40.8119L146.245 38.3127L157.81 36.0367L159.132 38.2012L145.909 40.7896V40.8119Z" fill="black"/>
<path d="M180.335 35.3673L200.888 39.4284L199.297 47.4167C198.938 49.2018 198.355 50.6746 197.526 51.8349C196.697 52.9952 195.688 53.7985 194.478 54.2671C193.267 54.7357 191.923 54.8249 190.421 54.5348C188.942 54.2448 187.731 53.6423 186.79 52.7497C185.849 51.8572 185.221 50.7192 184.907 49.3357C184.571 47.9523 184.594 46.368 184.952 44.5829L186.23 38.2012L187.35 39.7854L179.752 38.2904L180.335 35.3673ZM187.059 39.7408L188.785 38.7144L187.53 45.0069C187.149 46.8812 187.283 48.3762 187.888 49.4919C188.494 50.6076 189.547 51.3216 191.004 51.6117C192.483 51.9018 193.693 51.634 194.702 50.8308C195.688 50.0275 196.383 48.6886 196.764 46.8143L198.019 40.5218L199.229 42.1284L187.082 39.7185L187.059 39.7408Z" fill="black"/>
<path d="M178.677 57.101L176.301 69.0165L173.746 68.5033L176.705 53.6423L197.257 57.7034L194.389 72.1404L191.833 71.6272L194.12 60.1133L178.677 57.0563V57.101ZM187.866 58.6406L185.782 69.1504L183.294 68.6595L185.378 58.1274L187.866 58.6183V58.6406Z" fill="black"/>
<path d="M165.162 87.1799L170.586 88.2509L169.689 88.8088L170.496 84.77L173.051 85.2832L171.841 91.3302L164.624 89.9022L165.162 87.1799ZM173.343 70.4669L193.895 74.528L193.313 77.4288L175.315 73.8809L173.051 85.2832L191.049 88.8311L190.466 91.7319L169.913 87.6708L173.343 70.4892V70.4669Z" fill="black"/>
<path d="M170.967 95.793L168.591 107.709L166.036 107.195L168.994 92.3567L189.547 96.4178L186.678 110.855L184.123 110.342L186.409 98.8277L170.967 95.7707V95.793ZM180.156 97.3327L178.071 107.865L175.584 107.374L177.668 96.8641L180.156 97.355V97.3327Z" fill="black"/>
<path d="M165.655 109.159L186.207 113.22L182.689 130.848L162.136 126.787L162.696 123.931L181.456 127.635L180.559 128.193L183.204 114.894L183.832 115.764L165.072 112.06L165.655 109.159Z" fill="black"/>
<path d="M160.455 135.199L179.215 138.903L178.296 139.483L179.842 131.763L182.397 132.276L179.035 149.145L176.48 148.632L178.027 140.911L178.654 141.759L159.895 138.055L160.455 135.199Z" fill="black"/>
<path d="M160.545 148.297C159.962 149.234 159.693 150.149 159.716 151.042C159.738 151.934 160.231 152.827 161.217 153.742L162.607 155.036L162.876 155.393L175.763 165.747L175.181 168.647L160.074 156.219C158.909 155.282 158.102 154.3 157.631 153.251C157.16 152.225 156.981 151.176 157.138 150.105C157.295 149.034 157.698 148.03 158.371 147.048L160.567 148.275L160.545 148.297ZM160.253 154.791L179.036 149.168L178.408 152.291L162.271 156.843L160.231 154.768L160.253 154.791Z" fill="black"/>
<path d="M154.336 165.948L174.889 170.009L173.298 177.997C172.939 179.782 172.356 181.255 171.527 182.415C170.698 183.575 169.689 184.379 168.479 184.847C167.268 185.316 165.924 185.405 164.422 185.115C162.92 184.825 161.732 184.222 160.791 183.33C159.85 182.437 159.222 181.299 158.908 179.916C158.572 178.532 158.595 176.948 158.953 175.163L160.231 168.781L161.351 170.366L153.753 168.871L154.336 165.948ZM161.06 170.321L162.786 169.295L161.531 175.587C161.15 177.461 161.284 178.956 161.889 180.072C162.495 181.188 163.548 181.902 165.005 182.192C166.462 182.482 167.694 182.214 168.703 181.411C169.689 180.608 170.384 179.269 170.765 177.394L172.02 171.102L173.23 172.709L161.082 170.299L161.06 170.321Z" fill="black"/>
<path d="M151.467 180.385L170.182 193.706L169.6 196.607L147.187 201.85L147.792 198.771L168.344 194.219L168.12 195.402L150.862 183.397L151.467 180.385ZM155.816 185.338L158.012 186.588L155.726 198.102L153.216 198.481L155.838 185.338H155.816Z" fill="black"/>
</svg>
