<svg width="753" height="1012" viewBox="0 0 753 1012" fill="none" xmlns="http://www.w3.org/2000/svg">
<path d="M691.543 1011L662.847 936.124H670.905V921.532H29.0161V936.124H55.2017L18.4473 1011H354.995H691.543Z" stroke="#1D1D1B" stroke-width="2" stroke-miterlimit="10"/>
<path d="M55.2017 936.124H662.847" stroke="#1D1D1B" stroke-width="2" stroke-miterlimit="10"/>
<path d="M62.4185 921.532V936.124" stroke="#1D1D1B" stroke-width="2" stroke-miterlimit="10"/>
<path d="M162.1 921.532V936.124" stroke="#1D1D1B" stroke-width="2" stroke-miterlimit="10"/>
<path d="M228.878 921.532V936.124" stroke="#1D1D1B" stroke-width="2" stroke-miterlimit="10"/>
<path d="M262.61 921.532V936.124" stroke="#1D1D1B" stroke-width="2" stroke-miterlimit="10"/>
<path d="M435.3 921.532V936.124" stroke="#1D1D1B" stroke-width="2" stroke-miterlimit="10"/>
<path d="M613.512 921.532V936.124" stroke="#1D1D1B" stroke-width="2" stroke-miterlimit="10"/>
<path d="M649.925 921.532V936.124" stroke="#1D1D1B" stroke-width="2" stroke-miterlimit="10"/>
<path d="M642.538 936.124L669.564 1011" stroke="#1D1D1B" stroke-width="2" stroke-miterlimit="10"/>
<path d="M603.613 936.124L620.899 1011" stroke="#1D1D1B" stroke-width="2" stroke-miterlimit="10"/>
<path d="M445.356 936.124L447.21 1011" stroke="#1D1D1B" stroke-width="2" stroke-miterlimit="10"/>
<path d="M335.106 936.124L338.853 1011" stroke="#1D1D1B" stroke-width="2" stroke-miterlimit="10"/>
<path d="M315.139 936.124L319.674 1011" stroke="#1D1D1B" stroke-width="2" stroke-miterlimit="10"/>
<path d="M265.462 936.124L259.6 1011" stroke="#1D1D1B" stroke-width="2" stroke-miterlimit="10"/>
<path d="M224.015 936.124L218.481 1011" stroke="#1D1D1B" stroke-width="2" stroke-miterlimit="10"/>
<path d="M157.223 936.124V1011" stroke="#1D1D1B" stroke-width="2" stroke-miterlimit="10"/>
<path d="M68.2818 936.124L59.5664 1011" stroke="#1D1D1B" stroke-width="2" stroke-miterlimit="10"/>
<path d="M626.605 921.532C626.605 921.532 615.524 704.292 614.774 685.415C614.025 666.539 621.57 605.11 674.678 559.561C727.785 514.013 731.571 507.203 733.083 501.919C734.594 496.635 731.781 443.277 731.282 439.242C730.782 435.206 690.544 405.34 603.706 425.137C510.965 446.288 467.02 570.13 469.281 632.045L520.377 628.272L540.016 637.842L550.835 921.532" stroke="#1D1D1B" stroke-width="2" stroke-miterlimit="10"/>
<path d="M520.377 628.272L531.445 921.533" stroke="#1D1D1B" stroke-width="2" stroke-miterlimit="10"/>
<path d="M540.003 637.842C540.003 637.842 544.538 565.424 592.532 527.171C640.526 488.918 694.803 493.138 701.612 501.998C712.694 516.431 656.3 537.241 625.422 589.599C600.064 632.597 598.907 669.286 598.907 669.286L610.909 921.533" stroke="#1D1D1B" stroke-width="2" stroke-miterlimit="10"/>
<path d="M727.469 511.015C736.855 500.315 731.15 488.905 716.585 482.28C695.539 472.71 644.154 467.149 598.237 498.632C586.485 506.691 522.046 561.48 520.377 628.272" stroke="#1D1D1B" stroke-width="2" stroke-miterlimit="10"/>
<path d="M684.733 420.194L689.308 475.523" stroke="#1D1D1B" stroke-width="2" stroke-miterlimit="10"/>
<path d="M674.48 419.037L680.212 474.787" stroke="#1D1D1B" stroke-width="2" stroke-miterlimit="10"/>
<path d="M618.442 422.166L638.988 479.703" stroke="#1D1D1B" stroke-width="2" stroke-miterlimit="10"/>
<path d="M606.204 424.584L627.197 483.541" stroke="#1D1D1B" stroke-width="2" stroke-miterlimit="10"/>
<path d="M538.518 462.154L584.527 509.951" stroke="#1D1D1B" stroke-width="2" stroke-miterlimit="10"/>
<path d="M524.031 478.152L574.431 519.718" stroke="#1D1D1B" stroke-width="2" stroke-miterlimit="10"/>
<path d="M488.526 539.475L542.356 560.508" stroke="#1D1D1B" stroke-width="2" stroke-miterlimit="10"/>
<path d="M481.309 559.207L534.982 573.785" stroke="#1D1D1B" stroke-width="2" stroke-miterlimit="10"/>
<path d="M614.866 677.883L598.934 668.47L541.239 669.969" stroke="#1D1D1B" stroke-width="2" stroke-miterlimit="10"/>
<path d="M732.189 454.057C737.381 452.676 739.892 447.523 740.641 443.054C740.864 441.766 740.93 440.556 740.878 439.492C740.628 434.707 739.616 417.079 739.616 417.079C739.616 417.079 745.663 412.807 747.174 402.737C748.581 393.378 746.28 361.356 745.952 356.926L745.912 356.413C742.14 333.763 722.001 326.218 722.001 326.218L721.791 320.184L721.252 304.318L720.239 274.359C695.066 253.208 635.662 249.686 635.662 249.686V299.283C604.692 294.748 541.515 301.045 541.515 301.045V266.052L533.207 251.447C532.116 251.381 530.959 251.342 529.723 251.329C501.908 250.895 439.822 261.516 439.822 261.516L446.079 379.338L448.038 416.251L450.891 420.207L457.082 632.729L465.495 921.533" stroke="#1D1D1B" stroke-width="2" stroke-miterlimit="10"/>
<path d="M446.092 379.338C582.554 354.651 708.697 356.781 737.552 401.094C738.603 402.711 739.155 404.603 739.234 406.536L739.629 417.078" stroke="#1D1D1B" stroke-width="2" stroke-miterlimit="10"/>
<path d="M448.051 416.237C448.051 416.237 539.504 398.701 637.424 407.758C735.343 416.815 740.917 436.546 740.641 443.04" stroke="#1D1D1B" stroke-width="2" stroke-miterlimit="10"/>
<path d="M450.904 420.194C489.67 413.043 630.627 401.725 702.099 423.861" stroke="#1D1D1B" stroke-width="2" stroke-miterlimit="10"/>
<path d="M541.515 293.565C562.823 290.541 605.112 287.86 635.662 291.212" stroke="#1D1D1B" stroke-width="2" stroke-miterlimit="10"/>
<path d="M635.662 249.686L612.842 267.221V289.674" stroke="#1D1D1B" stroke-width="2" stroke-miterlimit="10"/>
<path d="M721.804 320.171L731.071 317.016C731.071 317.016 756.994 328.847 750.329 355.401L745.965 356.912" stroke="#1D1D1B" stroke-width="2" stroke-miterlimit="10"/>
<path d="M722.001 326.204L730.059 323.312C730.059 323.312 753.55 335.38 750.316 355.4" stroke="#1D1D1B" stroke-width="2" stroke-miterlimit="10"/>
<path d="M731.072 317.029L730.06 323.313" stroke="#1D1D1B" stroke-width="2" stroke-miterlimit="10"/>
<path d="M439.822 261.516L437.246 261.963L436.233 254.286C436.233 254.286 456.701 248.542 486.541 245.058C490.931 244.545 495.506 244.072 500.251 243.678H500.265C507.166 243.126 514.422 242.718 521.915 242.547C526.135 242.429 530.42 242.403 534.771 242.482C537.006 242.508 539.254 242.56 541.515 242.639L552.885 263.291H552.899L553.346 264.119V269.679L546.273 269.969L541.515 270.166" stroke="#1D1D1B" stroke-width="2" stroke-miterlimit="10"/>
<path d="M553.346 269.68L541.594 252.117L533.208 251.447" stroke="#1D1D1B" stroke-width="2" stroke-miterlimit="10"/>
<path d="M541.515 242.639L541.58 250.303L541.594 252.117" stroke="#1D1D1B" stroke-width="2" stroke-miterlimit="10"/>
<path d="M612.842 267.221H605.204V262.528L635.031 238.683C635.031 238.683 701.993 237.355 728.928 268.325V273.991L720.239 274.372" stroke="#1D1D1B" stroke-width="2" stroke-miterlimit="10"/>
<path d="M728.928 273.978C728.928 273.978 709.802 246.163 635.031 244.401L605.204 267.222" stroke="#1D1D1B" stroke-width="2" stroke-miterlimit="10"/>
<path d="M635.031 238.669V244.401" stroke="#1D1D1B" stroke-width="2" stroke-miterlimit="10"/>
<path d="M721.265 304.317H744.243V297.679H721.265" stroke="#1D1D1B" stroke-width="2" stroke-miterlimit="10"/>
<path d="M741.219 304.317L740.982 323.996" stroke="#1D1D1B" stroke-width="2" stroke-miterlimit="10"/>
<path d="M486.541 245.045L421.195 175.94L116.117 236.343V244.401L98.4893 231.821V207.646L84.3975 198.09L87.9204 107.465L152.359 87.8261L176.021 105.454V117.035L200.353 111.672L205.729 115.142V74.7464L285.469 53.096L309.933 76.2582L310.445 82.7914L339.365 76.6657L343.716 79.3473L343.164 40.5027L434.958 18.3528L466.507 56.619V105.954L483.793 127.262L488.999 126.434V120.887L483.793 114.511V79.9389L509.808 115.523V163.346L529.434 185.667L534.64 185.325V180.291L526.923 170.563L527.594 140.697L549.073 168.552V178.95L551.755 187.008V215.533L564.677 233.819L569.383 232.82V228.298L564.006 219.898L564.677 191.872L584.316 219.398L587.169 289.673" stroke="#1D1D1B" stroke-width="2" stroke-miterlimit="10"/>
<path d="M98.4897 231.821L428.412 163.018L500.278 243.678" stroke="#1D1D1B" stroke-width="2" stroke-miterlimit="10"/>
<path d="M565.058 291.133L546.273 269.969" stroke="#1D1D1B" stroke-width="2" stroke-miterlimit="10"/>
<path d="M521.915 242.548L428.61 137.437L428.071 136.833L98.4897 207.647" stroke="#1D1D1B" stroke-width="2" stroke-miterlimit="10"/>
<path d="M576.495 290.397L552.886 263.291" stroke="#1D1D1B" stroke-width="2" stroke-miterlimit="10"/>
<path d="M534.771 242.482L433.433 126.106L428.741 120.729L84.3975 198.09" stroke="#1D1D1B" stroke-width="2" stroke-miterlimit="10"/>
<path d="M433.434 126.105L434.958 18.3528" stroke="#1D1D1B" stroke-width="2" stroke-miterlimit="10"/>
<path d="M428.754 120.729L428.413 163.018L421.196 175.94L438.061 921.533" stroke="#1D1D1B" stroke-width="2" stroke-miterlimit="10"/>
<path d="M87.7109 113L75.5908 104.192V97.646L156.645 72.4727L186.341 95.385V102.93L176.021 105.454" stroke="#1D1D1B" stroke-width="2" stroke-miterlimit="10"/>
<path d="M205.729 74.7469L198.683 68.7V62.4034L289.544 37.23L318.24 65.6766V73.7347L309.932 76.2586" stroke="#1D1D1B" stroke-width="2" stroke-miterlimit="10"/>
<path d="M343.164 40.5028L335.776 32.9574V27.9227L433.433 2L471.884 49.5731V55.3571L466.507 56.619" stroke="#1D1D1B" stroke-width="2" stroke-miterlimit="10"/>
<path d="M466.508 72.8142L486.147 68.9495L515.514 108.307V114.511L509.809 115.524" stroke="#1D1D1B" stroke-width="2" stroke-miterlimit="10"/>
<path d="M509.808 133.139L528.343 129.116L554.108 163.018V168.46L549.073 168.552" stroke="#1D1D1B" stroke-width="2" stroke-miterlimit="10"/>
<path d="M550.401 182.959L568.871 182.394L589.509 213.443V219.043L584.316 219.398" stroke="#1D1D1B" stroke-width="2" stroke-miterlimit="10"/>
<path d="M75.5908 104.193L156.054 80.1104L186.341 102.931" stroke="#1D1D1B" stroke-width="2" stroke-miterlimit="10"/>
<path d="M198.683 68.6998L288.795 44.1968L318.24 73.7344" stroke="#1D1D1B" stroke-width="2" stroke-miterlimit="10"/>
<path d="M335.776 32.9573L433.433 8.95386L471.884 55.357" stroke="#1D1D1B" stroke-width="2" stroke-miterlimit="10"/>
<path d="M466.508 78.2695L486.147 74.9043L515.514 114.511" stroke="#1D1D1B" stroke-width="2" stroke-miterlimit="10"/>
<path d="M509.808 137.844L528.093 134.821L554.108 168.46" stroke="#1D1D1B" stroke-width="2" stroke-miterlimit="10"/>
<path d="M551.755 188.02L568.871 187.678L589.509 219.043" stroke="#1D1D1B" stroke-width="2" stroke-miterlimit="10"/>
<path d="M568.871 182.394V187.678" stroke="#1D1D1B" stroke-width="2" stroke-miterlimit="10"/>
<path d="M528.343 129.116L528.093 134.821" stroke="#1D1D1B" stroke-width="2" stroke-miterlimit="10"/>
<path d="M486.146 68.9495V74.9043" stroke="#1D1D1B" stroke-width="2" stroke-miterlimit="10"/>
<path d="M433.434 2V8.9539" stroke="#1D1D1B" stroke-width="2" stroke-miterlimit="10"/>
<path d="M483.794 79.9392L466.508 82.6734" stroke="#1D1D1B" stroke-width="2" stroke-miterlimit="10"/>
<path d="M527.594 140.697L509.808 142.958" stroke="#1D1D1B" stroke-width="2" stroke-miterlimit="10"/>
<path d="M564.677 191.872H551.755" stroke="#1D1D1B" stroke-width="2" stroke-miterlimit="10"/>
<path d="M466.508 101.419L472.739 100.42L483.794 114.512" stroke="#1D1D1B" stroke-width="2" stroke-miterlimit="10"/>
<path d="M526.923 170.564L515.513 156.971L509.808 157.431" stroke="#1D1D1B" stroke-width="2" stroke-miterlimit="10"/>
<path d="M564.007 219.898L558.223 211.169H551.755" stroke="#1D1D1B" stroke-width="2" stroke-miterlimit="10"/>
<path d="M534.64 185.326L515.513 163.018L509.808 163.346" stroke="#1D1D1B" stroke-width="2" stroke-miterlimit="10"/>
<path d="M569.383 232.82L557.881 215.533H551.755" stroke="#1D1D1B" stroke-width="2" stroke-miterlimit="10"/>
<path d="M558.222 211.169L557.88 215.534" stroke="#1D1D1B" stroke-width="2" stroke-miterlimit="10"/>
<path d="M515.514 163.018V156.971" stroke="#1D1D1B" stroke-width="2" stroke-miterlimit="10"/>
<path d="M489 126.434L472.358 105.139L466.508 105.954" stroke="#1D1D1B" stroke-width="2" stroke-miterlimit="10"/>
<path d="M472.357 105.139L472.739 100.42" stroke="#1D1D1B" stroke-width="2" stroke-miterlimit="10"/>
<path d="M343.716 79.3477L343.663 85.3157L287.874 98.2376L285.442 95.6348V89.0095L310.445 82.7917" stroke="#1D1D1B" stroke-width="2" stroke-miterlimit="10"/>
<path d="M285.442 95.135L339.562 82.7915L343.663 85.3154" stroke="#1D1D1B" stroke-width="2" stroke-miterlimit="10"/>
<path d="M339.563 82.792L339.366 76.6663" stroke="#1D1D1B" stroke-width="2" stroke-miterlimit="10"/>
<path d="M285.442 89.0094L285.469 53.0962" stroke="#1D1D1B" stroke-width="2" stroke-miterlimit="10"/>
<path d="M205.73 115.143V120.729L156.645 133.309L150.519 130.457V124.226L176.021 117.036" stroke="#1D1D1B" stroke-width="2" stroke-miterlimit="10"/>
<path d="M205.73 120.729L200.353 117.285L150.519 130.457" stroke="#1D1D1B" stroke-width="2" stroke-miterlimit="10"/>
<path d="M200.354 117.285V111.672" stroke="#1D1D1B" stroke-width="2" stroke-miterlimit="10"/>
<path d="M116.117 244.401L108.165 583.71" stroke="#1D1D1B" stroke-width="2" stroke-miterlimit="10"/>
<path d="M469.281 632.045L457.069 632.715" stroke="#1D1D1B" stroke-width="2" stroke-miterlimit="10"/>
<path d="M381.089 921.532C381.089 921.532 372.794 691.186 371.019 628.272C368.338 532.876 338.839 468.766 259.533 477.718C163.769 488.524 156.855 600.969 157.223 651.355C157.709 718.896 159.405 921.532 159.405 921.532" stroke="#1D1D1B" stroke-width="2" stroke-miterlimit="10"/>
<path d="M430.384 582.224C414.15 481.53 374.806 445.788 338.84 430.171C302.874 414.555 222.884 407.114 157.21 478.152C109.414 529.853 105.536 581.199 104.024 648.161C102.486 716.491 101.342 921.532 101.342 921.532" stroke="#1D1D1B" stroke-width="2" stroke-miterlimit="10"/>
<path d="M347.186 921.532C347.186 921.532 344.163 755.795 344.676 699.204C345.188 642.614 358.899 615.679 370.165 610.276" stroke="#1D1D1B" stroke-width="2" stroke-miterlimit="10"/>
<path d="M306.41 921.532C306.41 921.532 302.887 761.947 306.41 689.451C309.933 616.954 330.689 575.454 363.356 566.502" stroke="#1D1D1B" stroke-width="2" stroke-miterlimit="10"/>
<path d="M218.651 660.242L157.21 644.139L104.037 648.161" stroke="#1D1D1B" stroke-width="2" stroke-miterlimit="10"/>
<path d="M160.51 597.394H106.561" stroke="#1D1D1B" stroke-width="2" stroke-miterlimit="10"/>
<path d="M107.704 587.074L161.626 590.19" stroke="#1D1D1B" stroke-width="2" stroke-miterlimit="10"/>
<path d="M171.526 551.845L121.35 533.087" stroke="#1D1D1B" stroke-width="2" stroke-miterlimit="10"/>
<path d="M128.408 518.127L174.483 544.339" stroke="#1D1D1B" stroke-width="2" stroke-miterlimit="10"/>
<path d="M194.661 511.016L161.626 473.525" stroke="#1D1D1B" stroke-width="2" stroke-miterlimit="10"/>
<path d="M174.483 461.483L202.009 503.325" stroke="#1D1D1B" stroke-width="2" stroke-miterlimit="10"/>
<path d="M235.044 483.239L221.938 432.091" stroke="#1D1D1B" stroke-width="2" stroke-miterlimit="10"/>
<path d="M237.844 426.465L244.43 480.426" stroke="#1D1D1B" stroke-width="2" stroke-miterlimit="10"/>
<path d="M278.91 477.009L287.283 419.76" stroke="#1D1D1B" stroke-width="2" stroke-miterlimit="10"/>
<path d="M299.877 420.549L287.284 477.745" stroke="#1D1D1B" stroke-width="2" stroke-miterlimit="10"/>
<path d="M349.277 435.272L319.476 489.128" stroke="#1D1D1B" stroke-width="2" stroke-miterlimit="10"/>
<path d="M361.975 443.277L327.231 494.794" stroke="#1D1D1B" stroke-width="2" stroke-miterlimit="10"/>
<path d="M398.966 485.185L350.775 525.712" stroke="#1D1D1B" stroke-width="2" stroke-miterlimit="10"/>
<path d="M354.798 534.638L408.103 503.01" stroke="#1D1D1B" stroke-width="2" stroke-miterlimit="10"/>
<path d="M426.046 559.207L365.498 572.313C355.311 535.926 295.88 522.045 259.599 547.967C224.133 573.312 218.428 601.666 218.48 668.458C218.533 738.273 224.015 921.52 224.015 921.52" stroke="#1D1D1B" stroke-width="2" stroke-miterlimit="10"/>
<path d="M367.115 581.882L428.714 572.483" stroke="#1D1D1B" stroke-width="2" stroke-miterlimit="10"/>
<path d="M133.864 435.074L135.375 346.212C135.375 346.212 148.087 342.689 162.061 343.32C176.034 343.951 183.829 355.019 183.961 364.471C184.092 373.922 182.068 383.269 169.987 389.171C157.907 395.073 157.026 397.834 166.215 402.737L166.346 410.164C166.346 410.164 157.539 407.903 154.265 402.619C154.265 402.619 153.884 415.83 153.884 417.723C153.884 419.616 156.145 422.008 156.145 422.008V433.09L133.864 435.101V435.074Z" stroke="#1D1D1B" stroke-width="2" stroke-miterlimit="10"/>
<path d="M153.739 353.271V390.025C153.739 390.025 166.333 382.388 166.451 368.125C166.543 356.044 153.739 353.271 153.739 353.271Z" stroke="#1D1D1B" stroke-width="2" stroke-miterlimit="10"/>
<path d="M189.613 337.365V427.319L208.582 425.136V334.092L189.613 337.365Z" stroke="#1D1D1B" stroke-width="2" stroke-miterlimit="10"/>
<path d="M220.571 332.001L219.059 423.243C219.059 423.243 235.294 422.047 247.256 419.747C259.218 417.446 270.287 404.603 269.787 393.035C269.288 381.467 255.695 376.669 253.802 375.039C251.909 373.409 256.826 373.738 256.865 372.397C256.905 371.056 253.092 371.595 253.092 370.636C253.092 369.676 267.145 361.447 266.146 346.934C265.147 332.422 250.871 329.477 240.223 330.148C229.575 330.818 220.584 331.988 220.584 331.988L220.571 332.001Z" stroke="#1D1D1B" stroke-width="2" stroke-miterlimit="10"/>
<path d="M239.46 338.876V369.834C239.46 369.834 251.633 363.117 251.633 351.798C251.633 340.48 239.46 338.876 239.46 338.876Z" stroke="#1D1D1B" stroke-width="2" stroke-miterlimit="10"/>
<path d="M239.46 409.704V378.747C239.46 378.747 251.633 385.464 251.633 396.782C251.633 408.1 239.46 409.704 239.46 409.704Z" stroke="#1D1D1B" stroke-width="2" stroke-miterlimit="10"/>
<path d="M278.226 414.397V323.943L297.182 319.75V361.697L310.274 360.027V317.397L329.743 313.703V407.18L309.105 409.704V368.243L297.169 369.255V411.202L278.226 414.397Z" stroke="#1D1D1B" stroke-width="2" stroke-miterlimit="10"/>
<path d="M339.97 312.704V406.01C339.97 406.01 371.86 401.317 378.394 400.134C384.927 398.951 387.793 396.112 393.669 386.713L386.123 380.837C386.123 380.837 382.771 385.622 381.43 387.133C380.089 388.645 377.105 390.617 371.321 391.287C365.537 391.958 359.53 392.168 359.53 392.168V359.357L382.18 356.426L381.93 346.738L359.149 350.392V319.053C359.149 319.053 374.121 315.912 377.526 315.53C380.931 315.149 381.811 314.899 385.203 318.554L390.987 312.717C390.987 312.717 389.094 310.561 386.833 308.287C384.572 306.013 382.679 304.83 373.49 306.592C364.302 308.353 339.97 312.717 339.97 312.717V312.704Z" stroke="#1D1D1B" stroke-width="2" stroke-miterlimit="10"/>
<path d="M133.864 435.074L137.492 436.31L159.76 434.299V423.217C159.76 423.217 157.499 420.825 157.499 418.945C157.499 417.551 157.709 410.098 157.802 406.207" stroke="#1D1D1B" stroke-width="2" stroke-miterlimit="10"/>
<path d="M170.762 345.318H170.775C181.528 348.039 187.457 357.503 187.562 365.719C187.693 375.158 185.682 384.517 173.588 390.406C161.508 396.295 160.627 399.069 169.816 403.972L169.947 411.399C169.947 411.399 168.383 411.005 166.332 410.137" stroke="#1D1D1B" stroke-width="2" stroke-miterlimit="10"/>
<path d="M157.354 387.212V354.572" stroke="#1D1D1B" stroke-width="2" stroke-miterlimit="10"/>
<path d="M208.569 334.092L212.197 335.34V426.385L193.228 428.567L189.613 427.319" stroke="#1D1D1B" stroke-width="2" stroke-miterlimit="10"/>
<path d="M255.8 332.409C262.952 334.275 269.104 338.824 269.748 348.183C270.76 362.696 256.707 370.912 256.707 371.884C256.707 371.937 256.721 371.976 256.734 372.016C256.747 372.055 256.773 372.081 256.799 372.108C256.799 372.121 256.813 372.134 256.826 372.147C257.483 372.752 260.52 372.45 260.48 373.646C260.441 374.987 255.524 374.645 257.417 376.288C259.31 377.918 272.903 382.703 273.402 394.284C273.902 405.865 262.833 418.708 250.871 420.995C238.922 423.296 222.674 424.492 222.674 424.492L219.059 423.256" stroke="#1D1D1B" stroke-width="2" stroke-miterlimit="10"/>
<path d="M244.035 340.31C243.43 340.178 243.062 340.125 243.062 340.125V367.31" stroke="#1D1D1B" stroke-width="2" stroke-miterlimit="10"/>
<path d="M243.062 408.692V381.27" stroke="#1D1D1B" stroke-width="2" stroke-miterlimit="10"/>
<path d="M297.182 319.75L300.797 320.999V361.25" stroke="#1D1D1B" stroke-width="2" stroke-miterlimit="10"/>
<path d="M278.226 414.397L281.828 415.646L300.77 412.451V370.491L309.091 369.795" stroke="#1D1D1B" stroke-width="2" stroke-miterlimit="10"/>
<path d="M329.743 313.703L333.358 314.952V408.428L312.707 410.939L309.105 409.704" stroke="#1D1D1B" stroke-width="2" stroke-miterlimit="10"/>
<path d="M362.764 349.8V320.276C362.764 320.276 377.737 317.134 381.141 316.753C381.917 316.674 382.574 316.582 383.139 316.556" stroke="#1D1D1B" stroke-width="2" stroke-miterlimit="10"/>
<path d="M386.123 380.836L389.738 382.072L397.284 387.948C391.421 397.347 388.568 400.2 382.022 401.369C375.475 402.553 343.585 407.245 343.585 407.245L339.97 406.01" stroke="#1D1D1B" stroke-width="2" stroke-miterlimit="10"/>
<path d="M381.93 346.724L385.545 347.973L385.795 357.661L363.146 360.593V391.984" stroke="#1D1D1B" stroke-width="2" stroke-miterlimit="10"/>
<path d="M385.203 318.528C385.203 318.528 387.793 318.659 388.818 319.763L394.602 313.927C394.602 313.927 392.722 311.771 390.448 309.51C389.147 308.208 385.361 306.145 382.837 305.921" stroke="#1D1D1B" stroke-width="2" stroke-miterlimit="10"/>
<path d="M202.009 335.235L199.091 266.551L161.626 270.586L163.638 343.254" stroke="#1D1D1B" stroke-width="2" stroke-miterlimit="10"/>
<path d="M189.613 344.214L172.84 345.936" stroke="#1D1D1B" stroke-width="2" stroke-miterlimit="10"/>
<path d="M180.057 345.068L178.164 280.656L199.617 278.802" stroke="#1D1D1B" stroke-width="2" stroke-miterlimit="10"/>
<path d="M178.163 280.656L161.626 270.587" stroke="#1D1D1B" stroke-width="2" stroke-miterlimit="10"/>
<path d="M247.268 330.279L245.533 261.687L283.26 255.982L285.416 322.353" stroke="#1D1D1B" stroke-width="2" stroke-miterlimit="10"/>
<path d="M278.226 330.28L254.367 331.831" stroke="#1D1D1B" stroke-width="2" stroke-miterlimit="10"/>
<path d="M265.475 331.055L263.28 273.347L283.734 270.587" stroke="#1D1D1B" stroke-width="2" stroke-miterlimit="10"/>
<path d="M245.533 261.687L263.279 273.347" stroke="#1D1D1B" stroke-width="2" stroke-miterlimit="10"/>
<path d="M330.861 314.269L329.178 247.74L366.905 242.035L369.035 307.42" stroke="#1D1D1B" stroke-width="2" stroke-miterlimit="10"/>
<path d="M348.896 311.101L346.924 259.4L367.378 256.626" stroke="#1D1D1B" stroke-width="2" stroke-miterlimit="10"/>
<path d="M329.178 247.74L346.924 259.399" stroke="#1D1D1B" stroke-width="2" stroke-miterlimit="10"/>
<path d="M339.97 320.762L333.358 321.433" stroke="#1D1D1B" stroke-width="2" stroke-miterlimit="10"/>
<path d="M114.172 327.467C73.0796 335.446 62.4187 340.218 62.4187 340.218V385.188C62.4187 385.188 30.8698 391.905 16.7779 404.157L8.8907 403.486V399.122C8.8907 399.122 17.6587 384.597 54.584 378.353L58.5671 379.325L58.9088 365.812L12.5977 360.527C12.5977 360.527 5.55177 363.38 5.05225 368.914V468.425C5.05225 468.425 6.8926 475.812 12.2691 478.323L12.4399 497.292C12.4399 497.292 14.1226 511.055 23.3506 513.737C23.3506 513.737 19.3281 547.494 18.9863 551.845C18.6446 556.196 32.5787 566.594 48.3531 569.118C48.3531 569.118 80.0729 593.621 86.1066 664.435L80.7302 921.519" stroke="#1D1D1B" stroke-width="2" stroke-miterlimit="10"/>
<path d="M23.3115 513.736L24.1528 503.325C24.1528 503.325 75.3409 492.27 108.165 573.482" stroke="#1D1D1B" stroke-width="2" stroke-miterlimit="10"/>
<path d="M12.243 478.336V464.665C12.243 464.665 11.152 457.869 35.8258 446.787C60.4997 435.706 94.2833 430.684 111.754 430.934" stroke="#1D1D1B" stroke-width="2" stroke-miterlimit="10"/>
<path d="M110.977 463.232C110.977 463.232 31.3555 467.425 12.3999 497.292" stroke="#1D1D1B" stroke-width="2" stroke-miterlimit="10"/>
<path d="M24.1523 503.325V492.467C24.1523 492.467 37.7052 472.578 110.899 467.044" stroke="#1D1D1B" stroke-width="2" stroke-miterlimit="10"/>
<path d="M48.314 569.118C33.0391 555.144 26.7556 552.068 18.9473 551.845" stroke="#1D1D1B" stroke-width="2" stroke-miterlimit="10"/>
<path d="M78.6396 525.554L50.7451 571.313" stroke="#1D1D1B" stroke-width="2" stroke-miterlimit="10"/>
<path d="M88.4464 537.162L53.3745 574.074" stroke="#1D1D1B" stroke-width="2" stroke-miterlimit="10"/>
<path d="M74.3018 610.066L107.323 590.19" stroke="#1D1D1B" stroke-width="2" stroke-miterlimit="10"/>
<path d="M77.2466 618.453L106.561 604.229" stroke="#1D1D1B" stroke-width="2" stroke-miterlimit="10"/>
<path d="M86.0806 664.435L103.774 660.741" stroke="#1D1D1B" stroke-width="2" stroke-miterlimit="10"/>
<path d="M5.02588 383.479C1.64751 371.149 1.05597 361.447 2.71229 359.186C5.60427 355.243 9.12723 353.021 9.12723 353.021L62.4054 360.317" stroke="#1D1D1B" stroke-width="2" stroke-miterlimit="10"/>
<path d="M1.83105 364.97C3.52681 360.567 9.13988 357.109 9.13988 357.109L62.4181 364.09" stroke="#1D1D1B" stroke-width="2" stroke-miterlimit="10"/>
<path d="M9.12695 353.021V357.109" stroke="#1D1D1B" stroke-width="2" stroke-miterlimit="10"/>
<path d="M58.7637 370.951L62.4181 370.452" stroke="#1D1D1B" stroke-width="2" stroke-miterlimit="10"/>
<path d="M58.6323 376.118H62.4182" stroke="#1D1D1B" stroke-width="2" stroke-miterlimit="10"/>
<path d="M58.5542 379.325L62.4189 380.324" stroke="#1D1D1B" stroke-width="2" stroke-miterlimit="10"/>
<path d="M62.4186 385.201L54.5708 383.479C54.5708 383.479 24.4284 387.133 8.87744 403.486" stroke="#1D1D1B" stroke-width="2" stroke-miterlimit="10"/>
<path d="M54.5708 378.352V383.479" stroke="#1D1D1B" stroke-width="2" stroke-miterlimit="10"/>
<path d="M62.4185 340.218L59.0664 338.417V332.633C59.0664 332.633 77.4305 323.523 114.395 317.989" stroke="#1D1D1B" stroke-width="2" stroke-miterlimit="10"/>
<path d="M59.0537 338.416C59.0537 338.416 74.4864 330.319 114.383 324.272" stroke="#1D1D1B" stroke-width="2" stroke-miterlimit="10"/>
</svg>
