<svg width="249" height="368" viewBox="0 0 249 368" fill="none" xmlns="http://www.w3.org/2000/svg">
<g clip-path="url(#clip0_164_1087)">
<g style="mix-blend-mode:multiply" opacity="0.6">
<path d="M136.684 65.0995C148.879 46.8601 162.472 28.1149 182.478 19.0242C198.932 11.5334 234.894 11.215 242.575 30.4732C252.927 56.3893 242.572 85.5972 231.325 111.12C199.578 183.249 160.112 252.011 113.842 315.827C104.937 328.093 95.6459 340.347 83.5817 349.505C58.0063 368.934 14.2807 368.613 9.22124 329.685C6.27019 306.967 17.5975 286.487 26.3698 266.513C36.7268 242.859 47.7824 219.514 59.5357 196.511C82.6668 151.263 108.429 107.343 136.684 65.0995Z" fill="#797774"/>
</g>
<path d="M130.657 57.7033C142.853 39.4638 156.446 20.7186 176.451 11.628C192.905 4.13721 228.867 3.81873 236.548 23.0769C246.9 48.9931 236.545 78.2009 225.298 103.723C193.551 175.853 154.085 244.615 107.815 308.43C98.9099 320.696 89.6191 332.951 77.5548 342.109C51.9795 361.538 8.25384 361.217 3.19438 322.289C0.243335 299.571 11.5706 279.091 20.343 259.116C30.6999 235.463 41.7556 212.118 53.5089 189.114C76.64 143.867 102.402 99.9468 130.657 57.7033Z" fill="#FFF1B3"/>
<path d="M237.235 24.9265C246.41 50.3917 236.302 78.8361 225.296 103.787C193.581 175.918 154.116 244.68 107.813 308.495C98.9394 320.793 89.6173 333.015 77.553 342.173C60.13 355.415 34.2869 359.49 18.0102 348.43C18.1718 348.402 18.3343 348.343 18.4647 348.282C31.3312 343.674 41.9825 334.444 51.8049 324.966C117.949 261.141 161.268 177.978 203.48 96.3885C215.565 73.0412 227.722 49.407 237.235 24.9265Z" fill="#FFE455"/>
<path d="M130.657 57.7033C142.853 39.4638 156.446 20.7186 176.451 11.628C192.905 4.13721 228.867 3.81873 236.548 23.0769C246.9 48.9931 236.545 78.2009 225.298 103.723C193.551 175.853 154.085 244.615 107.815 308.43C98.9099 320.696 89.6191 332.951 77.5548 342.109C51.9795 361.538 8.25384 361.217 3.19438 322.289C0.243335 299.571 11.5706 279.091 20.343 259.116C30.6999 235.463 41.7555 212.118 53.5089 189.114C76.64 143.867 102.402 99.9468 130.657 57.7033Z" stroke="#2D2A26" stroke-width="0.86" stroke-miterlimit="10"/>
</g>
<defs>
<clipPath id="clip0_164_1087">
<rect width="238" height="361" fill="white" transform="translate(10.3345) rotate(1.64048)"/>
</clipPath>
</defs>
</svg>
