<svg width="381" height="265" viewBox="0 0 381 265" fill="none" xmlns="http://www.w3.org/2000/svg">
<g clip-path="url(#clip0_164_1045)">
<g style="mix-blend-mode:multiply" opacity="0.6">
<path d="M308.444 152.311C325.403 165.242 342.78 179.535 350.406 199.457C356.684 215.847 354.814 250.678 335.6 256.917C309.8 265.363 282.069 253.529 257.925 241.078C189.779 205.943 125.403 163.53 66.2328 114.811C54.859 105.461 43.532 95.6781 35.3604 83.4437C18.046 57.4902 21.0321 15.2214 59.1707 12.716C81.4205 11.2573 100.623 23.4893 119.502 33.1774C141.835 44.6492 163.846 56.7762 185.5 69.5862C228.041 94.747 269.151 122.388 308.475 152.314L308.444 152.311Z" fill="#797774"/>
</g>
<path d="M304.589 145.125C321.548 158.055 338.925 172.349 346.551 192.271C352.828 208.661 350.959 243.491 331.744 249.731C305.944 258.177 278.214 246.343 254.07 233.892C185.924 198.757 121.548 156.344 62.3774 107.624C51.0036 98.2752 39.6765 88.4918 31.505 76.2574C14.2216 50.3072 17.2111 8.00744 55.3153 5.52964C77.5651 4.071 96.7675 16.303 115.647 25.9911C137.98 37.4629 159.99 49.5899 181.645 62.3999C224.185 87.5607 265.296 115.202 304.62 145.128L304.589 145.125Z" fill="#FFF1B3"/>
<path d="M331.776 249.734C305.948 258.146 278.245 246.346 254.101 233.895C185.955 198.76 121.579 156.347 62.4052 107.659C51.7578 98.8583 41.1439 89.7477 33.1416 78.5665C42.5745 86.3893 52.7156 93.473 62.9044 100.405C113.326 134.664 165.424 166.501 218.858 195.847C236.513 205.528 254.532 215.03 273.904 220.443C293.307 225.859 314.459 227.011 333.37 220.08C339.163 217.945 344.694 215.028 349.712 211.335C350.016 227.457 345 245.421 331.741 249.762L331.776 249.734Z" fill="#FFE664"/>
<path d="M24.3833 61.2821C34.3417 67.4366 46.3291 69.6386 57.2991 73.989C72.094 79.881 84.8811 89.8217 97.402 99.6083C111.777 110.849 126.153 122.09 140.528 133.332C153.429 143.379 166.922 153.772 182.919 156.971C191.53 158.715 200.499 158.302 208.903 160.807C218.64 163.77 226.757 170.385 234.574 176.873C246.225 186.566 257.942 196.234 269.596 205.896C276.43 211.588 283.81 217.465 292.677 218.296C308.572 219.821 324.331 204.522 339.021 210.81C343.316 212.653 346.478 215.973 349.379 219.673" fill="#FFF8D9"/>
<path d="M24.3833 61.2821C34.3417 67.4366 46.3291 69.6386 57.2991 73.989C72.094 79.881 84.8811 89.8217 97.402 99.6083C111.777 110.849 126.153 122.09 140.528 133.332C153.429 143.379 166.922 153.772 182.919 156.971C191.53 158.715 200.499 158.302 208.903 160.807C218.64 163.77 226.757 170.385 234.574 176.873C246.225 186.566 257.942 196.234 269.596 205.896C276.43 211.588 283.81 217.465 292.677 218.296C308.572 219.821 324.331 204.522 339.021 210.81C343.316 212.653 346.478 215.973 349.379 219.673" stroke="#1D1D1B" stroke-width="0.88" stroke-miterlimit="10"/>
<path d="M349.219 221.444C346.315 217.775 343.157 214.424 338.861 212.581C324.172 206.292 308.412 221.592 292.518 220.066C283.651 219.236 276.274 213.328 269.437 207.667C257.782 198.005 246.066 188.337 234.415 178.644C226.598 172.156 218.48 165.541 208.743 162.578C200.34 160.072 191.339 160.482 182.759 158.741C166.766 155.511 153.239 145.146 140.369 135.102C125.993 123.861 111.618 112.62 97.2425 101.379C84.7217 91.5923 71.9346 81.6515 57.1396 75.7596C46.1696 71.4092 34.21 69.2416 24.2238 63.0527C16.2022 38.352 23.7646 9.30997 55.1593 7.26919C77.3781 5.80719 96.5804 18.0392 115.46 27.7273C137.793 39.1991 159.834 51.3295 181.43 64.1017C223.97 89.2625 265.05 116.9 304.371 146.857C321.364 159.761 338.738 174.085 346.367 193.976C349.069 200.979 350.216 211.327 349.191 221.41L349.219 221.444Z" fill="#FFF8D9" stroke="#2D2A26" stroke-width="3" stroke-miterlimit="10"/>
<path d="M48.1675 10.9061C46.8857 11.4265 45.625 12.0433 44.3921 12.6945C34.4327 18.2068 23.9643 33.1046 36.206 41.9829C39.5579 44.4142 43.637 45.6381 47.6674 46.7313C77.8314 54.9389 109.897 58.3336 137.321 73.3024C156.611 83.8502 172.488 99.5186 189.097 113.949C205.674 128.375 223.933 142.074 245.312 147.233C250.886 148.586 257.164 149.232 262.018 146.18C269.159 141.744 269.846 130.998 265.767 123.658C261.687 116.318 254.249 111.564 247.122 107.127C217.205 88.4703 199.073 71.5553 161.032 50.4236C132.829 34.8063 85.8114 8.03371 69.4207 7.61506C62.2743 7.44044 54.8447 8.14479 48.1708 10.8751L48.1675 10.9061Z" fill="#FEFEFE"/>
<path d="M304.589 145.125C321.548 158.055 338.925 172.349 346.551 192.271C352.828 208.661 350.959 243.491 331.744 249.731C305.944 258.177 278.214 246.343 254.07 233.892C185.924 198.757 121.548 156.344 62.3774 107.624C51.0036 98.2752 39.6765 88.4918 31.505 76.2574C14.2216 50.3072 17.2111 8.00744 55.3153 5.52964C77.5651 4.071 96.7675 16.303 115.647 25.9911C137.98 37.4629 159.99 49.5899 181.645 62.3999C224.185 87.5607 265.296 115.202 304.62 145.128L304.589 145.125Z" stroke="#2D2A26" stroke-width="0.86" stroke-miterlimit="10"/>
</g>
<defs>
<clipPath id="clip0_164_1045">
<rect width="357.848" height="227.536" fill="white" transform="translate(24.3911) rotate(6.15388)"/>
</clipPath>
</defs>
</svg>
